<svg xmlns="http://www.w3.org/2000/svg" width="74.27" height="74.278" viewBox="0 0 74.27 74.278">
  <g id="bitcoin-logo-svgrepo-com" transform="translate(-0.004 0)">
    <path id="Path_170436" data-name="Path 170436" d="M73.163,46.123A37.127,37.127,0,1,1,46.118,1.111,37.131,37.131,0,0,1,73.163,46.123Z" transform="translate(0 0)" fill="#f7931a"/>
    <path id="Path_170437" data-name="Path 170437" d="M51.014,30.057c.738-4.942-3.025-7.6-8.169-9.371l1.669-6.694-4.076-1.016-1.625,6.518c-1.07-.267-2.17-.519-3.264-.768l1.636-6.561L33.113,11.15l-1.67,6.692c-.887-.2-1.757-.4-2.6-.612l0-.021-5.62-1.4-1.084,4.352s3.023.693,2.96.736a2.167,2.167,0,0,1,1.9,2.37l-1.9,7.626a3.375,3.375,0,0,1,.424.136l-.429-.107L22.427,41.6a1.483,1.483,0,0,1-1.867.968c.041.059-2.962-.739-2.962-.739L15.575,46.5l5.3,1.322c.987.247,1.953.506,2.9.75L22.1,55.341l4.07,1.016,1.671-6.7c1.111.3,2.19.58,3.246.843L29.42,57.167l4.075,1.016,1.686-6.758c6.948,1.315,12.175.785,14.372-5.5,1.772-5.06-.087-7.979-3.743-9.884,2.662-.616,4.668-2.368,5.2-5.985ZM41.7,43.113c-1.26,5.06-9.779,2.326-12.543,1.639l2.238-8.97c2.762.689,11.619,2.054,10.306,7.331Zm1.259-13.129c-1.149,4.6-8.24,2.264-10.542,1.691l2.029-8.136C36.75,24.113,44.159,25.183,42.961,29.984Z" transform="translate(2.501 1.791)" fill="#fff"/>
  </g>
</svg>
