<svg xmlns="http://www.w3.org/2000/svg" width="72" height="105" viewBox="0 0 72 105"><g transform="translate(-1706 -2388)"><path d="M0,0H72a0,0,0,0,1,0,0V85a20,20,0,0,1-20,20H20A20,20,0,0,1,0,85V0A0,0,0,0,1,0,0Z" transform="translate(1706 2388)" fill="#fbf7f3"/><g transform="translate(1715 2405)"><g transform="translate(0)"><g transform="translate(0.702 0.704)"><path d="M88.707,29.222l-6.742,7.746-.712,10.254-7.628.528L71,47.939,63.24,54.684l-7.756-6.745-2.626-.189-7.628-.528-.712-10.254-6.742-7.746,6.742-7.76c.224-3.195.081-1.131.712-10.254L55.484,10.5,63.239,3.75,71,10.5l10.254.712c.632,9.122.488,7.058.712,10.254Z" transform="translate(-37.776 -3.75)" fill="none"/><g transform="translate(9.525 9.53)"><path d="M87.068,75.6,81.256,70.54a2.27,2.27,0,0,0-1.32-.548c-3.159-.227-1.771-.13-7.689-.539a.7.7,0,0,1,.1-1.4c5.77.4,4.6.317,7.692.539a3.688,3.688,0,0,1,2.143.89l5.35,4.655c3.07-2.669,4.55-4.038,5.506-4.751a3.2,3.2,0,0,1,1.991-.794c3.167-.228,1.909-.139,7.081-.5l.491-7.072a3.685,3.685,0,0,1,.892-2.153l4.649-5.342-4.651-5.354a4.711,4.711,0,0,1-.965-3.224c-.083-1.188-.1-1.367-.206-2.965a.7.7,0,0,1,1.405-.1c.11,1.6.123,1.776.206,2.963.074,1.057.025,1.71.623,2.4l5.053,5.816a.7.7,0,0,1,0,.924l-5.051,5.8A2.268,2.268,0,0,0,104,61.116l-.533,7.683a.7.7,0,0,1-.654.654c-5.78.4-4.6.317-7.689.539a2.272,2.272,0,0,0-1.32.548L87.993,75.6A.7.7,0,0,1,87.068,75.6Zm15.757-35.763a.7.7,0,0,1-.7-.656l-.058-.841a.7.7,0,0,1,1.405-.1l.058.842a.7.7,0,0,1-.654.751Z" transform="translate(-71.592 -37.584)" fill="#b26419"/></g><g transform="translate(11.504 11.507)"><path d="M13.96,0A13.96,13.96,0,1,1,0,13.96,13.96,13.96,0,0,1,13.96,0Z" fill="#fff"/></g><g transform="translate(15.134 15.468)"><path d="M104.892,78.483l-3.056-1-3.056,1a3.586,3.586,0,0,1-4.694-3.344l-.052-3.328-1.852-2.573a3.577,3.577,0,0,1,1.681-5.453l3.152-1.147L99,60.059a3.578,3.578,0,0,1,5.669,0l1.987,2.579,3.152,1.147a3.577,3.577,0,0,1,1.68,5.453l-1.852,2.573-.053,3.328A3.586,3.586,0,0,1,104.892,78.483Z" transform="translate(-91.505 -58.664)" fill="#fcfeff"/></g><g transform="translate(15.082 44.004)"><path d="M112.087,159.975v24.507a1.481,1.481,0,0,1-2.438,1.129L101.7,178.87l-7.943,6.74a1.481,1.481,0,0,1-2.439-1.129V159.975l2.627.184,7.755,6.747,7.759-6.747Z" transform="translate(-91.32 -159.975)" fill="none"/></g><g transform="translate(17.194 48.916)"><path d="M114.2,194.662l-5.746-4.875a2.113,2.113,0,0,0-2.733,0l-2.951,2.5a.7.7,0,1,1-.911-1.074l2.951-2.5a3.522,3.522,0,0,1,4.556,0l4.586,3.891V178.12a.7.7,0,1,1,1.408,0v16.005A.705.705,0,0,1,114.2,194.662Zm-15.215-.082a.7.7,0,0,1,.081-.992l.644-.547a.7.7,0,0,1,.911,1.074l-.644.547A.7.7,0,0,1,98.988,194.58Z" transform="translate(-98.821 -177.416)" fill="#b26419"/></g><g transform="translate(17.209 17.541)"><path d="M108.322,66.611l2.355,3.056,3.717,1.353a1.506,1.506,0,0,1,.707,2.294l-2.232,3.1-.063,3.979a1.506,1.506,0,0,1-1.975,1.407l-3.7-1.215-3.7,1.215a1.506,1.506,0,0,1-1.975-1.407l-.063-3.979-2.232-3.1a1.506,1.506,0,0,1,.707-2.294l3.717-1.353,2.355-3.056A1.5,1.5,0,0,1,108.322,66.611Z" transform="translate(-98.874 -66.025)" fill="#b26419"/><g transform="translate(4.803 6.416)"><path d="M115.962,94.953a.7.7,0,0,1,.45-.889l.8-.263a.7.7,0,1,1,.439,1.338l-.8.263A.7.7,0,0,1,115.962,94.953Zm5.945.45c-.078-.026-1.845-.607-1.924-.629a.7.7,0,0,1,.377-1.357c.122.034.951.308,1.077.349l.017-1.046a3.648,3.648,0,0,1,.69-2.083l1.109-1.54a.7.7,0,0,1,1.143.823l-1.109,1.54a2.248,2.248,0,0,0-.425,1.283l-.032,2a.7.7,0,0,1-.924.658Z" transform="translate(-115.927 -88.803)" fill="#fafbff"/></g></g></g><g transform="translate(11.503 11.506)"><path d="M81.936,68.459a14.611,14.611,0,0,0,8.844,2.972h0a14.663,14.663,0,1,0-12.729-7.383.724.724,0,0,0,.96.262.708.708,0,0,0,.262-.961,0,0,0,0,1,0,0,13.267,13.267,0,1,1,3.512,3.991.721.721,0,0,0-.989.135A.7.7,0,0,0,81.936,68.459Z" transform="translate(-76.12 -42.1)" fill="#b26419"/></g><g transform="translate(14.981 34.694)"><path d="M88.7,124.591a.7.7,0,1,0,.994.062A.726.726,0,0,0,88.7,124.591Z" transform="translate(-88.468 -124.423)" fill="#b26419"/></g><g transform="translate(0)"><path d="M87.447,26.964l-6.585-7.58-.7-10.019a.707.707,0,0,0-.653-.653l-10.019-.7L61.911,1.422a.707.707,0,0,0-.924,0l-1.67,1.453a.7.7,0,0,0-.07.994.726.726,0,0,0,.994.07l1.208-1.053,7.3,6.346a.678.678,0,0,0,.411.169l9.644.67.67,9.644a.678.678,0,0,0,.169.411l6.34,7.3-6.34,7.284a.686.686,0,0,0-.169.414l-.67,9.644-9.644.673a.692.692,0,0,0-.411.172l-7.3,6.343-7.3-6.343a.692.692,0,0,0-.411-.172L44.1,44.768l-.668-9.644a.7.7,0,0,0-.172-.414l-6.34-7.284,6.34-7.3a.7.7,0,0,0,.172-.411l.668-9.644,9.644-.67a.678.678,0,0,0,.411-.169l1.836-1.6a.7.7,0,0,0,.068-.991.723.723,0,0,0-.991-.07L53.407,8.016l-10.019.7a.707.707,0,0,0-.653.653l-.7,10.019-6.585,7.58a.713.713,0,0,0,0,.927l6.585,7.566.7,10.019a.708.708,0,0,0,.656.653l6.971.484V52.14a.7.7,0,1,0,1.408,0V46.712l1.636.118,7.338,6.38V64.527l-7.7,6.53a.775.775,0,0,1-1.279-.592V57.773a.7.7,0,1,0-1.408,0V70.465a2.188,2.188,0,0,0,3.6,1.667l7.487-6.354,7.49,6.354a2.189,2.189,0,0,0,3.6-1.667V46.617l6.974-.488a.707.707,0,0,0,.653-.653l.7-10.019,6.585-7.566a.713.713,0,0,0,0-.927ZM71.13,70.465a.777.777,0,0,1-1.279.594l-7.7-6.533V53.211l7.34-6.38,1.637-.115Z" transform="translate(-35.282 -1.251)" fill="#b26419"/></g><g transform="translate(21.666 3.309)"><path d="M112.443,13.165a.7.7,0,1,0,.994.068A.723.723,0,0,0,112.443,13.165Z" transform="translate(-112.201 -12.999)" fill="#b26419"/></g><g transform="translate(17.206 17.539)"><path d="M98.89,74.849l.059,3.757a2.209,2.209,0,0,0,2.9,2.065l3.481-1.144,3.484,1.144a2.211,2.211,0,0,0,2.9-2.065l.059-3.757,2.1-2.921a2.216,2.216,0,0,0-1.039-3.369l-3.526-1.282-2.228-2.9a2.209,2.209,0,0,0-3.5,0l-2.231,2.9-3.524,1.282a2.211,2.211,0,0,0-1.039,3.369ZM98.3,69.883l3.718-1.352a.713.713,0,0,0,.318-.234l2.355-3.056a.8.8,0,0,1,1.27,0L108.32,68.3a.72.72,0,0,0,.315.234l3.718,1.352a.8.8,0,0,1,.375,1.222L110.5,74.2a.708.708,0,0,0-.132.4l-.062,3.98a.8.8,0,0,1-1.051.749l-3.7-1.217a.731.731,0,0,0-.439,0l-3.7,1.217a.8.8,0,0,1-1.051-.749l-.065-3.98a.708.708,0,0,0-.132-.4l-2.231-3.1A.8.8,0,0,1,98.3,69.883Z" transform="translate(-96.369 -63.52)" fill="#b26419"/></g><g transform="translate(15.08 53.002)"><circle cx="0.704" cy="0.704" r="0.704" fill="#b26419"/></g></g></g></g></svg>