<svg xmlns="http://www.w3.org/2000/svg" width="49.626" height="51.683" viewBox="0 0 49.626 51.683"><path d="M54.928,38.966v1.3l-.512.512H52.023a3.174,3.174,0,0,0-.286-2.646H54.1a.831.831,0,0,1,.831.831Zm0-3.763v2.014c-.523-.264-.633-.193-4.308-.193a3.444,3.444,0,0,0-1.766-.484H40.69V35.2a.836.836,0,0,1,.831-.831H54.1a.836.836,0,0,1,.831.831Zm0-3.735v2.008a1.826,1.826,0,0,0-.831-.193c-13.605,0-12.868-.083-13.407.193V31.467a.836.836,0,0,1,.831-.831H54.1a.836.836,0,0,1,.831.831Zm0-3.746V29.7a1.9,1.9,0,0,0-.831-.187c-13.622,0-12.862-.077-13.407.187V27.721a.831.831,0,0,1,.831-.831H54.1A.831.831,0,0,1,54.928,27.721Z" transform="translate(-19.915 -12.698)" fill="#00a1a3"/><path d="M25.787,3.132a7.152,7.152,0,1,0,7.751-1.49,7.152,7.152,0,0,0-7.751,1.49Zm5.034,4.511a1.854,1.854,0,0,1,.55,3.625v.776a.55.55,0,1,1-1.1,0v-.721h-.754a.55.55,0,1,1,0-1.1h1.3a.754.754,0,0,0,0-1.507,1.859,1.859,0,0,1-.55-3.631V4.343a.55.55,0,1,1,1.1,0V5h.754a.55.55,0,1,1,0,1.1h-1.3a.759.759,0,0,0,0,1.513ZM52.205,21.705,42.578,36.383a4.522,4.522,0,0,1-3.763,2.069H28.274a2.162,2.162,0,0,0-1.54.638l-4.616,4.621L11.968,33.533l6.283-6.283a4.11,4.11,0,0,1,2.9-1.2H31.866a2.2,2.2,0,0,1,2.2,2,2.113,2.113,0,0,1-2.113,2.2h5.931L49.031,19.131a2.052,2.052,0,0,1,3.174,2.575ZM10.341,33.454,22.208,45.321l-2.567,2.568L7.774,36.022ZM2.927,40.889l4.086-4.08L18.883,48.7,14.8,52.776Z" transform="translate(-2.927 -1.093)" fill="#00a1a3"/></svg>