<svg xmlns="http://www.w3.org/2000/svg" width="50.49" height="45.9" viewBox="0 0 50.49 45.9"><path d="M5.59,27.245h4.59V45.6A2.3,2.3,0,0,0,12.475,47.9h27.54A2.3,2.3,0,0,0,42.31,45.6V27.245H46.9a4.59,4.59,0,0,0,4.59-4.59V6.59A4.59,4.59,0,0,0,46.9,2H5.59A4.59,4.59,0,0,0,1,6.59V22.655A4.59,4.59,0,0,0,5.59,27.245Zm28.687,2.869h-.964v1.859a1.721,1.721,0,0,1-3.442,0v-4.59a.941.941,0,0,0-.941-.964.964.964,0,0,0-.964.964v1.79A4.406,4.406,0,0,1,19.245,30H18.212a1.721,1.721,0,0,1,0-3.442h.964V24.7a1.721,1.721,0,0,1,3.442,0v4.59a.941.941,0,0,0,.941.964.964.964,0,0,0,.964-.964V27.5a4.406,4.406,0,0,1,8.721-.826h1.033a1.721,1.721,0,0,1,0,3.442ZM5.59,6.59H46.9V22.655H42.31V15.77a2.295,2.295,0,1,0,0-4.59H10.18a2.295,2.295,0,1,0,0,4.59v6.885H5.59Z" transform="translate(-1 -2)" fill="#00a1a3"/></svg>