<svg id="svgexport-17_16_" data-name="svgexport-17 (16)" xmlns="http://www.w3.org/2000/svg" width="31.986" height="31.986" viewBox="0 0 31.986 31.986">
  <path id="Path_169467" data-name="Path 169467" d="M33.293,26.4c-1-.837-6.854-4.545-7.828-4.375-.457.081-.807.471-1.742,1.587A13.351,13.351,0,0,1,22.3,25.151a12.288,12.288,0,0,1-2.712-1.005,16.793,16.793,0,0,1-7.75-7.752,12.288,12.288,0,0,1-1.005-2.712,13.351,13.351,0,0,1,1.539-1.421c1.115-.936,1.506-1.283,1.587-1.742.17-.976-3.541-6.829-4.375-7.828C9.236,2.278,8.918,2,8.512,2,7.333,2,2,8.594,2,9.448c0,.07.114,6.934,8.784,15.754,8.82,8.669,15.685,8.784,15.754,8.784.854,0,7.448-5.333,7.448-6.511,0-.407-.278-.724-.693-1.074Zm-7.3-9.55h2.285a9.149,9.149,0,0,0-9.139-9.139V10a6.861,6.861,0,0,1,6.854,6.854Z" transform="translate(-2 -2)" fill="#00a1a3"/>
  <path id="Path_169468" data-name="Path 169468" d="M29.566,16.851h2.285A14.868,14.868,0,0,0,17,2V4.285A12.581,12.581,0,0,1,29.566,16.851Z" transform="translate(0.136 -2)" fill="#00a1a3"/>
</svg>
