<svg xmlns="http://www.w3.org/2000/svg" width="20.265" height="25.619" viewBox="0 0 20.265 25.619">
  <g id="svgexport-17_25_" data-name="svgexport-17 (25)" transform="translate(-53.5)">
    <path id="Path_170498" data-name="Path 170498" d="M342.31,394.68h5.36c-.128.184-5.17,5.24-5.36,5.389Z" transform="translate(-274.359 -374.931)" fill="#00a1a3"/>
    <path id="Path_170499" data-name="Path 170499" d="M71.513,0H55.752A2.252,2.252,0,0,0,53.5,2.252V23.359a2.26,2.26,0,0,0,2.26,2.26H66.45V19a.751.751,0,0,1,.751-.751h6.564v-16A2.252,2.252,0,0,0,71.513,0ZM68.386,12.056a.751.751,0,0,1-1.5,0v-3.8a3.753,3.753,0,0,0-7.506,0v7.006a2.252,2.252,0,0,0,4.5,0V8.256a.751.751,0,1,0-1.5,0v7.005a.751.751,0,0,1-1.5,0V8.256a2.252,2.252,0,0,1,4.5,0v7.005a3.753,3.753,0,1,1-7.506,0V8.256A5.259,5.259,0,0,1,63.132,3h0a5.26,5.26,0,0,1,5.254,5.253Z" transform="translate(0)" fill="#00a1a3"/>
  </g>
</svg>
