<svg xmlns="http://www.w3.org/2000/svg" width="25.956" height="22.133" viewBox="0 0 25.956 22.133">
  <g id="svgexport-17_12_" data-name="svgexport-17 (12)" transform="translate(-3.05 -6.449)">
    <path id="Path_169463" data-name="Path 169463" d="M28.537,6.449l-5.409.246a.447.447,0,0,0-.295.759L23.919,8.54,12.47,17.027,7.378,10.773a.447.447,0,0,0-.643-.054L3.2,13.846a.447.447,0,0,0-.152.335v3.573a.447.447,0,0,0,.741.335l3.189-2.819,5.043,6.24a.447.447,0,0,0,.616.071L26.523,11.162l1.465,1.465a.447.447,0,0,0,.764-.295L29.006,6.9a.447.447,0,0,0-.469-.451Z" transform="translate(0 0)" fill="#44bc59"/>
    <rect id="Rectangle_18423" data-name="Rectangle 18423" width="4.02" height="8.933" rx="1" transform="translate(3.474 19.649)" fill="#44bc59"/>
    <rect id="Rectangle_18424" data-name="Rectangle 18424" width="4.02" height="5.36" rx="1" transform="translate(10.621 23.222)" fill="#44bc59"/>
    <rect id="Rectangle_18425" data-name="Rectangle 18425" width="4.02" height="8.933" rx="1" transform="translate(17.768 19.649)" fill="#44bc59"/>
    <rect id="Rectangle_18426" data-name="Rectangle 18426" width="4.02" height="13.847" rx="1" transform="translate(24.468 14.735)" fill="#44bc59"/>
  </g>
</svg>
