<svg xmlns="http://www.w3.org/2000/svg" width="42.06" height="34.621" viewBox="0 0 42.06 34.621">
  <g id="svgexport-17_18_" data-name="svgexport-17 (18)" transform="translate(-1 -5)">
    <path id="Path_170420" data-name="Path 170420" d="M42.952,31.874A2.076,2.076,0,0,0,40.318,30.6l-5.706,1.765c-1.445,1.317-1.993.978-12.582.978a.914.914,0,1,1,0-1.829c10.973,0,10.6.21,11.4-.594a1.874,1.874,0,0,0,.485-1.234,1.829,1.829,0,0,0-1.829-1.829H22.305c-1.271,0-2.332-1.829-6.035-1.829H10.144v9.528l1.18.667a25.4,25.4,0,0,0,22.293,1.509l8.229-3.319a2.067,2.067,0,0,0,1.106-2.542ZM1,37.918H8.315V24.2H1Zm2.816-4.005a.914.914,0,1,1,.337,1.109A.914.914,0,0,1,3.816,33.913ZM28.432,23.288a9.144,9.144,0,1,0-9.144-9.144,9.144,9.144,0,0,0,9.144,9.144Zm.914-8.229H27.517a2.743,2.743,0,0,1,0-5.486V8.658a.914.914,0,0,1,1.829,0v.914h1.829a.914.914,0,0,1,0,1.829H27.517a.914.914,0,0,0,0,1.829h1.829a2.743,2.743,0,0,1,0,5.486v.914a.914.914,0,0,1-1.829,0v-.914H25.688a.914.914,0,0,1,0-1.829h3.658a.914.914,0,0,0,0-1.829Z" transform="translate(0 0)" fill="#00a1a3"/>
  </g>
</svg>
