<svg xmlns="http://www.w3.org/2000/svg" width="33.527" height="34.621" viewBox="0 0 33.527 34.621">
  <g id="svgexport-17_19_" data-name="svgexport-17 (19)" transform="translate(-27.279 -19.818)">
    <path id="Path_170421" data-name="Path 170421" d="M53.164,28.213h6.543a1.1,1.1,0,0,1,1.1,1.1V53.339a1.1,1.1,0,0,1-1.1,1.1H53.164a1.1,1.1,0,0,1-1.1-1.1V29.312A1.1,1.1,0,0,1,53.164,28.213ZM38.422,23.374l-1.295-.939a.366.366,0,0,1,.1-.646l6.093-1.953a.366.366,0,0,1,.477.324l.465,6.711a.366.366,0,0,1-.581.322l-1.172-.851c-4.515,6.222-9.1,7.68-14.907,7.041a.366.366,0,0,1-.061-.716A18.339,18.339,0,0,0,38.422,23.374ZM29.3,41.911h6.543a1.1,1.1,0,0,1,1.1,1.1V53.339a1.1,1.1,0,0,1-1.1,1.1H29.3a1.1,1.1,0,0,1-1.1-1.1V43.01A1.1,1.1,0,0,1,29.3,41.911Zm18.473-6.849H41.234a1.1,1.1,0,0,0-1.1,1.1V53.339a1.1,1.1,0,0,0,1.1,1.1h6.543a1.1,1.1,0,0,0,1.1-1.1V36.161a1.1,1.1,0,0,0-1.1-1.1Z" transform="translate(0 0)" fill="#70cacb" fill-rule="evenodd"/>
  </g>
</svg>
