<svg xmlns="http://www.w3.org/2000/svg" width="33.187" height="33.187" viewBox="0 0 33.187 33.187">
  <g id="svgexport-17_1_" data-name="svgexport-17 (1)" transform="translate(0.5 0.5)">
    <circle id="Ellipse_96" data-name="Ellipse 96" cx="16.158" cy="16.158" r="16.158" transform="translate(0 0.337)" fill="#f0f0f0"/>
    <g id="Group_39505" data-name="Group 39505" transform="translate(0.554 0.554)">
      <path id="Path_168343" data-name="Path 168343" d="M11.591,14.56a16.035,16.035,0,0,0-2.772,5.6h8.372ZM39.9,20.16a16.036,16.036,0,0,0-2.772-5.6l-5.6,5.6Zm-31.078,8.4a16.036,16.036,0,0,0,2.772,5.6l5.6-5.6ZM34.156,11.591a16.036,16.036,0,0,0-5.6-2.772v8.372ZM14.56,37.125a16.036,16.036,0,0,0,5.6,2.772V31.525Zm5.6-28.306a16.036,16.036,0,0,0-5.6,2.772l5.6,5.6Zm8.4,31.078a16.036,16.036,0,0,0,5.6-2.772l-5.6-5.6Zm2.969-11.341,5.6,5.6a16.036,16.036,0,0,0,2.772-5.6Z" transform="translate(-8.819 -8.819)" fill="#0052b4"/>
    </g>
    <g id="Group_39506" data-name="Group 39506" transform="translate(0 0)">
      <path id="Path_168344" data-name="Path 168344" d="M32.051,13.994H18.193V.136a16.241,16.241,0,0,0-4.2,0V13.994H.136a16.241,16.241,0,0,0,0,4.2H13.994V32.051a16.241,16.241,0,0,0,4.2,0V18.193H32.051a16.242,16.242,0,0,0,0-4.2Z" transform="translate(0 0)" fill="#d80027" stroke="#fff" stroke-width="1"/>
      <path id="Path_168345" data-name="Path 168345" d="M76.457,76.458l7.181,7.181q.5-.5.946-1.033l-6.148-6.148H76.457Zm-8.4,0h0l-7.181,7.181q.5.5,1.033.946l6.148-6.148Zm0-8.4h0L60.879,60.88q-.5.5-.946,1.033l6.148,6.148H68.06Zm8.4,0,7.182-7.182q-.5-.5-1.033-.946l-6.148,6.148Z" transform="translate(-56.165 -56.166)" fill="#d80027" stroke="#fff" stroke-width="1"/>
    </g>
  </g>
</svg>
