<svg xmlns="http://www.w3.org/2000/svg" width="82.601" height="75.092" viewBox="0 0 82.601 75.092">
  <g id="Group_41422" data-name="Group 41422" transform="translate(-1683.286 -31.133)">
    <g id="Group_39499" data-name="Group 39499" transform="translate(1683.286 91.486)">
      <g id="Group_39497" data-name="Group 39497" transform="translate(0 0)">
        <path id="Path_168310" data-name="Path 168310" d="M242.533,612.643v-1.308h1.889V599.42h-1.868v-1.308h11.355v3.55h-1.287l-.042-2.262h-6.747v5.335H252.5v1.328h-6.664v5.273h1.972v1.308Z" transform="translate(-242.533 -598.112)" fill="#fff"/>
        <path id="Path_168311" data-name="Path 168311" d="M322.889,602.87v9.072H324.7v1.225h-4.961v-1.225h1.806v-7.847h-1.764V602.87Zm-1.619-3.2a.955.955,0,0,1,1.91,0,.9.9,0,0,1-.955.934A.907.907,0,0,1,321.27,599.673Z" transform="translate(-306.946 -598.635)" fill="#fff"/>
        <path id="Path_168312" data-name="Path 168312" d="M360.11,632.018h1.7v1.225h-4.858v-1.225h1.827v-7.826H357v-1.2h3.01l.062,1.847a4.088,4.088,0,0,1,3.654-2.034c2.906,0,4.442,1.7,4.442,4.671v4.546h1.827v1.225h-4.775v-1.225h1.6v-4.526c0-2.325-1.017-3.425-3.2-3.425a3.419,3.419,0,0,0-3.508,3.57Z" transform="translate(-338.002 -618.711)" fill="#fff"/>
        <path id="Path_168313" data-name="Path 168313" d="M455.3,632.143v1.2h-3.01c0-.27-.125-1.64-.125-1.931a4.348,4.348,0,0,1-4.006,2.138,5.315,5.315,0,0,1,0-10.629,4.379,4.379,0,0,1,4.027,2.221l.021-2.076h3.072v1.245h-1.785v7.826Zm-11.044-3.882a3.848,3.848,0,0,0,3.965,4.048,4.048,4.048,0,1,0-.041-8.1A3.839,3.839,0,0,0,444.256,628.261Z" transform="translate(-409.734 -618.816)" fill="#fff"/>
        <path id="Path_168314" data-name="Path 168314" d="M529.422,632.018h1.7v1.225h-4.858v-1.225h1.827v-7.826h-1.785v-1.2h3.01l.062,1.847a4.088,4.088,0,0,1,3.653-2.034c2.906,0,4.443,1.7,4.443,4.671v4.546H539.3v1.225h-4.775v-1.225h1.6v-4.526c0-2.325-1.017-3.425-3.2-3.425a3.419,3.419,0,0,0-3.508,3.57Z" transform="translate(-479.268 -618.711)" fill="#fff"/>
        <path id="Path_168315" data-name="Path 168315" d="M621.518,631.935a5.37,5.37,0,0,1-3.82,1.557c-3.01,0-5.46-1.91-5.46-5.273,0-3.487,2.45-5.294,5.4-5.294a6.749,6.749,0,0,1,3.487,1.017l-.042,2.47h-1.2v-1.764a4.9,4.9,0,0,0-2.242-.478,4.017,4.017,0,1,0,.062,8.034,4.139,4.139,0,0,0,2.948-1.162Z" transform="translate(-550.999 -618.816)" fill="#fff"/>
        <path id="Path_168316" data-name="Path 168316" d="M688.125,631.5a5.763,5.763,0,0,1-4.422,1.889,5.294,5.294,0,0,1-.062-10.587c3.01,0,5.522,1.806,5.127,5.854h-9.009a3.758,3.758,0,0,0,3.965,3.487,4.693,4.693,0,0,0,3.509-1.453Zm-.623-3.965c-.041-2.283-1.557-3.508-3.84-3.508a3.755,3.755,0,0,0-3.9,3.508Z" transform="translate(-606.209 -618.711)" fill="#fff"/>
      </g>
    </g>
    <g id="Layer_2" data-name="Layer 2" transform="translate(1692.553 31.133)">
      <path id="Path_168323" data-name="Path 168323" d="M467.258,458.737c-5.558.331-9.814,2.273-11.667,5.844-4.174,8.04,5.4,21.29,21.389,29.588s32.333,8.507,36.507.466c2-3.847.846-8.886-2.649-14.005.438,2.143,1.955,5.259-.05,9.559-3.693,7.115-18.159,6.93-32.3-.413s-22.619-19.066-18.926-26.181c1.334-2.57,4.076-4.188,7.7-4.859" transform="translate(-453.409 -447.604)" fill="#5d6c73" fill-rule="evenodd"/>
      <path id="Path_168324" data-name="Path 168324" d="M492.409,447.647c4.824.287,10.265,1.88,12.656,6.486,2.747,5.291-.044,11.543-3.227,15.947-4.619,6.391-11.728,11.646-18.671,15.251s-15.332,6.393-23.217,6.494c-5.434.069-12.152-1.246-14.9-6.537a9.635,9.635,0,0,1-.527-1.212c-2.309-6.5,2.559-13.865,6.787-18.4l.778-.835,1.738,1.478-.7.9c-2.493,3.215-5.38,8.439-3.259,12.525,1.981,3.816,7.307,4.621,11.158,4.571,6.616-.085,13.713-2.471,19.536-5.493S492.419,471.365,496.3,466c2.256-3.12,4.662-7.941,2.682-11.756-1.324-2.55-4.17-3.737-6.857-4.235l-1.1-.2.271-2.227Z" transform="translate(-443.929 -437.705)" fill="#fff" fill-rule="evenodd"/>
      <path id="Path_168325" data-name="Path 168325" d="M501.809,458.737c5.558.331,9.814,2.273,11.667,5.844,4.174,8.04-5.4,21.29-21.389,29.588s-32.333,8.507-36.506.466c-2.55-4.912.033-11.768,6.073-18.252-3.88,5-5.325,10.048-3.375,13.806,3.693,7.115,18.159,6.93,32.3-.413S513.2,470.711,509.508,463.6c-1.334-2.57-4.076-4.188-7.7-4.859" transform="translate(-453.4 -447.604)" fill="#8c8b8b" fill-rule="evenodd"/>
      <path id="Path_168326" data-name="Path 168326" d="M803.683,425.864V392.145a1.716,1.716,0,0,1,1.715-1.718h3.431a1.717,1.717,0,0,1,1.715,1.718v28.58a49.559,49.559,0,0,1-6.861,5.139" transform="translate(-763.12 -386.996)" fill="#70cacb" fill-rule="evenodd"/>
      <path id="Path_168327" data-name="Path 168327" d="M846.506,406.286V434.8c-.739.667-1.505,1.311-2.291,1.93Z" transform="translate(-799.082 -401.067)" fill="#d38600" fill-rule="evenodd"/>
      <path id="Path_168328" data-name="Path 168328" d="M727.608,497.778V468.239a1.713,1.713,0,0,1,1.715-1.713h3.434a1.712,1.712,0,0,1,1.713,1.713v26.174q-1.108.64-2.216,1.214c-1.477.767-3.035,1.492-4.647,2.15" transform="translate(-695.623 -454.515)" fill="#8f8f8f" fill-rule="evenodd"/>
      <path id="Path_168329" data-name="Path 168329" d="M769.918,481.727V507.9q-1.108.64-2.216,1.214l-.142.073Z" transform="translate(-731.07 -468.002)" fill="#ba3d13" fill-rule="evenodd"/>
      <path id="Path_168330" data-name="Path 168330" d="M651.56,399.9V361.718A1.716,1.716,0,0,1,653.273,360h3.433a1.716,1.716,0,0,1,1.715,1.718v41.545c-1.611-.657-3.17-1.383-4.646-2.149q-1.105-.574-2.215-1.214" transform="translate(-628.149 -360)" fill="#d9d9d9" fill-rule="evenodd"/>
      <path id="Path_168331" data-name="Path 168331" d="M695.357,376.908v41.356q-1.1-.449-2.168-.939Z" transform="translate(-665.085 -375.002)" fill="#21712d" fill-rule="evenodd"/>
      <path id="Path_168332" data-name="Path 168332" d="M575.493,447.737V422.59a1.716,1.716,0,0,1,1.713-1.718h3.433a1.716,1.716,0,0,1,1.715,1.718v30.286a49.536,49.536,0,0,1-6.861-5.139" transform="translate(-560.659 -414.009)" fill="#00a1a3" fill-rule="evenodd"/>
      <path id="Path_168333" data-name="Path 168333" d="M619.9,436.105v30.286q-1.054-.66-2.09-1.377Z" transform="translate(-598.205 -427.524)" fill="#00518b" fill-rule="evenodd"/>
    </g>
  </g>
</svg>
