<svg xmlns="http://www.w3.org/2000/svg" width="103.991" height="94.538" viewBox="0 0 103.991 94.538">
  <g id="Group_41338" data-name="Group 41338" transform="translate(-1683.286 -31.134)">
    <g id="Group_39499" data-name="Group 39499" transform="translate(1683.286 107.115)">
      <g id="Group_39497" data-name="Group 39497" transform="translate(0 0)">
        <path id="Path_168310" data-name="Path 168310" d="M242.533,616.406V614.76h2.378v-15h-2.352v-1.647h14.3v4.469h-1.62l-.052-2.848h-8.494v6.716h8.389v1.672h-8.389v6.638h2.483v1.647Z" transform="translate(-242.533 -598.112)" fill="#fff"/>
        <path id="Path_168311" data-name="Path 168311" d="M323.706,603.94v11.421h2.274V616.9h-6.246v-1.542h2.274v-9.879h-2.221V603.94Zm-2.039-4.025a1.2,1.2,0,0,1,2.4,0,1.127,1.127,0,0,1-1.2,1.176A1.142,1.142,0,0,1,321.668,599.915Z" transform="translate(-303.634 -598.608)" fill="#fff"/>
        <path id="Path_168312" data-name="Path 168312" d="M360.927,634.4h2.143v1.542h-6.116V634.4h2.3v-9.853h-2.247v-1.516H360.8l.078,2.326a5.147,5.147,0,0,1,4.6-2.561c3.659,0,5.593,2.143,5.593,5.88V634.4h2.3v1.542h-6.011V634.4h2.012v-5.7c0-2.927-1.28-4.312-4.025-4.312a4.3,4.3,0,0,0-4.417,4.5Z" transform="translate(-333.093 -617.652)" fill="#fff"/>
        <path id="Path_168313" data-name="Path 168313" d="M458.5,634.53v1.516h-3.789c0-.34-.157-2.065-.157-2.431a5.474,5.474,0,0,1-5.044,2.692,6.691,6.691,0,0,1,0-13.381,5.513,5.513,0,0,1,5.07,2.8l.026-2.613h3.868v1.568H456.23v9.853Zm-13.9-4.887a4.844,4.844,0,0,0,4.992,5.1,5.1,5.1,0,1,0-.052-10.193A4.833,4.833,0,0,0,444.6,629.643Z" transform="translate(-401.137 -617.751)" fill="#fff"/>
        <path id="Path_168314" data-name="Path 168314" d="M530.239,634.4h2.143v1.542h-6.116V634.4h2.3v-9.853h-2.247v-1.516h3.789l.078,2.326a5.147,5.147,0,0,1,4.6-2.561c3.659,0,5.593,2.143,5.593,5.88V634.4h2.3v1.542h-6.011V634.4h2.012v-5.7c0-2.927-1.281-4.312-4.025-4.312a4.3,4.3,0,0,0-4.417,4.5Z" transform="translate(-467.097 -617.652)" fill="#fff"/>
        <path id="Path_168315" data-name="Path 168315" d="M623.921,634.268a6.761,6.761,0,0,1-4.809,1.96c-3.79,0-6.873-2.4-6.873-6.638,0-4.391,3.084-6.664,6.8-6.664a8.5,8.5,0,0,1,4.391,1.281l-.052,3.11h-1.516V625.1a6.169,6.169,0,0,0-2.822-.6,5.058,5.058,0,1,0,.078,10.114,5.211,5.211,0,0,0,3.711-1.464Z" transform="translate(-535.14 -617.751)" fill="#fff"/>
        <path id="Path_168316" data-name="Path 168316" d="M690.641,633.751a7.255,7.255,0,0,1-5.566,2.378A6.664,6.664,0,0,1,685,622.8c3.789,0,6.952,2.274,6.455,7.37H680.109a4.731,4.731,0,0,0,4.992,4.391,5.908,5.908,0,0,0,4.417-1.829Zm-.784-4.992c-.052-2.875-1.96-4.417-4.835-4.417a4.727,4.727,0,0,0-4.913,4.417Z" transform="translate(-587.511 -617.652)" fill="#fff"/>
      </g>
    </g>
    <g id="Layer_2" data-name="Layer 2" transform="translate(1694.953 31.133)">
      <path id="Path_168323" data-name="Path 168323" d="M470.533,458.737c-7,.416-12.355,2.862-14.689,7.357-5.255,10.123,6.8,26.8,26.928,37.251s40.706,10.71,45.961.587c2.514-4.843,1.065-11.187-3.335-17.632.552,2.7,2.461,6.62-.063,12.035-4.65,8.957-22.861,8.724-40.668-.52s-28.476-24-23.827-32.961c1.68-3.236,5.131-5.272,9.693-6.117" transform="translate(-453.097 -444.721)" fill="#fff" fill-rule="evenodd"/>
      <path id="Path_168324" data-name="Path 168324" d="M504.963,447.664c6.073.361,12.923,2.367,15.933,8.165,3.458,6.661-.055,14.532-4.063,20.076-5.816,8.045-14.765,14.663-23.506,19.2s-19.3,8.049-29.229,8.176c-6.841.087-15.3-1.569-18.757-8.23a12.142,12.142,0,0,1-.663-1.526c-2.906-8.182,3.222-17.456,8.544-23.169l.979-1.051,2.188,1.861-.88,1.135c-3.138,4.047-6.773,10.624-4.1,15.768,2.494,4.8,9.2,5.817,14.047,5.755,8.329-.107,17.264-3.111,24.595-6.916s14.929-9.384,19.809-16.135c2.84-3.929,5.87-10,3.376-14.8-1.667-3.21-5.249-4.705-8.633-5.332l-1.389-.257.342-2.8Z" transform="translate(-443.929 -435.148)" fill="#fff" fill-rule="evenodd"/>
      <path id="Path_168325" data-name="Path 168325" d="M514.033,458.737c7,.416,12.355,2.862,14.689,7.357,5.255,10.123-6.8,26.8-26.928,37.251s-40.706,10.71-45.96.587c-3.21-6.184.042-14.816,7.646-22.978-4.885,6.3-6.7,12.65-4.249,17.381,4.65,8.957,22.861,8.724,40.668-.52s28.476-24,23.827-32.961c-1.68-3.236-5.131-5.272-9.693-6.117" transform="translate(-453.088 -444.721)" fill="#fff" fill-rule="evenodd"/>
      <path id="Path_168326" data-name="Path 168326" d="M803.683,435.041V392.589a2.161,2.161,0,0,1,2.159-2.162h4.319a2.162,2.162,0,0,1,2.16,2.162v35.982a62.4,62.4,0,0,1-8.638,6.47" transform="translate(-752.616 -386.108)" fill="#fff" fill-rule="evenodd"/>
      <path id="Path_168327" data-name="Path 168327" d="M847.1,406.286v35.893c-.931.839-1.9,1.65-2.885,2.43Z" transform="translate(-787.394 -399.716)" fill="#fff" fill-rule="evenodd"/>
      <path id="Path_168328" data-name="Path 168328" d="M727.608,505.871V468.683a2.156,2.156,0,0,1,2.16-2.157h4.323a2.155,2.155,0,0,1,2.157,2.157v32.953q-1.395.805-2.789,1.528c-1.859.965-3.821,1.878-5.85,2.706" transform="translate(-687.34 -451.405)" fill="#fff" fill-rule="evenodd"/>
      <path id="Path_168329" data-name="Path 168329" d="M770.528,481.727V514.68q-1.395.805-2.789,1.528l-.179.093Z" transform="translate(-721.62 -464.448)" fill="#fff" fill-rule="evenodd"/>
      <path id="Path_168330" data-name="Path 168330" d="M651.56,410.232v-48.07A2.16,2.16,0,0,1,653.717,360h4.322a2.16,2.16,0,0,1,2.159,2.162v52.3c-2.029-.828-3.99-1.741-5.849-2.706q-1.391-.722-2.789-1.528" transform="translate(-622.087 -360)" fill="#fff" fill-rule="evenodd"/>
      <path id="Path_168331" data-name="Path 168331" d="M695.918,376.908v52.066q-1.387-.566-2.729-1.182Z" transform="translate(-657.806 -374.508)" fill="#fff" fill-rule="evenodd"/>
      <path id="Path_168332" data-name="Path 168332" d="M575.493,454.694v-31.66a2.16,2.16,0,0,1,2.157-2.162h4.322a2.16,2.16,0,0,1,2.16,2.162v38.13a62.367,62.367,0,0,1-8.638-6.47" transform="translate(-556.817 -412.231)" fill="#fff" fill-rule="evenodd"/>
      <path id="Path_168333" data-name="Path 168333" d="M620.441,436.1v38.13q-1.327-.831-2.631-1.733Z" transform="translate(-593.127 -425.302)" fill="#fff" fill-rule="evenodd"/>
    </g>
  </g>
</svg>
