<svg xmlns="http://www.w3.org/2000/svg" width="55.884" height="65.944" viewBox="0 0 55.884 65.944">
  <g id="paypal-icon-logo-svgrepo-com" transform="translate(-0.035 -0.816)">
    <path id="Path_170440" data-name="Path 170440" d="M47.616,5.788C44.563,2.308,39.043.816,31.982.816H11.489a2.935,2.935,0,0,0-2.9,2.475L.057,57.41A1.759,1.759,0,0,0,1.8,59.444H14.447L17.625,39.29l-.1.631a2.925,2.925,0,0,1,2.888-2.475h6.012c11.811,0,21.059-4.8,23.761-18.675q.12-.616.21-1.2h0c.8-5.129-.005-8.621-2.78-11.782" transform="translate(0 0)" fill="#27346a"/>
    <path id="Path_170441" data-name="Path 170441" d="M22.466,15.722a2.572,2.572,0,0,1,1.107-.25H39.64a33.529,33.529,0,0,1,5.3.385q.681.109,1.354.259.953.21,1.882.514a14.5,14.5,0,0,1,2.222.939c.8-5.131-.006-8.621-2.78-11.782C44.561,2.308,39.043.816,31.982.816h-20.5a2.934,2.934,0,0,0-2.9,2.475L.057,57.408a1.758,1.758,0,0,0,1.737,2.034H14.447l6.592-41.8a2.568,2.568,0,0,1,1.426-1.915Z" transform="translate(0 0)" fill="#27346a"/>
    <path id="Path_170442" data-name="Path 170442" d="M98.362,78.472C95.66,92.348,86.412,97.147,74.6,97.147H68.587A2.922,2.922,0,0,0,65.7,99.622l-3.953,25.059a1.54,1.54,0,0,0,1.519,1.78H73.933a2.566,2.566,0,0,0,2.534-2.165l.1-.543,2.01-12.74.13-.7a2.566,2.566,0,0,1,2.534-2.165h1.6c10.332,0,18.421-4.2,20.785-16.337.987-5.073.476-9.308-2.134-12.283a10.19,10.19,0,0,0-2.92-2.253c-.062.392-.129.79-.21,1.2Z" transform="translate(-48.175 -59.702)" fill="#2790c3"/>
    <path id="Path_170443" data-name="Path 170443" d="M109.9,68.67q-.632-.184-1.275-.327-.673-.148-1.354-.257a33.342,33.342,0,0,0-5.3-.387H85.91a2.566,2.566,0,0,0-2.534,2.167l-3.415,21.65-.1.631a2.922,2.922,0,0,1,2.886-2.475h6.014c11.811,0,21.059-4.8,23.76-18.675.08-.41.148-.808.21-1.2a14.587,14.587,0,0,0-2.222-.938q-.3-.1-.607-.19" transform="translate(-62.335 -52.227)" fill="#1f264f"/>
  </g>
</svg>
