<svg xmlns="http://www.w3.org/2000/svg" width="26.616" height="34.621" viewBox="0 0 26.616 34.621">
  <g id="svgexport-17_20_" data-name="svgexport-17 (20)" transform="translate(-59.185)">
    <path id="Path_170422" data-name="Path 170422" d="M59.185,23.737a1.846,1.846,0,0,1,1.846-1.845H69.88a8.64,8.64,0,0,0-.693,3.405c0,.1,0,.189,0,.283h-8.16a1.846,1.846,0,0,1-1.846-1.843Zm0,4.52a1.846,1.846,0,0,1,1.846-1.845h8.226A8.668,8.668,0,0,0,70.631,30.1h-9.6a1.846,1.846,0,0,1-1.846-1.844Zm14.9,6.364H61.031a1.845,1.845,0,1,1,0-3.689H71.255a8.745,8.745,0,0,0,4.41,2.8A1.861,1.861,0,0,1,74.088,34.621ZM77.91,33.19A7.892,7.892,0,1,0,70.017,25.3,7.892,7.892,0,0,0,77.91,33.19Zm2.136-10.248a.415.415,0,1,0,.83,0A2.845,2.845,0,0,0,78.325,20.2V19.144a.415.415,0,0,0-.83,0V20.2a2.751,2.751,0,0,0,0,5.487v3.871a2,2,0,0,1-1.722-1.9.415.415,0,0,0-.83,0A2.845,2.845,0,0,0,77.495,30.4v1.054a.415.415,0,0,0,.83,0V30.4a2.751,2.751,0,0,0,0-5.488v-3.87a2,2,0,0,1,1.722,1.9Zm-4.273,0a2,2,0,0,1,1.722-1.9v3.806a2,2,0,0,1-1.722-1.9Zm4.273,4.712a2,2,0,0,1-1.722,1.9V25.751a2,2,0,0,1,1.722,1.9ZM65.722,19.545a.416.416,0,0,1-.415-.416V11.274H62.922A.416.416,0,0,1,62.6,10.6L67.166,5a.415.415,0,0,1,.644,0l4.567,5.6a.416.416,0,0,1-.323.678H69.668V19.13a.416.416,0,0,1-.415.416ZM78.23.153A.412.412,0,0,0,77.91,0a.423.423,0,0,0-.323.153l-4.567,5.6a.417.417,0,0,0,.323.679h2.385v7.855a.415.415,0,0,0,.415.416h3.531a.416.416,0,0,0,.418-.416V6.431h2.385a.412.412,0,0,0,.372-.238.416.416,0,0,0-.052-.441Z" transform="translate(0)" fill="#00a1a3" fill-rule="evenodd"/>
  </g>
</svg>
