<svg xmlns="http://www.w3.org/2000/svg" width="50.6" height="50.6" viewBox="0 0 50.6 50.6"><path d="M12.871,13.665,8.487,14a3.912,3.912,0,0,0-2.981,1.754L.451,23.4A2.71,2.71,0,0,0,2.3,27.576L6.31,28.2a35.943,35.943,0,0,1,6.561-14.533ZM22.4,44.289l.622,4.014A2.707,2.707,0,0,0,27.2,50.149l7.647-5.056A3.911,3.911,0,0,0,36.6,42.112l.339-4.384A35.94,35.94,0,0,1,22.4,44.289Zm-1.51-2.782a2.548,2.548,0,0,0,.419-.035,29.044,29.044,0,0,0,6.019-1.707l-16.5-16.5a29.04,29.04,0,0,0-1.707,6.019,2.586,2.586,0,0,0,.728,2.251l9.205,9.205A2.6,2.6,0,0,0,20.893,41.507ZM46.565,22.434A39.969,39.969,0,0,0,50.54,2.513,2.6,2.6,0,0,0,48.086.059Q46.978,0,45.868,0a39.164,39.164,0,0,0-17.7,4.035A40.271,40.271,0,0,0,12.147,20.406a1.49,1.49,0,0,1,.137.12L30.073,38.315a1.488,1.488,0,0,1,.12.137A40.271,40.271,0,0,0,46.565,22.434ZM29.42,10.7a7.412,7.412,0,1,1-2.171,5.241A7.42,7.42,0,0,1,29.42,10.7Z" transform="translate(0 0)" fill="#00a1a3"/></svg>