<svg xmlns="http://www.w3.org/2000/svg" width="87.4" height="77" viewBox="0 0 87.4 77">
  <g id="Group_41478" data-name="Group 41478" transform="translate(-1653.4 -1098)">
    <path id="Path_170431" data-name="Path 170431" d="M5.876,0H81.525C84.77,0,87.4,3.884,87.4,8.676V68.324C87.4,73.116,84.77,77,81.525,77H5.876C2.631,77,0,73.116,0,68.324V8.676C0,3.884,2.631,0,5.876,0Z" transform="translate(1653.4 1098)" fill="#f9f8fd"/>
    <g id="Group_41477" data-name="Group 41477">
      <g id="svgexport-11_1_" data-name="svgexport-11 (1)" transform="translate(1678.694 1066.968)">
        <g id="Group_39352" data-name="Group 39352" transform="translate(0 55.032)">
          <g id="Group_39351" data-name="Group 39351" transform="translate(0)">
            <g id="Group_39350" data-name="Group 39350">
              <path id="Path_167943" data-name="Path 167943" d="M30.671,64.607A12.653,12.653,0,0,0,5.78,66.77,6.9,6.9,0,0,0,6.93,80.481h5.751v-2.3H6.93a4.6,4.6,0,1,1,0-9.2,1.15,1.15,0,0,0,1.15-1.15,10.352,10.352,0,0,1,20.509-2.013,1.15,1.15,0,0,0,.978.92,5.751,5.751,0,0,1-.782,11.445h-4.6v2.3h4.6a8.052,8.052,0,0,0,1.886-15.874Z" transform="translate(0 -55.032)" fill="#00a1a3"/>
              <path id="Path_167944" data-name="Path 167944" d="M185.636,249.345l-4.6,4.6,1.622,1.622,2.646-2.634v11.031h2.3V252.934l2.634,2.634,1.622-1.622-4.6-4.6A1.15,1.15,0,0,0,185.636,249.345Z" transform="translate(-168.02 -235.065)" fill="#00a1a3"/>
            </g>
          </g>
        </g>
      </g>
    </g>
  </g>
</svg>
