<svg xmlns="http://www.w3.org/2000/svg" width="73.473" height="63.916" viewBox="0 0 73.473 63.916">
  <g id="tether-usdt-logo" transform="translate(-0.005 0)">
    <path id="Path_170438" data-name="Path 170438" d="M13.458.314.061,28.454a.545.545,0,0,0,.117.636L36.36,63.762a.552.552,0,0,0,.764,0L73.306,29.093a.545.545,0,0,0,.117-.636L60.026.316A.541.541,0,0,0,59.532,0H13.955a.541.541,0,0,0-.5.314h0Z" transform="translate(0)" fill="#50af95" fill-rule="evenodd"/>
    <path id="Path_170439" data-name="Path 170439" d="M91.618,62.866h0c-.26.019-1.6.1-4.6.1-2.381,0-4.072-.071-4.665-.1h0c-9.2-.4-16.07-2.007-16.07-3.925s6.868-3.518,16.07-3.929V61.27c.6.043,2.325.145,4.706.145,2.857,0,4.288-.119,4.546-.143V55.017c9.182.409,16.036,2.011,16.036,3.925s-6.851,3.515-16.036,3.922h0Zm0-8.5v-5.6h12.815V40.23H69.543v8.54H82.356v5.6c-10.414.478-18.246,2.541-18.246,5.013s7.832,4.533,18.246,5.013V82.339h9.26V64.388c10.39-.478,18.209-2.539,18.209-5.009s-7.812-4.531-18.209-5.011h0Zm0,0Z" transform="translate(-50.228 -31.522)" fill="#fff" fill-rule="evenodd"/>
  </g>
</svg>
