<svg xmlns="http://www.w3.org/2000/svg" width="51.473" height="43.317" viewBox="0 0 51.473 43.317"><g transform="translate(0 -6.348)"><path d="M31.062,13.783a9.353,9.353,0,0,1,4.353,6.948,7.546,7.546,0,1,0-4.353-6.948ZM26.116,29.239a7.549,7.549,0,1,0-7.55-7.548A7.549,7.549,0,0,0,26.116,29.239Zm3.2.515H22.912a9.677,9.677,0,0,0-9.666,9.666v7.834l.02.123.54.169a44,44,0,0,0,13.142,2.119c7.1,0,11.221-2.025,11.475-2.154l.5-.255h.054V39.42a9.674,9.674,0,0,0-9.664-9.666Zm12.489-7.793H35.451a9.3,9.3,0,0,1-2.871,6.48,11.485,11.485,0,0,1,8.2,10.991v2.414a26.011,26.011,0,0,0,10.131-2.128l.5-.256h.054V31.626a9.676,9.676,0,0,0-9.665-9.665ZM12.87,21.447a7.5,7.5,0,0,0,4.015-1.165A9.343,9.343,0,0,1,20.4,14.323c.008-.141.021-.281.021-.424a7.548,7.548,0,1,0-7.548,7.548Zm6.78,6.994A9.309,9.309,0,0,1,16.78,22c-.236-.017-.469-.036-.709-.036H9.666A9.676,9.676,0,0,0,0,31.626v7.835l.02.121.54.17A45.318,45.318,0,0,0,11.444,41.8V39.432A11.488,11.488,0,0,1,19.649,28.441Z" fill="#00a1a3"/></g></svg>