<svg xmlns="http://www.w3.org/2000/svg" width="36.11" height="34.621" viewBox="0 0 36.11 34.621">
  <g id="svgexport-17_17_" data-name="svgexport-17 (17)" transform="translate(0 -0.99)">
    <path id="Path_170417" data-name="Path 170417" d="M33.612,14.761a6.1,6.1,0,0,1-1.244-1.11,5.7,5.7,0,0,1,.353-1.73c.388-1.317.873-2.954-.06-4.235s-2.656-1.335-4.035-1.37A5.913,5.913,0,0,1,26.9,6.13a5.855,5.855,0,0,1-.7-1.566c-.46-1.31-1.034-2.941-2.568-3.44-1.49-.484-2.826.436-4.005,1.244a5.612,5.612,0,0,1-1.575.885,5.6,5.6,0,0,1-1.576-.885c-1.177-.809-2.515-1.727-4-1.244-1.535.5-2.108,2.129-2.568,3.439a5.969,5.969,0,0,1-.693,1.56,5.779,5.779,0,0,1-1.73.19c-1.379.035-3.095.079-4.035,1.371S3,10.605,3.389,11.922a5.86,5.86,0,0,1,.356,1.72A5.888,5.888,0,0,1,2.5,14.762C1.384,15.609,0,16.666,0,18.3s1.384,2.691,2.5,3.54a6.1,6.1,0,0,1,1.244,1.11,5.7,5.7,0,0,1-.353,1.73C3,26,2.516,27.634,3.449,28.915S6.1,30.25,7.484,30.285a5.913,5.913,0,0,1,1.723.185,5.855,5.855,0,0,1,.7,1.566c.461,1.31,1.034,2.941,2.569,3.44a2.7,2.7,0,0,0,.843.135,5.959,5.959,0,0,0,3.163-1.38,5.611,5.611,0,0,1,1.575-.885,5.6,5.6,0,0,1,1.575.885c1.179.809,2.516,1.726,4.005,1.244,1.535-.5,2.108-2.129,2.568-3.439a5.969,5.969,0,0,1,.692-1.56,5.779,5.779,0,0,1,1.73-.19c1.379-.035,3.1-.079,4.035-1.371s.449-2.919.06-4.235a5.86,5.86,0,0,1-.356-1.72,5.888,5.888,0,0,1,1.248-1.12c1.112-.849,2.5-1.9,2.5-3.54S34.726,15.609,33.612,14.761Zm-8.851.843-7.523,7.523a1.5,1.5,0,0,1-2.127,0l-3.761-3.761a1.5,1.5,0,1,1,2.127-2.129l2.7,2.7,6.459-6.459A1.5,1.5,0,1,1,24.761,15.6Z" fill="#70cacb"/>
  </g>
</svg>
