<svg xmlns="http://www.w3.org/2000/svg" width="429.213" height="307.3" viewBox="0 0 429.213 307.3">
  <g id="Group_42023" data-name="Group 42023" transform="translate(719 -539)">
    <g id="Group_41985" data-name="Group 41985" transform="translate(-719 539)">
      <g id="Group_41440" data-name="Group 41440" transform="translate(0 0)">
        <g id="undraw_confirmation_re_b6q5">
          <path id="Path_171145" data-name="Path 171145" d="M786.576,364.922H551.7a12.48,12.48,0,0,0-12.469,12.469v38.064A12.481,12.481,0,0,0,551.7,427.924H786.576a12.48,12.48,0,0,0,12.469-12.469V377.392A12.48,12.48,0,0,0,786.576,364.922Z" transform="translate(-370.053 -274.871)" fill="#f3f6f9"/>
          <path id="Path_171146" data-name="Path 171146" d="M407.1,655.037H313.663a.748.748,0,1,1,0-1.5H407.1a.748.748,0,0,1,0,1.5Z" transform="translate(-312.915 -347.737)" fill="#3f3d56"/>
          <path id="Path_171147" data-name="Path 171147" d="M417.781,342.06a7.009,7.009,0,0,0-1.437,10.652l-6.793,14.506,7.809,6.278,9.306-20.621a7.048,7.048,0,0,0-8.884-10.816Z" transform="translate(-337.312 -268.818)" fill="#ffb8b8"/>
          <path id="Path_171148" data-name="Path 171148" d="M366.74,349.84h0a9.761,9.761,0,0,1,13.144,2.947l13.9,20.813,4.826-10.639a2.99,2.99,0,0,1,3.615-1.619l7.283,2.275a2.99,2.99,0,0,1,1.941,3.813l-4.986,14.722a12.722,12.722,0,0,1-19.255,6.4h0a12.725,12.725,0,0,1-2.084-1.792l-20.484-21.887a9.761,9.761,0,0,1,2.1-15.038Z" transform="translate(-325.308 -270.711)" fill="#ccc"/>
          <path id="Path_171149" data-name="Path 171149" d="M423.6,321.543a1.407,1.407,0,0,1,1.372,1.442l-.12,4.831.242.022-.087,3.281-.237-.03-.43,17.307a2.44,2.44,0,0,1-2.184,2.366l-11.005,1.159a1.847,1.847,0,0,1-2.036-1.962l1.669-24.644a2.285,2.285,0,0,1,1.929-2.1l10.624-1.65h0A1.409,1.409,0,0,1,423.6,321.543Z" transform="translate(-337.201 -263.919)" fill="#3f3d56"/>
          <path id="Path_171150" data-name="Path 171150" d="M415.427,324.322l5.585-.868a.463.463,0,0,0,.389-.407h0a.524.524,0,0,1,.44-.461l1.176-.183a1.11,1.11,0,0,1,1.28,1.124l-.6,25.093a1.268,1.268,0,0,1-1.155,1.232l-11,.978a.979.979,0,0,1-1.064-1.034l1.484-24.417a1.58,1.58,0,0,1,1.334-1.465l1.24-.193A.791.791,0,0,0,415.427,324.322Z" transform="translate(-337.546 -264.133)" fill="#fff"/>
          <path id="Path_171151" data-name="Path 171151" d="M69.521,387.813h8.546l4.064-32.963H69.518Z" transform="translate(-17.551 -89.587)" fill="#ffb8b8"/>
          <path id="Path_171152" data-name="Path 171152" d="M0,0H26.859V10.377H10.377A10.377,10.377,0,0,1,0,0H0Z" transform="translate(76.998 306.16) rotate(179.995)" fill="#2f2e41"/>
          <path id="Path_171153" data-name="Path 171153" d="M34.385,387.813h8.546L47,354.849H34.382Z" transform="translate(-8.681 -89.587)" fill="#ffb8b8"/>
          <path id="Path_171154" data-name="Path 171154" d="M0,0H26.859V10.377H10.377A10.377,10.377,0,0,1,0,0H0Z" transform="translate(50.733 306.16) rotate(179.995)" fill="#2f2e41"/>
          <circle id="Ellipse_2000" data-name="Ellipse 2000" cx="18.36" cy="18.36" r="18.36" transform="translate(32.372 31.205)" fill="#ffb8b8"/>
          <path id="Path_171155" data-name="Path 171155" d="M381.045,367.757a28.3,28.3,0,0,0-13.665-23.332c-4.743-2.8-9.935-3.885-14.066.245a28.67,28.67,0,0,0-5.858,8.792,37.755,37.755,0,0,0-.7,28.025l9.831,27.161,22.754,2.465a2.99,2.99,0,0,0,3.31-3.092Z" transform="translate(-320.863 -269.069)" fill="#262626"/>
          <path id="Path_171156" data-name="Path 171156" d="M358.147,426.7s-17,6.346-12.555,33.219c3.988,24.114.819,104.154.126,120.333a2.988,2.988,0,0,0,2.739,3.1l9.924.827a2.99,2.99,0,0,0,3.221-2.656l5.125-47.075a.748.748,0,0,1,1.488.018l3.819,45.3a2.99,2.99,0,0,0,3.074,2.738l8.335-.264a2.99,2.99,0,0,0,2.894-3.087l-4.91-149.317Z" transform="translate(-320.978 -290.468)" fill="#262626"/>
          <path id="Path_171157" data-name="Path 171157" d="M375.007,300.537a13.307,13.307,0,1,0-5.836-19.967c-3.106-5.6-11.241-7.021-16.827-3.9s-8.628,9.661-8.989,16.05,1.582,12.683,3.951,18.627c3.833,9.615,16.171,14.792,25.718,10.791A17.691,17.691,0,0,1,375.007,300.537Z" transform="translate(-320.589 -252.181)" fill="#8a4503"/>
          <path id="Path_395" data-name="Path 395" d="M417.979,343.548a.753.753,0,0,1-.453-.151l-.008-.006-1.707-1.306a.759.759,0,0,1,.923-1.2l1.106.848,2.613-3.409a.758.758,0,0,1,1.063-.14h0l-.016.023.017-.023a.759.759,0,0,1,.14,1.063l-3.073,4.008a.759.759,0,0,1-.6.3Z" transform="translate(-338.818 -268.08)" fill="#6c63ff"/>
          <path id="Path_171158" data-name="Path 171158" d="M786.871,244.458H552a12.48,12.48,0,0,0-12.469,12.469v38.064A12.48,12.48,0,0,0,552,307.46H786.871a12.48,12.48,0,0,0,12.469-12.469V256.927A12.48,12.48,0,0,0,786.871,244.458Zm11.157,50.533a11.172,11.172,0,0,1-11.157,11.157H552a11.172,11.172,0,0,1-11.156-11.157V256.927A11.172,11.172,0,0,1,552,245.77H786.871a11.172,11.172,0,0,1,11.157,11.157Z" transform="translate(-370.127 -244.458)" fill="#3f3d56"/>
          <path id="Path_171159" data-name="Path 171159" d="M612.82,300.971a21.7,21.7,0,1,1,21.7-21.7A21.7,21.7,0,0,1,612.82,300.971Z" transform="translate(-383.151 -247.767)" fill="#00a1a3"/>
          <path id="Path_171160" data-name="Path 171160" d="M787.666,306.755h-112.8a5.25,5.25,0,0,1,0-10.5h112.8a5.25,5.25,0,1,1,0,10.5Z" transform="translate(-402.968 -257.535)" fill="#ccc"/>
          <path id="Path_171161" data-name="Path 171161" d="M712.194,276.906H674.861a5.25,5.25,0,0,1,0-10.5h37.334a5.25,5.25,0,1,1,0,10.5Z" transform="translate(-402.968 -249.999)" fill="#ccc"/>
          <path id="Path_395-2" data-name="Path 395" d="M615.924,290.661a2.483,2.483,0,0,1-1.493-.5l-.027-.02-5.625-4.3a2.5,2.5,0,0,1,3.042-3.968l3.643,2.794,8.61-11.232a2.5,2.5,0,0,1,3.5-.463h0l-.053.074.055-.074a2.5,2.5,0,0,1,.462,3.5l-10.127,13.206a2.5,2.5,0,0,1-1.988.975Z" transform="translate(-387.363 -251.527)" fill="#fff"/>
          <path id="Path_171162" data-name="Path 171162" d="M651.871,381.458H417a12.48,12.48,0,0,0-12.469,12.469v38.064A12.48,12.48,0,0,0,417,444.46H651.871a12.48,12.48,0,0,0,12.469-12.469V393.927a12.48,12.48,0,0,0-12.469-12.469Z" transform="translate(-336.045 -279.045)" fill="#fff"/>
          <path id="Path_171163" data-name="Path 171163" d="M651.871,381.458H417a12.48,12.48,0,0,0-12.469,12.469v38.064A12.48,12.48,0,0,0,417,444.46H651.871a12.48,12.48,0,0,0,12.469-12.469V393.927a12.48,12.48,0,0,0-12.469-12.469Zm11.157,50.533a11.172,11.172,0,0,1-11.157,11.157H417a11.173,11.173,0,0,1-11.157-11.157V393.927A11.172,11.172,0,0,1,417,382.77H651.871a11.172,11.172,0,0,1,11.157,11.157Z" transform="translate(-336.045 -279.045)" fill="#3f3d56"/>
          <path id="Path_171164" data-name="Path 171164" d="M477.82,437.971a21.7,21.7,0,1,1,21.7-21.7,21.7,21.7,0,0,1-21.7,21.7Z" transform="translate(-349.069 -282.355)" fill="#00a1a3"/>
          <path id="Path_171165" data-name="Path 171165" d="M652.666,443.755h-112.8a5.25,5.25,0,0,1,0-10.5h112.8a5.25,5.25,0,1,1,0,10.5Z" transform="translate(-368.885 -292.122)" fill="#ccc"/>
          <path id="Path_171166" data-name="Path 171166" d="M577.194,413.906H539.861a5.25,5.25,0,0,1,0-10.5h37.334a5.25,5.25,0,1,1,0,10.5Z" transform="translate(-368.885 -284.586)" fill="#ccc"/>
          <path id="Path_395-3" data-name="Path 395" d="M480.924,427.661a2.482,2.482,0,0,1-1.493-.5l-.027-.02-5.625-4.3a2.5,2.5,0,0,1,3.042-3.968l3.643,2.794,8.61-11.232a2.5,2.5,0,0,1,3.5-.463h0l-.053.074.055-.074a2.5,2.5,0,0,1,.462,3.5l-10.127,13.206a2.5,2.5,0,0,1-1.988.975Z" transform="translate(-353.28 -286.114)" fill="#fff"/>
          <path id="Path_171167" data-name="Path 171167" d="M402.225,392.757a7.01,7.01,0,0,0-9.566,4.9l-15.788,2.7-.7,10,22.242-4.133a7.048,7.048,0,0,0,3.808-13.469Z" transform="translate(-328.886 -281.758)" fill="#ffb8b8"/>
          <path id="Path_171168" data-name="Path 171168" d="M367.954,354.275h0a9.761,9.761,0,0,1,5.085,12.474l-9.152,23.295,11.489-2.112a2.99,2.99,0,0,1,3.393,2.043l2.29,7.279a2.99,2.99,0,0,1-2.023,3.77L364.1,405.336a12.722,12.722,0,0,1-16.251-12.152h0a12.722,12.722,0,0,1,.282-2.734l6.275-29.314a9.761,9.761,0,0,1,13.546-6.861Z" transform="translate(-321.735 -271.966)" fill="#ccc"/>
        </g>
      </g>
    </g>
  </g>
</svg>
