<svg xmlns="http://www.w3.org/2000/svg" width="369.221" height="455.683" viewBox="0 0 369.221 455.683">
  <g id="Group_41733" data-name="Group 41733" transform="translate(-312.654 -254.498)" opacity="0.48">
    <path id="Path_170950" data-name="Path 170950" d="M566.757,698.333V666.375a32.372,32.372,0,0,0,15.521-27.61c0-24.676-27.5-42.923-53.537-25.774a16.835,16.835,0,0,0-4.818,4.859c-12.777,19.617-5.673,39.543,8.88,48.525v31.958Z" transform="translate(-52.513 -90.279)" fill="#00a1a3"/>
    <path id="Path_170951" data-name="Path 170951" d="M450.9,327.2c59.012-37.48,121.137,4.341,121.137,60.455h58.377c0-95.839-101.8-168.378-202.9-115.126-39.356,20.726-63.389,62.2-63.389,106.677v57.577H337.982a25.324,25.324,0,0,0-25.328,25.324V663.18H681.875V462.1a25.314,25.314,0,0,0-25.315-25.32H422.507V379.377A61.785,61.785,0,0,1,450.9,327.2Zm20.506,200.37a16.836,16.836,0,0,1,4.818-4.859c26.035-17.149,53.537,1.1,53.537,25.774a32.372,32.372,0,0,1-15.521,27.61v31.958H480.29V576.1C465.736,567.115,458.633,547.189,471.41,527.571Z" transform="translate(0)" fill="#e2f3f3"/>
    <path id="Path_170952" data-name="Path 170952" d="M353.639,856.962H641.809a40.495,40.495,0,0,0,39.217-30.53H314.409A40.521,40.521,0,0,0,353.639,856.962Z" transform="translate(-0.45 -146.781)" fill="#e2f3f3"/>
    <path id="Path_170953" data-name="Path 170953" d="M312.654,810.722a40.3,40.3,0,0,0,1.3,10.023H680.575a40.5,40.5,0,0,0,1.3-10.023v-6.447H312.654Z" transform="translate(0 -141.095)" fill="#00a1a3"/>
  </g>
</svg>
