<svg xmlns="http://www.w3.org/2000/svg" width="34.061" height="31.273" viewBox="0 0 34.061 31.273">
  <g id="svgexport-17_34_" data-name="svgexport-17 (34)" transform="translate(-3.724 -6)">
    <path id="Path_171169" data-name="Path 171169" d="M22.148,6a1.2,1.2,0,1,0,0,2.406,13.227,13.227,0,1,1-10.975,5.84l.656,4.234A1.2,1.2,0,0,0,13.013,19.5c.06,0,.126-.006.186-.012a1.2,1.2,0,0,0,1-1.371L13.151,11.28a1.2,1.2,0,0,0-1.371-1L4.7,11.364a1.2,1.2,0,0,0,.367,2.376l3.963-.613A15.639,15.639,0,1,0,22.148,6Z" transform="translate(0)" fill="#5b9efb"/>
  </g>
</svg>
