<svg xmlns="http://www.w3.org/2000/svg" width="81.8" height="55" viewBox="0 0 81.8 55">
  <g id="Group_42037" data-name="Group 42037" transform="translate(-571 -738)">
    <g id="Group_41440" data-name="Group 41440" transform="translate(571 738)">
      <g id="Rectangle_1549" data-name="Rectangle 1549" transform="translate(0 0)" fill="#00a1a3" stroke="#fff" stroke-width="0.5">
        <rect width="81.8" height="55" rx="27.5" stroke="none"/>
        <rect x="0.25" y="0.25" width="81.3" height="54.5" rx="27.25" fill="none"/>
      </g>
    </g>
    <g id="Icon_feather-camera" data-name="Icon feather-camera" transform="translate(599 754)">
      <path id="Path_171047" data-name="Path 171047" d="M28.265,23.965A2.433,2.433,0,0,1,25.832,26.4H3.933A2.433,2.433,0,0,1,1.5,23.965V10.583A2.433,2.433,0,0,1,3.933,8.15H8.8L11.233,4.5h7.3l2.433,3.65h4.866a2.433,2.433,0,0,1,2.433,2.433Z" transform="translate(-1.5 -4.5)" fill="none" stroke="#fff" stroke-linecap="round" stroke-linejoin="round" stroke-width="2"/>
      <path id="Path_171048" data-name="Path 171048" d="M21.733,18.366A4.866,4.866,0,1,1,16.866,13.5,4.866,4.866,0,0,1,21.733,18.366Z" transform="translate(-3.484 -6.201)" fill="none" stroke="#fff" stroke-linecap="round" stroke-linejoin="round" stroke-width="2"/>
    </g>
  </g>
</svg>
