<svg xmlns="http://www.w3.org/2000/svg" width="32" height="32" viewBox="0 0 32 32">
  <g id="Icon_feather-copy" data-name="Icon feather-copy" transform="translate(-2 -2)">
    <path id="Path_170957" data-name="Path 170957" d="M16.5,13.5H30a3,3,0,0,1,3,3V30a3,3,0,0,1-3,3H16.5a3,3,0,0,1-3-3V16.5A3,3,0,0,1,16.5,13.5Z" fill="none" stroke="#707070" stroke-linecap="round" stroke-linejoin="round" stroke-width="2"/>
    <path id="Path_170958" data-name="Path 170958" d="M7.5,22.5H6a3,3,0,0,1-3-3V6A3,3,0,0,1,6,3H19.5a3,3,0,0,1,3,3V7.5" fill="none" stroke="#707070" stroke-linecap="round" stroke-linejoin="round" stroke-width="2"/>
  </g>
</svg>
