<svg id="svgexport-17_33_" data-name="svgexport-17 (33)" xmlns="http://www.w3.org/2000/svg" width="56.825" height="56.825" viewBox="0 0 56.825 56.825">
  <path id="Path_170956" data-name="Path 170956" d="M51.831,13.318H45.056A8.319,8.319,0,0,0,38.4,0a7.471,7.471,0,0,0-6.416,3.117c-1.349,1.779-2.335,4.264-3.573,7.4-1.237-3.139-2.224-5.623-3.573-7.4A7.471,7.471,0,0,0,18.424,0a8.319,8.319,0,0,0-6.655,13.318H4.994A5,5,0,0,0,0,18.313v3.33A5,5,0,0,0,3.33,26.35v25.48a5,5,0,0,0,4.994,4.994H48.5A5,5,0,0,0,53.5,51.831V26.35a5,5,0,0,0,3.33-4.708v-3.33A5,5,0,0,0,51.831,13.318ZM31.469,11.847c2.55-6.47,3.52-8.517,6.933-8.517a4.994,4.994,0,0,1,0,9.989H30.886C31.09,12.806,31.285,12.313,31.469,11.847ZM18.424,3.33c3.413,0,4.383,2.047,6.933,8.517.184.466.378.959.582,1.472H18.424a4.994,4.994,0,1,1,0-9.989ZM21.753,53.5H8.324a1.667,1.667,0,0,1-1.665-1.665V26.637H21.753Zm0-30.188H4.994A1.667,1.667,0,0,1,3.33,21.642v-3.33a1.667,1.667,0,0,1,1.665-1.665H21.753ZM31.742,53.5H25.083V16.648h6.659Zm18.424-1.665A1.667,1.667,0,0,1,48.5,53.5H35.072V26.637H50.166ZM53.5,21.642a1.667,1.667,0,0,1-1.665,1.665H35.072V16.648H51.831A1.667,1.667,0,0,1,53.5,18.313Z" transform="translate(0 0)" fill="#00a1a3"/>
</svg>
