<svg id="svgexport-17_29_" data-name="svgexport-17 (29)" xmlns="http://www.w3.org/2000/svg" width="30" height="30" viewBox="0 0 30 30">
  <path id="Path_170908" data-name="Path 170908" d="M203.232,141.626a1.459,1.459,0,0,1-.88-.2.914.914,0,0,1-.252-.75,3.9,3.9,0,0,1,.082-.682,7.519,7.519,0,0,1,.177-.764l.8-2.768a4.192,4.192,0,0,0,.164-.839c0-.307.041-.518.041-.641a1.793,1.793,0,0,0-.634-1.425,2.666,2.666,0,0,0-1.8-.545,4.671,4.671,0,0,0-1.364.225q-.723.225-1.52.539l-.232.9c.157-.055.348-.116.566-.184a2.318,2.318,0,0,1,.641-.1,1.309,1.309,0,0,1,.866.211.989.989,0,0,1,.225.743,3.234,3.234,0,0,1-.075.682q-.072.358-.184.757l-.811,2.782a7.95,7.95,0,0,0-.157.784,4.876,4.876,0,0,0-.048.682,1.78,1.78,0,0,0,.682,1.411,2.727,2.727,0,0,0,1.827.559,4.206,4.206,0,0,0,1.364-.2q.58-.2,1.548-.566l.218-.859a3.77,3.77,0,0,1-.539.177A2.591,2.591,0,0,1,203.232,141.626Zm.852-13.125a2.074,2.074,0,0,0-2.727,0,1.63,1.63,0,0,0,0,2.468,2.045,2.045,0,0,0,2.727,0,1.637,1.637,0,0,0,0-2.468Z" transform="translate(-186.227 -120.49)" fill="#ffba0f"/>
  <path id="Path_170909" data-name="Path 170909" d="M15,0A15,15,0,1,0,30,15,15,15,0,0,0,15,0Zm0,28.636A13.636,13.636,0,1,1,28.636,15,13.636,13.636,0,0,1,15,28.636Z" fill="#ffba0f"/>
</svg>
