<svg xmlns="http://www.w3.org/2000/svg" width="9" height="13.494" viewBox="0 0 9 13.494">
  <path id="Icon_ionic-ios-arrow-round-down" data-name="Icon ionic-ios-arrow-round-down" d="M20.075,12.764a.612.612,0,0,1-.862,0L16.358,9.923V20.765a.609.609,0,0,1-1.219,0V9.923l-2.854,2.85a.617.617,0,0,1-.862,0,.607.607,0,0,1,0-.858l3.89-3.862h0a.684.684,0,0,1,.192-.127.582.582,0,0,1,.234-.047.611.611,0,0,1,.427.173l3.89,3.862A.6.6,0,0,1,20.075,12.764Z" transform="translate(-11.247 -7.875)" fill="#50cd89"/>
</svg>
