<svg xmlns="http://www.w3.org/2000/svg" width="50" height="50" viewBox="0 0 50 50">
  <g id="Group_41826" data-name="Group 41826" transform="translate(-509 -232)">
    <rect id="Rectangle_18616" data-name="Rectangle 18616" width="50" height="50" rx="10" transform="translate(509 232)" fill="#4cdda1"/>
    <g id="vuesax_broken_money-recive" data-name="vuesax/broken/money-recive" transform="translate(156 -201)">
      <g id="money-recive" transform="translate(364 444)">
        <g id="Group" transform="translate(11.089 8.755)">
          <path id="Vector" d="M0,6.14A2,2,0,0,0,1.949,8.183H4.144A1.738,1.738,0,0,0,5.836,6.4,1.542,1.542,0,0,0,4.681,4.7L1.167,3.479A1.534,1.534,0,0,1,.012,1.786,1.745,1.745,0,0,1,1.7,0H3.9A2,2,0,0,1,5.848,2.043" transform="translate(0 1.156)" fill="none" stroke="#fff" stroke-linecap="round" stroke-linejoin="round" stroke-width="1.5"/>
          <path id="Vector-2" data-name="Vector" d="M0,0V10.506" transform="translate(2.918)" fill="none" stroke="#fff" stroke-linecap="round" stroke-linejoin="round" stroke-width="1.5"/>
        </g>
        <path id="Vector-3" data-name="Vector" d="M0,0V4.669H4.669" transform="translate(19.844 3.502)" fill="none" stroke="#fff" stroke-linecap="round" stroke-linejoin="round" stroke-width="1.5"/>
        <path id="Vector-4" data-name="Vector" d="M5.836,0,0,5.836" transform="translate(19.844 2.335)" fill="none" stroke="#fff" stroke-linecap="round" stroke-linejoin="round" stroke-width="1.5"/>
        <path id="Vector-5" data-name="Vector" d="M0,0H28.015V28.015H0Z" fill="none" opacity="0"/>
        <path id="Vector-6" data-name="Vector" d="M11.673,0A11.673,11.673,0,0,0,6.537,22.155" transform="translate(2.335 2.335)" fill="none" stroke="#fff" stroke-linecap="round" stroke-linejoin="round" stroke-width="1.5"/>
        <path id="Vector-7" data-name="Vector" d="M11.673,0A11.677,11.677,0,0,1,0,11.673" transform="translate(14.008 14.008)" fill="none" stroke="#fff" stroke-linecap="round" stroke-linejoin="round" stroke-width="1.5"/>
      </g>
    </g>
  </g>
</svg>
