<svg id="Group_41821" data-name="Group 41821" xmlns="http://www.w3.org/2000/svg" width="50" height="50" viewBox="0 0 50 50">
  <rect id="Rectangle_18616" data-name="Rectangle 18616" width="50" height="50" rx="10" fill="#5b9efb"/>
  <g id="favorite-chart" transform="translate(11 11)">
    <g id="favorite-chart-2" data-name="favorite-chart">
      <path id="Vector" d="M24,13.2V8.4c0-6-2.4-8.4-8.4-8.4H8.4C2.4,0,0,2.4,0,8.4v7.2c0,6,2.4,8.4,8.4,8.4h4.8" transform="translate(2 2)" fill="none" stroke="#fff" stroke-linecap="round" stroke-linejoin="round" stroke-width="1.5"/>
      <path id="Vector-2" data-name="Vector" d="M0,4.98,2.38,1.89a1,1,0,0,1,1.41-.18L5.62,3.15a1.011,1.011,0,0,0,1.41-.17L9.34,0" transform="translate(9.33 11.51)" fill="none" stroke="#fff" stroke-linecap="round" stroke-linejoin="round" stroke-width="1.5"/>
      <g id="Group" transform="translate(18.995 18.992)">
        <path id="Vector-3" data-name="Vector" d="M5.555,1.987a1.243,1.243,0,0,1-.8-.6l-.28-.57c-.54-1.09-1.42-1.09-1.95,0l-.28.57a1.251,1.251,0,0,1-.8.6l-.38.06c-1.14.19-1.41,1.03-.59,1.86l.35.35a1.266,1.266,0,0,1,.29,1.02l-.05.21c-.31,1.38.42,1.91,1.62,1.19l.26-.15a1.229,1.229,0,0,1,1.12,0l.26.15c1.21.73,1.94.19,1.62-1.19l-.05-.21" transform="translate(0)" fill="none" stroke="#fff" stroke-linecap="round" stroke-linejoin="round" stroke-width="1.5"/>
      </g>
      <path id="Vector-4" data-name="Vector" d="M0,0H28V28H0Z" fill="none" opacity="0"/>
      <path id="Vector-5" data-name="Vector" d="M0,0H28V28H0Z" fill="none" opacity="0"/>
    </g>
  </g>
</svg>
