<svg xmlns="http://www.w3.org/2000/svg" width="50" height="50" viewBox="0 0 50 50">
  <g id="Group_41819" data-name="Group 41819" transform="translate(-1403 -619)">
    <rect id="Rectangle_18616" data-name="Rectangle 18616" width="50" height="50" rx="10" transform="translate(1403 619)" fill="#6c6cec"/>
    <g id="vuesax_broken_wallet" data-name="vuesax/broken/wallet" transform="translate(1178 186)">
      <g id="wallet" transform="translate(236 444)">
        <path id="Vector" d="M0,5.9A5.488,5.488,0,0,1,4.941.071,6.276,6.276,0,0,1,5.9,0H17.687a5.392,5.392,0,0,1,.884.059A5.5,5.5,0,0,1,23.583,5.9v5.9a5.57,5.57,0,0,1-5.9,5.9H5.9a5.57,5.57,0,0,1-5.9-5.9V10.624" transform="translate(2.358 8.254)" fill="none" stroke="#fff" stroke-linecap="round" stroke-linejoin="round" stroke-width="1.5"/>
        <path id="Vector-2" data-name="Vector" d="M13.631,5.955a5.392,5.392,0,0,0-.884-.059H.955A6.276,6.276,0,0,0,0,5.967a3.588,3.588,0,0,1,.684-.92L4.516,1.2a4.156,4.156,0,0,1,5.849,0L12.428,3.29A3.979,3.979,0,0,1,13.631,5.955Z" transform="translate(7.299 2.358)" fill="none" stroke="#fff" stroke-linecap="round" stroke-linejoin="round" stroke-width="1.5"/>
        <path id="Vector-3" data-name="Vector" d="M5.9,0H2.358a2.358,2.358,0,0,0,0,4.717H5.9" transform="translate(20.046 14.739)" fill="none" stroke="#fff" stroke-linecap="round" stroke-linejoin="round" stroke-width="1.5"/>
        <path id="Vector-4" data-name="Vector" d="M0,0H28.3V28.3H0Z" fill="none" opacity="0"/>
      </g>
    </g>
  </g>
</svg>
