<svg xmlns="http://www.w3.org/2000/svg" width="50" height="50" viewBox="0 0 50 50">
  <g id="Group_42030" data-name="Group 42030" transform="translate(-264 -42)">
    <rect id="Rectangle_18616" data-name="Rectangle 18616" width="50" height="50" rx="10" transform="translate(264 42)" fill="#f07b56"/>
    <g id="wallet-add" transform="translate(275 52.629)">
      <path id="Vector" d="M5.837,0H0" transform="translate(11.09 18.024)" fill="none" stroke="#fff" stroke-linecap="round" stroke-linejoin="round" stroke-width="1.5"/>
      <path id="Vector-2" data-name="Vector" d="M0,0V5.837" transform="translate(14.008 15.176)" fill="none" stroke="#fff" stroke-linecap="round" stroke-linejoin="round" stroke-width="1.5"/>
      <path id="Vector-3" data-name="Vector" d="M11.382,14.8H6.829A6.443,6.443,0,0,1,6,14.744Q.432,14.376.058,8.8A6.442,6.442,0,0,1,0,7.973V5.7A5.713,5.713,0,0,1,3.455.455,5.781,5.781,0,0,1,5.7,0H17.09a5.842,5.842,0,0,1,1.646.233,5.7,5.7,0,0,1,4.039,5.452V7.961c0,.233-.012.467-.023.7-.222,4.086-2.5,6.14-6.817,6.14" transform="translate(2.627 10.88)" fill="none" stroke="#fff" stroke-linecap="round" stroke-linejoin="round" stroke-width="1.5"/>
      <path id="Vector-4" data-name="Vector" d="M8.989.6,8.954.687,5.568,8.543H2.241A5.737,5.737,0,0,0,0,9l2.043-4.88L2.09,4l.082-.187a1.01,1.01,0,0,1,.082-.2C3.782.08,5.51-.726,8.989.6Z" transform="translate(6.07 2.337)" fill="none" stroke="#fff" stroke-linecap="round" stroke-linejoin="round" stroke-width="1.5"/>
      <path id="Vector-5" data-name="Vector" d="M9.712,8.172a5.557,5.557,0,0,0-1.646-.233H0L3.385.082,3.42,0c.175.058.339.14.514.21L6.514,1.3A7.584,7.584,0,0,1,9.561,3.257a2.469,2.469,0,0,1,.292.42,1.776,1.776,0,0,1,.233.5,1.885,1.885,0,0,1,.105.3A5.519,5.519,0,0,1,9.712,8.172Z" transform="translate(11.639 2.942)" fill="none" stroke="#fff" stroke-linecap="round" stroke-linejoin="round" stroke-width="1.5"/>
      <path id="Vector-6" data-name="Vector" d="M5.5,0,3.455,4.88A5.713,5.713,0,0,0,0,10.121V6.7A6.827,6.827,0,0,1,5.5,0Z" transform="translate(2.615 6.456)" fill="none" stroke="#fff" stroke-linecap="round" stroke-linejoin="round" stroke-width="1.5"/>
      <path id="Vector-7" data-name="Vector" d="M4.039,6.035v3.42A5.7,5.7,0,0,0,0,4,5.716,5.716,0,0,0,.49.3,1.333,1.333,0,0,0,.385,0,6.8,6.8,0,0,1,4.039,6.035Z" transform="translate(21.363 7.121)" fill="none" stroke="#fff" stroke-linecap="round" stroke-linejoin="round" stroke-width="1.5"/>
      <path id="Vector-8" data-name="Vector" d="M0,0H28.017V28.017H0Z" fill="none" opacity="0"/>
    </g>
  </g>
</svg>
