<svg xmlns="http://www.w3.org/2000/svg" width="50" height="50" viewBox="0 0 50 50">
  <g id="Group_42029" data-name="Group 42029" transform="translate(-1207 -255.506)">
    <g id="Group_42028" data-name="Group 42028" transform="translate(943 214)">
      <rect id="Rectangle_18616" data-name="Rectangle 18616" width="50" height="50" rx="10" transform="translate(264 41.506)" fill="#ff65a5"/>
    </g>
    <g id="vuesax_broken_bitcoin-card" data-name="vuesax/broken/bitcoin-card" transform="translate(1218 266.666)">
      <g id="bitcoin-card">
        <path id="Vector" d="M0,0H12.971" transform="translate(2.358 10.023)" fill="none" stroke="#fff" stroke-linecap="round" stroke-linejoin="round" stroke-width="1.5"/>
        <path id="Vector-2" data-name="Vector" d="M0,0H2.358" transform="translate(7.075 19.456)" fill="none" stroke="#fff" stroke-linecap="round" stroke-linejoin="round" stroke-width="1.5"/>
        <path id="Vector-3" data-name="Vector" d="M0,0H4.717" transform="translate(12.381 19.456)" fill="none" stroke="#fff" stroke-linecap="round" stroke-linejoin="round" stroke-width="1.5"/>
        <path id="Vector-4" data-name="Vector" d="M0,5.719V5.177C0,1.038,1.049,0,5.235,0H13.3" transform="translate(2.358 4.127)" fill="none" stroke="#fff" stroke-linecap="round" stroke-linejoin="round" stroke-width="1.5"/>
        <path id="Vector-5" data-name="Vector" d="M23.583,0V5.636c0,4.139-1.049,5.177-5.235,5.177H5.235C1.049,10.813,0,9.775,0,5.636V2.028" transform="translate(2.358 13.36)" fill="none" stroke="#fff" stroke-linecap="round" stroke-linejoin="round" stroke-width="1.5"/>
        <g id="Group" transform="translate(18.867 2.358)">
          <path id="Vector-6" data-name="Vector" d="M0,0H3.691A1.53,1.53,0,0,1,5.165,1.474,1.474,1.474,0,0,1,3.691,2.948H0Z" transform="translate(1.179 1.474)" fill="none" stroke="#fff" stroke-linecap="round" stroke-linejoin="round" stroke-width="1.5"/>
          <path id="Vector-7" data-name="Vector" d="M0,0H4.21A1.591,1.591,0,0,1,5.9,1.474,1.591,1.591,0,0,1,4.21,2.948H0Z" transform="translate(1.179 4.422)" fill="none" stroke="#fff" stroke-linecap="round" stroke-linejoin="round" stroke-width="1.5"/>
          <path id="Vector-8" data-name="Vector" d="M0,0V1.474" transform="translate(3.254 7.37)" fill="none" stroke="#fff" stroke-linecap="round" stroke-linejoin="round" stroke-width="1.5"/>
          <path id="Vector-9" data-name="Vector" d="M0,0V1.474" transform="translate(3.254)" fill="none" stroke="#fff" stroke-linecap="round" stroke-linejoin="round" stroke-width="1.5"/>
          <path id="Vector-10" data-name="Vector" d="M2.582,0H0" transform="translate(0 1.474)" fill="none" stroke="#fff" stroke-linecap="round" stroke-linejoin="round" stroke-width="1.5"/>
          <path id="Vector-11" data-name="Vector" d="M2.582,0H0" transform="translate(0 7.37)" fill="none" stroke="#fff" stroke-linecap="round" stroke-linejoin="round" stroke-width="1.5"/>
        </g>
        <path id="Vector-12" data-name="Vector" d="M0,0H28.3V28.3H0Z" fill="none" opacity="0"/>
      </g>
    </g>
  </g>
</svg>
