<svg xmlns="http://www.w3.org/2000/svg" width="126.23" height="42.55" viewBox="0 0 126.23 42.55">
  <g id="Group_42027" data-name="Group 42027" transform="translate(-1613.286 -31.133)">
    <g id="Group_39499" data-name="Group 39499" transform="translate(1613.286 46.614)">
      <g id="Group_39497" data-name="Group 39497" transform="translate(0 0)">
        <path id="Path_168310" data-name="Path 168310" d="M242.533,609.536v-1.028h1.485V599.14h-1.469v-1.028h8.927V600.9h-1.012l-.033-1.779h-5.3v4.194h5.239v1.044h-5.239v4.145h1.55v1.028Z" transform="translate(-242.533 -598.112)" fill="#00a1a3"/>
        <path id="Path_168311" data-name="Path 168311" d="M322.215,601.987v7.132h1.42v.963h-3.9v-.963h1.42V602.95h-1.387v-.963Zm-1.273-2.513a.751.751,0,0,1,1.5,0,.7.7,0,0,1-.751.734A.713.713,0,0,1,320.942,599.473Z" transform="translate(-309.68 -598.657)" fill="#00a1a3"/>
        <path id="Path_168312" data-name="Path 168312" d="M359.436,630.047h1.338v.963h-3.819v-.963h1.436v-6.153h-1.4v-.947h2.366l.049,1.452a3.214,3.214,0,0,1,2.872-1.6c2.285,0,3.492,1.338,3.492,3.672v3.574H367.2v.963H363.45v-.963h1.257v-3.558c0-1.828-.8-2.693-2.513-2.693a2.688,2.688,0,0,0-2.758,2.807Z" transform="translate(-342.054 -619.586)" fill="#00a1a3"/>
        <path id="Path_168313" data-name="Path 168313" d="M452.655,630.172v.947h-2.366c0-.212-.1-1.289-.1-1.518a3.419,3.419,0,0,1-3.15,1.681,4.179,4.179,0,0,1,0-8.356,3.442,3.442,0,0,1,3.166,1.746l.016-1.632h2.415v.979h-1.4v6.153Zm-8.682-3.052a3.025,3.025,0,0,0,3.117,3.182,3.183,3.183,0,1,0-.033-6.365A3.018,3.018,0,0,0,443.972,627.12Z" transform="translate(-416.831 -619.694)" fill="#00a1a3"/>
        <path id="Path_168314" data-name="Path 168314" d="M528.748,630.047h1.338v.963h-3.819v-.963H527.7v-6.153h-1.4v-.947h2.366l.049,1.452a3.214,3.214,0,0,1,2.872-1.6c2.285,0,3.493,1.338,3.493,3.672v3.574h1.436v.963h-3.754v-.963h1.257v-3.558c0-1.828-.8-2.693-2.513-2.693a2.688,2.688,0,0,0-2.758,2.807Z" transform="translate(-489.317 -619.586)" fill="#00a1a3"/>
        <path id="Path_168315" data-name="Path 168315" d="M619.534,630.009a4.221,4.221,0,0,1-3,1.224,4.012,4.012,0,0,1-4.292-4.146,3.958,3.958,0,0,1,4.243-4.162,5.306,5.306,0,0,1,2.742.8l-.033,1.942h-.947v-1.387a3.852,3.852,0,0,0-1.763-.375,3.158,3.158,0,1,0,.049,6.316,3.254,3.254,0,0,0,2.317-.914Z" transform="translate(-564.093 -619.694)" fill="#00a1a3"/>
        <path id="Path_168316" data-name="Path 168316" d="M686.048,629.639a4.531,4.531,0,0,1-3.476,1.485,4.162,4.162,0,0,1-.049-8.323c2.366,0,4.341,1.42,4.031,4.6h-7.083a2.954,2.954,0,0,0,3.117,2.742A3.69,3.69,0,0,0,685.346,629Zm-.49-3.117a2.688,2.688,0,0,0-3.019-2.758,2.952,2.952,0,0,0-3.068,2.758Z" transform="translate(-621.646 -619.586)" fill="#00a1a3"/>
      </g>
    </g>
    <g id="Layer_2" data-name="Layer 2" transform="translate(1690.572 31.133)">
      <path id="Path_168323" data-name="Path 168323" d="M464.555,458.737c-4.369.26-7.716,1.787-9.173,4.594-3.282,6.321,4.249,16.738,16.816,23.262s25.42,6.688,28.7.367c1.57-3.024.665-6.986-2.083-11.011.345,1.685,1.537,4.134-.039,7.515-2.9,5.593-14.276,5.448-25.4-.324S455.6,468.15,458.5,462.557c1.049-2.021,3.2-3.292,6.053-3.82" transform="translate(-453.666 -449.984)" fill="#5d6c73" fill-rule="evenodd"/>
      <path id="Path_168324" data-name="Path 168324" d="M482.044,447.632c3.792.226,8.07,1.478,9.95,5.1,2.159,4.16-.034,9.075-2.537,12.537-3.632,5.024-9.22,9.156-14.679,11.99s-12.054,5.027-18.253,5.106c-4.272.055-9.554-.98-11.713-5.14a7.579,7.579,0,0,1-.414-.953c-1.815-5.109,2.012-10.9,5.336-14.468l.611-.656,1.366,1.162-.55.709c-1.96,2.527-4.23,6.634-2.562,9.847,1.557,3,5.745,3.633,8.772,3.594,5.2-.066,10.781-1.942,15.359-4.319s9.323-5.86,12.37-10.076c1.773-2.453,3.665-6.243,2.108-9.242-1.041-2-3.278-2.938-5.391-3.33l-.867-.161.213-1.751Z" transform="translate(-443.929 -439.816)" fill="#fff" fill-rule="evenodd"/>
      <path id="Path_168325" data-name="Path 168325" d="M491.716,458.737c4.37.26,7.716,1.787,9.173,4.594,3.282,6.321-4.249,16.738-16.816,23.262s-25.42,6.688-28.7.367c-2-3.862.026-9.252,4.775-14.35-3.051,3.935-4.187,7.9-2.653,10.854,2.9,5.593,14.276,5.448,25.4-.324s17.783-14.99,14.879-20.583c-1.049-2.021-3.2-3.292-6.053-3.82" transform="translate(-453.657 -449.984)" fill="#8c8b8b" fill-rule="evenodd"/>
      <path id="Path_168326" data-name="Path 168326" d="M803.683,418.287v-26.51a1.349,1.349,0,0,1,1.348-1.35h2.7a1.35,1.35,0,0,1,1.349,1.35v22.47a38.965,38.965,0,0,1-5.394,4.04" transform="translate(-771.793 -387.73)" fill="#70cacb" fill-rule="evenodd"/>
      <path id="Path_168327" data-name="Path 168327" d="M846.017,406.286V428.7c-.581.524-1.184,1.03-1.8,1.517Z" transform="translate(-808.732 -402.183)" fill="#d38600" fill-rule="evenodd"/>
      <path id="Path_168328" data-name="Path 168328" d="M727.608,491.1V467.873a1.346,1.346,0,0,1,1.349-1.347h2.7A1.346,1.346,0,0,1,733,467.874v20.578q-.871.5-1.742.954c-1.161.6-2.386,1.173-3.653,1.69" transform="translate(-702.461 -457.083)" fill="#8f8f8f" fill-rule="evenodd"/>
      <path id="Path_168329" data-name="Path 168329" d="M769.414,481.727v20.578q-.871.5-1.742.954l-.112.058Z" transform="translate(-738.872 -470.937)" fill="#ba3d13" fill-rule="evenodd"/>
      <path id="Path_168330" data-name="Path 168330" d="M651.56,391.369V361.35a1.349,1.349,0,0,1,1.347-1.35h2.7a1.349,1.349,0,0,1,1.348,1.35v32.662c-1.267-.517-2.492-1.087-3.653-1.69q-.869-.451-1.742-.954" transform="translate(-633.155 -360)" fill="#d9d9d9" fill-rule="evenodd"/>
      <path id="Path_168331" data-name="Path 168331" d="M694.893,376.908v32.514q-.866-.353-1.7-.738Z" transform="translate(-671.094 -375.409)" fill="#21712d" fill-rule="evenodd"/>
      <path id="Path_168332" data-name="Path 168332" d="M575.493,441.993V422.222a1.349,1.349,0,0,1,1.347-1.35h2.7a1.349,1.349,0,0,1,1.349,1.35v23.811a38.945,38.945,0,0,1-5.394-4.04" transform="translate(-563.831 -415.476)" fill="#00a1a3" fill-rule="evenodd"/>
      <path id="Path_168333" data-name="Path 168333" d="M619.453,436.105v23.811q-.829-.519-1.643-1.082Z" transform="translate(-602.396 -429.359)" fill="#00518b" fill-rule="evenodd"/>
    </g>
  </g>
</svg>
