<svg xmlns="http://www.w3.org/2000/svg" width="29.801" height="29.801" viewBox="0 0 29.801 29.801">
  <g id="Group_39361" data-name="Group 39361" transform="translate(3.195 6)">
    <g id="Alert" transform="translate(-3.195 -6)">
      <path id="Path_1" data-name="Path 1" d="M1.9,26.076h9.361a3.744,3.744,0,0,0,7.489,0h9.361a1.8,1.8,0,0,0,1.685-1.3,1.982,1.982,0,0,0-.562-2.049,7.485,7.485,0,0,1-3-5.96V11.175a11.233,11.233,0,0,0-22.466,0v5.588a7.485,7.485,0,0,1-3,5.96,1.758,1.758,0,0,0-.562,2.049A1.8,1.8,0,0,0,1.9,26.076Z" transform="translate(-0.063)" fill="#00a1a3" fill-rule="evenodd"/>
    </g>
  </g>
</svg>
