<svg xmlns="http://www.w3.org/2000/svg" width="21.962" height="24.505" viewBox="0 0 21.962 24.505">
  <g id="svgexport-7_22_" data-name="svgexport-7 (22)" transform="translate(-26.57)">
    <g id="Group_39175" data-name="Group 39175" transform="translate(26.57)">
      <g id="Group_39174" data-name="Group 39174" transform="translate(0)">
        <g id="Group_39173" data-name="Group 39173">
          <path id="Path_167862" data-name="Path 167862" d="M118.233,200.957a.957.957,0,0,0-.957-.957h-9.859a.957.957,0,1,0,0,1.914h9.859A.957.957,0,0,0,118.233,200.957Z" transform="translate(-102.635 -190.428)" fill="#00a1a3"/>
          <path id="Path_167863" data-name="Path 167863" d="M107.416,280a.957.957,0,1,0,0,1.914H113.4a.957.957,0,0,0,0-1.914Z" transform="translate(-102.635 -266.599)" fill="#00a1a3"/>
          <path id="Path_167864" data-name="Path 167864" d="M33.6,22.591H30.4a1.917,1.917,0,0,1-1.914-1.914V3.829A1.917,1.917,0,0,1,30.4,1.914H42.167a1.917,1.917,0,0,1,1.914,1.914V9.716a.957.957,0,0,0,1.914,0V3.829A3.833,3.833,0,0,0,42.167,0H30.4A3.833,3.833,0,0,0,26.57,3.829V20.676A3.833,3.833,0,0,0,30.4,24.505h3.2a.957.957,0,0,0,0-1.914Z" transform="translate(-26.57)" fill="#00a1a3"/>
          <path id="Path_167865" data-name="Path 167865" d="M254.2,272.864a2.875,2.875,0,0,0-4.06,0l-5.255,5.244a.957.957,0,0,0-.24.4l-1.144,3.768a.957.957,0,0,0,1.171,1.2l3.864-1.07a.957.957,0,0,0,.421-.245l5.244-5.234A2.875,2.875,0,0,0,254.2,272.864Zm-6.419,7.763-1.944.538.569-1.873,3.546-3.538,1.354,1.354Zm5.066-5.056-.185.185-1.354-1.354.185-.184a.957.957,0,0,1,1.354,1.353Z" transform="translate(-233.077 -259.005)" fill="#00a1a3"/>
          <path id="Path_167866" data-name="Path 167866" d="M117.276,120h-9.859a.957.957,0,1,0,0,1.914h9.859a.957.957,0,0,0,0-1.914Z" transform="translate(-102.635 -114.257)" fill="#00a1a3"/>
        </g>
      </g>
    </g>
  </g>
</svg>
