<svg xmlns="http://www.w3.org/2000/svg" width="473" height="314.941" viewBox="0 0 473 314.941">
  <g id="Group_41979" data-name="Group 41979" transform="translate(-1139 -904.442)">
    <g id="Group_41978" data-name="Group 41978" transform="translate(992 761.645)">
      <path id="Path_170982" data-name="Path 170982" d="M180.884,456.891s-58.9-57.985-21.391-126.169,87.838-33.871,85.429-113.247,115.808-86.155,153.429-63.126,37.385,50.748,115.068,41.6,92.5,67.314,72.274,106.271C557,357.5,665.258,348.417,597.009,457.034Z" fill="#f3f6f9"/>
      <g id="Group_41967" data-name="Group 41967" transform="translate(335.758 191.923)" opacity="0.5">
        <path id="Path_170983" data-name="Path 170983" d="M1302.083,460.56s-4.2-35.15-22.207-56.126a3.931,3.931,0,0,0-6.9,2.66q0,.092.005.186C1273.216,413.551,1293.383,440,1302.083,460.56Z" transform="translate(-1249.21 -403.069)" fill="#bee6e9" opacity="0.5"/>
        <path id="Path_170984" data-name="Path 170984" d="M1202.121,485.783s-17.948-43.934-48.6-63.364a4.17,4.17,0,0,0-5.654,1.069c-.816,1.188-1.183,3.044-.267,5.942C1150.038,437.157,1184.228,463.168,1202.121,485.783Z" transform="translate(-1147.058 -418.228)" fill="#bee6e9" opacity="0.5"/>
      </g>
      <g id="Group_41968" data-name="Group 41968" transform="translate(404.972 201.859)" opacity="0.5">
        <path id="Path_170985" data-name="Path 170985" d="M1515.979,506.6s-5-19.031.027-33.553a2.185,2.185,0,0,1,4.109-.032c.012.032.024.064.035.1C1521.309,476.406,1516.281,494.2,1515.979,506.6Z" transform="translate(-1513.762 -468.596)" fill="#bee6e9" opacity="0.5"/>
        <path id="Path_170986" data-name="Path 170986" d="M1530.39,499.37s.313-26.379,12.2-42.683a2.318,2.318,0,0,1,3.142-.6,3.678,3.678,0,0,1,1.351,3.018C1547.394,463.6,1535.025,484.025,1530.39,499.37Z" transform="translate(-1527.252 -455.712)" fill="#bee6e9" opacity="0.5"/>
      </g>
      <path id="Path_170987" data-name="Path 170987" d="M830.428,460.6s-1.225,29.07-6.62,28.507,3.7-32.293,3.7-32.293-22.995-18.463-33.38-19.839c0,0,9.74,30.925,4.65,29.052s-16.721-33.582-16.721-33.582-25.4-11.079-33.312,3.66-2.857,24.2.846,26.1,29.011,7.428,27.594,10.552-19.673,4.41-28.49-.745c0,0,4.474,28.321,18.541,30.206s20.3-5.645,28.976-4.322,14.365,5.063,9.573,6.367-18.852-3.586-27.091.666-14.647,6.563-2.477,12.152,35.488,9.277,42.358.512l.859-1.1a5.332,5.332,0,0,1-.859,1.1c2.038,1.923,4.05,9.3,5.336,14.9.15.937.429,2.251.877,4.05h0c.164.8.292,1.462.38,1.92,1.887,12.317-5.019,31.226-5.019,31.226l2.56,1.367c10.605-18.211,3.735-36.79,3.735-36.79-3.913-14.377-1-25.442-1-25.442s27.771-8.055,20.64-29.4C846.085,479.427,839.573,465.828,830.428,460.6Z" transform="translate(-484.768 -231.733)" fill="#89d8d9" opacity="0.5"/>
      <path id="Path_170988" data-name="Path 170988" d="M1700.487,563.028c-.725-15.188-25.9-16.037-25.9-16.037S1652.64,568.457,1647.731,568s15.182-22.017,15.182-22.017c-9.06-2.935-35.149,3.216-35.149,3.216s-4.952,29.593-9.6,27.943,5.722-25.979,5.722-25.979c-9.55.714-20.213,9.324-20.213,9.324-14.2,14.719,5.433,32.193,5.433,32.193s-1.938,10.219-10.773,20.483h0a35.39,35.39,0,0,0-4.132,5.176l2.442.538q.516-.916,1.08-1.75a.015.015,0,0,1,.007-.01l.016-.024c.25-.341.609-.824,1.053-1.413l0,0s0,0,0,0c1.068-1.3,1.81-2.264,2.3-2.973a.022.022,0,0,0,0-.007c3.246-4.093,7.782-9.357,10.206-10.137a4.844,4.844,0,0,1-.276-1.235l.276,1.235c2.208,9.879,22.781,15.976,34.954,16.152s7.819-4.227,2.722-10.939-18.545-8.2-21.966-11.146,2.712-3.786,10.345-1.479,9.8,10.926,22.083,14.883,27.03-17.529,27.03-17.529c-9.251.78-23.727-7.418-23.666-10.535s22.988,2.245,26.768,2.139S1701.212,578.216,1700.487,563.028Z" transform="translate(-1174.045 -326.443)" fill="#89d8d9"/>
      <path id="Path_170989" data-name="Path 170989" d="M1803.541,1334.88c9.687-12.842-10.212-30.564-10.212-30.564s-32.373,2.607-36.057-1.084,27.242-7.634,27.242-7.634c-5.382-8.516-30.761-21.165-30.761-21.165s-24.049,20.715-26.712,16.231,22.231-17.256,22.231-17.256c-8.25-5.88-22.747-6.093-22.747-6.093-21.507,2.362-17.363,29.857-17.363,29.857s-8.489,7-22.62,9.369h0a37.42,37.42,0,0,0-6.863,1.414l1.622,2.09c.693-.264,1.381-.5,2.063-.692a.016.016,0,0,1,.013,0l.03-.008c.434-.108,1.053-.258,1.812-.437h.007c1.745-.332,3-.617,3.882-.862l.008,0c5.408-1.132,12.66-2.344,15.159-1.338a5.128,5.128,0,0,1,.611-1.192l-.611,1.192c-4.889,9.527,7.718,28.406,17.5,36.784s9.218,1.853,9.615-7.054-9.533-19.216-10.323-23.927,4.767-1.244,9.413,5.8.581,15.519,7.889,27.044,33.842,4.033,33.842,4.033c-8.052-5.625-14.277-22.086-12.119-24.58s17.176,17.379,20.322,19.85S1793.855,1347.723,1803.541,1334.88Z" transform="translate(-1243.391 -912.267)" fill="#89d8d9" opacity="0.5"/>
      <path id="Path_170990" data-name="Path 170990" d="M499.967,1331.42c-11.2-13.481,9.551-33.786,9.551-33.786s35.365,1.182,39.187-3.024-30.039-6.915-30.039-6.915c5.422-9.543,32.4-24.608,32.4-24.608s27.233,21.315,29.9,16.3-25.076-17.643-25.076-17.643c8.678-6.822,24.444-7.794,24.444-7.794,23.527,1.471,20.423,31.606,20.423,31.606s9.6,7.183,25.1,9.04h0a40.785,40.785,0,0,1,7.541,1.188l-1.659,2.357c-.768-.252-1.528-.47-2.28-.648a.016.016,0,0,0-.014,0l-.033-.007c-.478-.095-1.159-.227-1.995-.383h-.007c-1.917-.272-3.3-.518-4.269-.739l-.009,0c-5.944-.956-13.9-1.9-16.566-.682a5.581,5.581,0,0,0-.726-1.265l.726,1.265c5.808,10.119-6.947,31.309-17.162,40.928s-9.938,2.488-10.825-7.185,9.393-21.4,10.011-26.568-5.252-1.11-9.948,6.79.161,16.919-7.2,29.836-36.624,6.119-36.624,6.119c8.475-6.533,14.409-24.766,11.932-27.371s-17.8,19.792-21.1,22.643S511.166,1344.9,499.967,1331.42Z" transform="translate(-283.655 -901.424)" fill="#89d8d9" opacity="0.5"/>
      <g id="Group_41970" data-name="Group 41970" transform="translate(224.05 283.767)">
        <path id="Path_170991" data-name="Path 170991" d="M630.028,927.763c-.639-1.233,13.946-5.672,14.177,6.495,0,0,27.322-.672,14.277-15.9-4.517-5.272-4.052-9.631-3.917-13.689S651.752,888.817,641.639,890a7.53,7.53,0,0,0-5.953.637C628.169,894.541,611.331,932.25,630.028,927.763Z" transform="translate(-609.002 -889.67)" fill="#8a4503"/>
        <path id="Path_170992" data-name="Path 170992" d="M903.277,1139.419s1.779-2.708,3.212-2.761,4.088-.8,3.875-.265-1.858.584-2.017.9,2.442.8,3.185.849,2.5,0,2.442.372-3.158,1.911-5.348,1.7a14.858,14.858,0,0,0-4.9.637Z" transform="translate(-837.582 -1089.671)" fill="#ffb27d"/>
        <path id="Path_170993" data-name="Path 170993" d="M767.007,1064.96a26.657,26.657,0,0,0,2.72,4.114c2.113,2.647,5.372,5.7,9.463,6.308a10.158,10.158,0,0,0,5.622-.913h.006c4.969-2.206,8.705-7.278,8.705-7.278a4.085,4.085,0,0,0-.558-4.008s-10.033,2.257-10.989,1.779-6.53-16.536-7.856-18.554-5.851-3.066-5.851-3.066Z" transform="translate(-727.032 -1014.335)" fill="#aaa"/>
        <path id="Path_170994" data-name="Path 170994" d="M780.061,1156.825c2.113,2.647,5.372,5.7,9.463,6.308a10.158,10.158,0,0,0,5.622-.913c-.194.025-5.157.639-7.135-2.9-2.018-3.61-4.2-9.344-7.2-7.432C779.521,1152.713,779.579,1154.762,780.061,1156.825Z" transform="translate(-737.367 -1102.087)" fill="#aaa"/>
        <path id="Path_170995" data-name="Path 170995" d="M557.759,1726.011s-3.062,2.794-2.464,4.779,3.36,3.309,3.734,5.735,1.867,3.75,3.211,3.75h6.408s.989-1.707-1.4-2.222-3.291-3.366-3.141-6.013a46.626,46.626,0,0,0-.224-6.176l-5.078-1.177Z" transform="translate(-555.218 -1567.081)"/>
        <path id="Path_170996" data-name="Path 170996" d="M704.147,1737.984s-1.1,11.837.243,12.5l17.2-.035s0-1.985-2.763-2.427-7.617-2.059-8.438-5.661S704.147,1737.984,704.147,1737.984Z" transform="translate(-675.693 -1577.867)"/>
        <path id="Path_170997" data-name="Path 170997" d="M635.377,1052.832a68.527,68.527,0,0,0,0,7.951c.17,2.875,3.078,6.725,3.491,7.677,1.035,2.389,2.2,2.778,2.2,2.778l9.032,2.214,3.176.777,10.014-2.991s4.561-12.732,2.73-19.9a55.092,55.092,0,0,0-4.63-12.144,72.327,72.327,0,0,0-18.812-.678Z" transform="translate(-620.155 -1010.191)" fill="#aaa"/>
        <path id="Path_170998" data-name="Path 170998" d="M649.873,1151.426a28.111,28.111,0,0,0,.847,6.5c1.035,2.389,2.2,2.778,2.2,2.778l9.032,2.214,3.923-1.153s-13.094-1.984-11.644-13.251Z" transform="translate(-632.007 -1099.661)" fill="#f2ccaa"/>
        <path id="Path_170999" data-name="Path 170999" d="M708.974,1223.34s4.959,15.437,5.278,20.692-9.48,74.661-9.874,77.082c-.372,2.283-3.206,3.738-3.206,3.738a4.29,4.29,0,0,1-3.164.244,7.825,7.825,0,0,1-3.4-1.6s-3.86-49.5-1.471-67.182a280.1,280.1,0,0,0,2.417-32.973Z" transform="translate(-666.473 -1160.361)"/>
        <path id="Path_171000" data-name="Path 171000" d="M592.123,1220.9s-7.565,10.15-8.27,17.012-1.106,30.963-2.609,37.652-7.023,19.561-7.023,40.425a4.162,4.162,0,0,0,2.346,1.833,19.3,19.3,0,0,0,2.063.57,3.243,3.243,0,0,0,3.627-1.722c3.732-7.515,15.621-31.75,16.23-36.781.431-3.56,4.185-27.123,12.373-40.95,1.966-3.319-1.206-16.52-1.206-16.52Z" transform="translate(-570.634 -1158.381)" fill="#262626"/>
        <path id="Path_171001" data-name="Path 171001" d="M686.264,1210.714a10.393,10.393,0,0,1-5.946,1.654c-4.724.1-16.43-1.2-16.43-1.2a9.678,9.678,0,0,0-.5,2.988s14.3,3.606,22.581.527A5.236,5.236,0,0,0,686.264,1210.714Z" transform="translate(-642.971 -1150.118)" fill="#233862"/>
        <g id="Group_41969" data-name="Group 41969" transform="translate(36.324 61.442)">
          <path id="Path_171002" data-name="Path 171002" d="M747.668,1217.636a2.172,2.172,0,1,1,2.156,2.44A2.314,2.314,0,0,1,747.668,1217.636Zm.715,0a1.465,1.465,0,1,0,1.441-1.726A1.6,1.6,0,0,0,748.383,1217.636Z" transform="translate(-747.668 -1215.196)" fill="#fff"/>
        </g>
        <rect id="Rectangle_18728" data-name="Rectangle 18728" width="19.423" height="26.587" transform="matrix(-0.754, -0.657, 0.657, -0.754, 20.173, 76.143)" fill="#b5453c"/>
        <path id="Path_171003" data-name="Path 171003" d="M679.163,1225.756s5.367.628,5.35,1.9-1.337,3.891-2,4.008-4.368-3.54-4.368-3.54Z" transform="translate(-654.943 -1162.321)" fill="#ffb27d"/>
        <path id="Path_171004" data-name="Path 171004" d="M597.222,1039.746s-7.165.5-9.912,7.179-7.958,17.888-7.958,19.774,2.911,7.7,18.545,11.042c0,0,1.617-1.7,1.519-3.046,0,0-9.759-8.382-9.733-9.362.05-1.853,1.6-4.3,10.168-12.871C602.181,1050.132,597.222,1039.746,597.222,1039.746Z" transform="translate(-574.797 -1011.42)" fill="#aaa"/>
        <path id="Path_171005" data-name="Path 171005" d="M698.263,1004.232a35.287,35.287,0,0,0,1.356-9.226l.453.089,7.624,1.51s-.173,2.4-.179,4.66c0,.019,0,.038,0,.056a19.534,19.534,0,0,1-.2,4.077C706.595,1007.282,697.763,1005.632,698.263,1004.232Z" transform="translate(-671.247 -975.124)" fill="#ffb27d"/>
        <path id="Path_171006" data-name="Path 171006" d="M715.563,996.99s-.173,2.4-.179,4.66c-4.266-.12-6.522-4.012-7.446-6.169Z" transform="translate(-679.113 -975.509)" fill="#e8945b"/>
        <path id="Path_171007" data-name="Path 171007" d="M711.979,941.609s-10.094.167-10.1-6.121-1.314-10.5,5.13-10.873,7.7,2.026,8.212,4.124S714.6,941.4,711.979,941.609Z" transform="translate(-674.104 -917.988)" fill="#ffb27d"/>
        <path id="Path_171008" data-name="Path 171008" d="M697.655,918.47s-2.764,7.377-7.005,8.468-6.081-.046-6.081-.046a12.011,12.011,0,0,0,3.929-7.1S695.57,914.96,697.655,918.47Z" transform="translate(-660.154 -911.998)" fill="#8a4503"/>
        <path id="Path_171009" data-name="Path 171009" d="M750.273,921.966a6.262,6.262,0,0,1,2.893,2.261A10.163,10.163,0,0,1,754.531,930s2.082-5.014-.258-7.85C751.791,919.142,750.273,921.966,750.273,921.966Z" transform="translate(-713.457 -914.895)" fill="#8a4503"/>
        <path id="Path_171010" data-name="Path 171010" d="M745.434,993.006s.174.741,2.018.627c0,0,1.548-.1,1.5-.91A4.98,4.98,0,0,0,745.434,993.006Z" transform="translate(-709.531 -973.118)" fill="#fff"/>
      </g>
      <g id="Group_41972" data-name="Group 41972" transform="translate(466.763 271.551)">
        <g id="Group_41971" data-name="Group 41971" transform="translate(0 0)">
          <path id="Path_171011" data-name="Path 171011" d="M1848.728,1021.461a17.5,17.5,0,0,0-1.184-6.078c-1.213-2.425-4.63-5.071-6.063-4.189s2.094,4.961,1.543,6.5,1.545,4.178,3.253,6.058l2.48-1.317S1848.756,1022.059,1848.728,1021.461Z" transform="translate(-1841.135 -975.9)" fill="#ffb27d"/>
          <path id="Path_171012" data-name="Path 171012" d="M1897.051,1001.6a71.863,71.863,0,0,1-7.847,11.7v0c-2.979,3.556-6.028,6.259-8.6,7.174l-.02.007c-.134.046-.267.091-.4.126a.032.032,0,0,1-.02,0l0,0a4.691,4.691,0,0,1-1.495.192c-8.444-.379-17.345-18.493-17.345-18.493a6.441,6.441,0,0,1,1.874-3.664,7.593,7.593,0,0,1,2.536-1.669s9.095,9.339,11.317,10.012c1.4.421,3.234-6.1,5.867-14.291s11.884-10.21,11.884-10.21S1904.161,988.416,1897.051,1001.6Z" transform="translate(-1857.513 -952.756)" fill="#aaa"/>
          <path id="Path_171013" data-name="Path 171013" d="M1970.179,1118.267v0c-2.979,3.556-6.028,6.259-8.6,7.174l-.02.007-.4.126-.022.007,0,0c.093-.062,2.846-1.49,3.279-4.141.441-2.708-2.424-4.924,4.777-9.114C1973.393,1109.884,1970.179,1118.267,1970.179,1118.267Z" transform="translate(-1938.488 -1057.722)" fill="#777"/>
          <path id="Path_171014" data-name="Path 171014" d="M1974.112,1757.254H1993.9c1.418-.961-.383-10.363-.383-10.363s-5.4-2.05-6.335,2.118-6.88,5.49-10.026,6C1975.008,1755.357,1974.327,1756.54,1974.112,1757.254Z" transform="translate(-1949.013 -1572.468)"/>
          <path id="Path_171015" data-name="Path 171015" d="M2027.181,1258.477s-.624,11.546-1.4,24.925c-.562,9.593-1.2,20.129-1.75,28.02-.073,1.047-.146,2.048-.214,2.994-.02.293-.042.584-.064.875a175.95,175.95,0,0,1-6.156,33.195c-5.565,1.173-8.078-.972-8.078-.972s-3.834-44.935-5.254-63.058c-1.045-13.341-1.936-32.765-1.936-32.765Z" transform="translate(-1971.9 -1171.144)"/>
          <path id="Path_171016" data-name="Path 171016" d="M2071.471,1359.5c-.562,9.593-1.2,20.129-1.75,28.02-3.638-8.581-11.07-42.027-11.07-42.027Z" transform="translate(-2017.595 -1247.239)" fill="#1a1a1c"/>
          <path id="Path_171017" data-name="Path 171017" d="M2129.629,1757.254h19.792c1.418-.961-.383-10.363-.383-10.363s-5.4-2.05-6.335,2.118-6.88,5.49-10.026,6C2130.524,1755.357,2129.844,1756.54,2129.629,1757.254Z" transform="translate(-2075.177 -1572.468)"/>
          <path id="Path_171018" data-name="Path 171018" d="M2030.809,1246.26s14.134,35.181,18.652,48.517c3.218,9.5,12.295,42.823,12.295,42.823a9.121,9.121,0,0,0,7.264-1.121s3.377-34.046-3.444-43.646c-3.619-5.093-.9-52.945-15.573-53.355S2030.809,1246.26,2030.809,1246.26Z" transform="translate(-1995.009 -1161.224)"/>
          <path id="Path_171019" data-name="Path 171019" d="M2027.631,1018.492c-.06,5-.115,8.676-.1,9.6.04,3.027-1.9,3.711-3.892,4.172,0,0-1.843.4-4.169.791a45.836,45.836,0,0,1-6.965.745,62.826,62.826,0,0,1-18.229-3c-1.868,0-2.719-2.888-3.025-6.921-.207-2.729.635-29.949.741-36.747.073-4.875,2.749-9.379,3.5-10.038,6.929-6.127,27.379-5.355,31.058-1.129.911,1.045,1.175,11.123,1.206,22.162C2027.772,1005.238,2027.7,1012.743,2027.631,1018.492Z" transform="translate(-1962.89 -944.772)" fill="#aaa"/>
          <path id="Path_171020" data-name="Path 171020" d="M2071.275,936.888c-2.61,2.829-11.379,2.41-11.119-.059.035-.3.093-2.112.121-2.392.022-.225.044-.445.062-.653q.089-.913.148-1.612c.117-1.354.154-2.088.154-2.088h.009c.251-.071,5.889-1.671,8.693-2.335a4.509,4.509,0,0,1,1.554-.258C2070.038,933.79,2072.13,935.96,2071.275,936.888Z" transform="translate(-2018.812 -908.115)" fill="#ffb27d"/>
          <path id="Path_171021" data-name="Path 171021" d="M2071.087,930.828s-2.355,2.392-9.154,2.564c.117-1.354.154-2.088.154-2.088h.009c.251-.071,5.889-1.671,8.693-2.335C2071.283,929.173,2070.628,930.489,2071.087,930.828Z" transform="translate(-2020.258 -909.336)" fill="#ed975d"/>
          <path id="Path_171022" data-name="Path 171022" d="M2048.632,865.681a21.3,21.3,0,0,0,3.916.913c3.21.433,7.43.178,8.756-3.706,2.233-6.536,5.086-10.455-1.486-13.125-3.518-1.429-5.769-1.5-7.3-.959a5.29,5.29,0,0,0-2.7,2.341C2048.541,853.146,2045.974,864.537,2048.632,865.681Z" transform="translate(-2008.526 -844.047)" fill="#ffb27d"/>
          <path id="Path_171023" data-name="Path 171023" d="M2056.527,826.986a3.1,3.1,0,0,0,1.185,5.641,22.784,22.784,0,0,1,3.853.707c1.634.726,3.039,1.5,2.653,4.032-.131.863-.552,1.913,1.668,1.391a1.08,1.08,0,0,1,.806.048c.921.546-.256,3.194-.611,3.767,0,0-.511,1.9.622,2.82.137.11,2.364,1.084,7.729-7.128a7.626,7.626,0,0,0,.346-6.988c-1.3-2.8-4.929-6.331-11.764-6.331A13.032,13.032,0,0,0,2056.527,826.986Z" transform="translate(-2014.742 -824.947)" fill="#a9453d"/>
          <path id="Path_171024" data-name="Path 171024" d="M2053.345,917.2s-.137.846,1.83,1.521c0,0,1.652.567,1.953-.3A5.609,5.609,0,0,0,2053.345,917.2Z" transform="translate(-2013.289 -899.791)" fill="#fff"/>
          <path id="Path_171025" data-name="Path 171025" d="M2155.821,1115.852c-1,4.641-2.622,6.248-3.534,4.518-3.2-6.063-3.159-8.605-1.773-12.9s-3.481-11.024,0-13.89c3.4-2.8,5.344,1.715,5.428,1.916C2155.962,1102.6,2155.889,1110.1,2155.821,1115.852Z" transform="translate(-2091.08 -1042.131)" fill="#aaa"/>
          <path id="Path_171026" data-name="Path 171026" d="M2134.283,1212.365s-2.352,3.847-3.9,3.711-3.624-.711-4.825.436-3.138,4.105-2.6,4.893,2.717.089,4.281-.773,4.026.425,5.338-.555a45.807,45.807,0,0,0,4.455-4.87Z" transform="translate(-2069.695 -1139.241)" fill="#ffb27d"/>
          <path id="Path_171027" data-name="Path 171027" d="M2160.248,990.237s19.524,18.372,16.989,30.593c-1.155,5.569-4.74,10.267-14.294,17.874,0,0-4.52-3.124-5.512-5.659,0,0,8.672-12.215,8.337-14.294-.41-2.546-6.33-8.929-8.454-9.922S2155.385,992.369,2160.248,990.237Z" transform="translate(-2096.592 -959.039)" fill="#aaa"/>
          <path id="Path_171028" data-name="Path 171028" d="M2148.928,1225.976s-2.058-.9-2.719-1.286-.514.239-.312.551a2.283,2.283,0,0,0,1.562,1.084A2.578,2.578,0,0,0,2148.928,1225.976Z" transform="translate(-2088.236 -1149.141)" fill="#ffb27d"/>
        </g>
      </g>
      <g id="Group_41977" data-name="Group 41977" transform="translate(305.186 240.712)">
        <path id="Rectangle_18729" data-name="Rectangle 18729" d="M0,0H110.385A56.714,56.714,0,0,1,167.1,56.714v101.1a58.213,58.213,0,0,1-58.213,58.213H0a0,0,0,0,1,0,0V0A0,0,0,0,1,0,0Z" fill="#00a1a3"/>
        <g id="Group_41973" data-name="Group 41973" transform="translate(21.318 15.635)">
          <path id="Path_171029" data-name="Path 171029" d="M1101.2,757.164v6.767h-3.165V745.719H1105a8.508,8.508,0,0,1,2.821.432,5.979,5.979,0,0,1,2.083,1.207,5.138,5.138,0,0,1,1.295,1.839,5.942,5.942,0,0,1,.444,2.314,6.052,6.052,0,0,1-.444,2.377,4.7,4.7,0,0,1-1.295,1.776,5.884,5.884,0,0,1-2.083,1.113,9.392,9.392,0,0,1-2.821.388Zm0-2.539h3.8a4.856,4.856,0,0,0,1.57-.225,2.85,2.85,0,0,0,1.082-.638,2.45,2.45,0,0,0,.619-.982,3.836,3.836,0,0,0,.194-1.244,3.886,3.886,0,0,0-.194-1.226,2.807,2.807,0,0,0-.619-1.044,3.012,3.012,0,0,0-1.082-.726,4.139,4.139,0,0,0-1.57-.269h-3.8Z" transform="translate(-1098.032 -745.469)" fill="#e2f3f3"/>
          <path id="Path_171030" data-name="Path 171030" d="M1176.189,759.691h-7.055l-1.476,4.24h-3.29l6.879-18.212h2.84l6.892,18.212h-3.3Zm-6.167-2.552h5.279l-2.639-7.555Z" transform="translate(-1151.848 -745.469)" fill="#e2f3f3"/>
          <path id="Path_171031" data-name="Path 171031" d="M1268.85,758.164a2.774,2.774,0,0,0-.163-.982,1.943,1.943,0,0,0-.594-.794,4.936,4.936,0,0,0-1.188-.694,18.311,18.311,0,0,0-1.945-.694,18.7,18.7,0,0,1-2.4-.888,8.287,8.287,0,0,1-1.9-1.163,4.98,4.98,0,0,1-1.245-1.526,4.212,4.212,0,0,1-.45-1.976,4.417,4.417,0,0,1,.469-2.026,4.8,4.8,0,0,1,1.32-1.6,6.281,6.281,0,0,1,2.039-1.051,8.7,8.7,0,0,1,2.627-.375,8.081,8.081,0,0,1,2.764.444,6.2,6.2,0,0,1,2.07,1.207,5.258,5.258,0,0,1,1.295,1.77,5.2,5.2,0,0,1,.45,2.145h-3.152a3.483,3.483,0,0,0-.206-1.219,2.537,2.537,0,0,0-.632-.963,2.912,2.912,0,0,0-1.076-.632,4.711,4.711,0,0,0-1.538-.225,4.982,4.982,0,0,0-1.451.188,2.9,2.9,0,0,0-1.019.525,2.073,2.073,0,0,0-.6.8,2.562,2.562,0,0,0-.194,1,2.007,2.007,0,0,0,.957,1.689,10.187,10.187,0,0,0,2.921,1.251,16.94,16.94,0,0,1,2.664,1,7.626,7.626,0,0,1,1.87,1.245,4.5,4.5,0,0,1,1.107,1.563,5.043,5.043,0,0,1,.363,1.957,4.591,4.591,0,0,1-.457,2.07,4.421,4.421,0,0,1-1.3,1.564,6.1,6.1,0,0,1-2.045.988,9.709,9.709,0,0,1-2.677.344,9.579,9.579,0,0,1-2.589-.357,7.314,7.314,0,0,1-2.289-1.076,5.6,5.6,0,0,1-1.632-1.795,4.976,4.976,0,0,1-.619-2.527h3.165a3.311,3.311,0,0,0,.306,1.482,2.766,2.766,0,0,0,.838,1.013,3.509,3.509,0,0,0,1.257.575,6.428,6.428,0,0,0,1.564.181,3.9,3.9,0,0,0,2.483-.669A2.16,2.16,0,0,0,1268.85,758.164Z" transform="translate(-1228.136 -744.393)" fill="#e2f3f3"/>
          <path id="Path_171032" data-name="Path 171032" d="M1350.759,758.164a2.774,2.774,0,0,0-.163-.982,1.946,1.946,0,0,0-.594-.794,4.944,4.944,0,0,0-1.188-.694,18.288,18.288,0,0,0-1.945-.694,18.715,18.715,0,0,1-2.4-.888,8.279,8.279,0,0,1-1.9-1.163,4.979,4.979,0,0,1-1.245-1.526,4.21,4.21,0,0,1-.45-1.976,4.417,4.417,0,0,1,.469-2.026,4.8,4.8,0,0,1,1.319-1.6,6.28,6.28,0,0,1,2.039-1.051,8.693,8.693,0,0,1,2.627-.375,8.079,8.079,0,0,1,2.764.444,6.193,6.193,0,0,1,2.07,1.207,5.26,5.26,0,0,1,1.295,1.77,5.2,5.2,0,0,1,.45,2.145h-3.152a3.48,3.48,0,0,0-.206-1.219,2.538,2.538,0,0,0-.632-.963,2.912,2.912,0,0,0-1.076-.632,4.712,4.712,0,0,0-1.539-.225,4.98,4.98,0,0,0-1.451.188,2.9,2.9,0,0,0-1.019.525,2.071,2.071,0,0,0-.6.8,2.564,2.564,0,0,0-.194,1,2.006,2.006,0,0,0,.957,1.689,10.185,10.185,0,0,0,2.921,1.251,16.939,16.939,0,0,1,2.664,1,7.629,7.629,0,0,1,1.87,1.245,4.5,4.5,0,0,1,1.107,1.563,5.041,5.041,0,0,1,.363,1.957,4.593,4.593,0,0,1-.457,2.07,4.42,4.42,0,0,1-1.3,1.564,6.1,6.1,0,0,1-2.045.988,9.71,9.71,0,0,1-2.677.344,9.579,9.579,0,0,1-2.589-.357,7.315,7.315,0,0,1-2.289-1.076,5.6,5.6,0,0,1-1.632-1.795,4.975,4.975,0,0,1-.619-2.527h3.164a3.306,3.306,0,0,0,.307,1.482,2.765,2.765,0,0,0,.838,1.013,3.508,3.508,0,0,0,1.257.575,6.43,6.43,0,0,0,1.564.181,3.9,3.9,0,0,0,2.483-.669A2.159,2.159,0,0,0,1350.759,758.164Z" transform="translate(-1294.585 -744.393)" fill="#e2f3f3"/>
          <path id="Path_171033" data-name="Path 171033" d="M1430.294,757.164v6.767h-3.165V745.719h6.967a8.51,8.51,0,0,1,2.821.432,5.982,5.982,0,0,1,2.083,1.207,5.142,5.142,0,0,1,1.294,1.839,5.942,5.942,0,0,1,.444,2.314,6.052,6.052,0,0,1-.444,2.377,4.707,4.707,0,0,1-1.294,1.776,5.887,5.887,0,0,1-2.083,1.113,9.394,9.394,0,0,1-2.821.388Zm0-2.539h3.8a4.855,4.855,0,0,0,1.57-.225,2.853,2.853,0,0,0,1.082-.638,2.454,2.454,0,0,0,.619-.982,3.839,3.839,0,0,0,.194-1.244,3.89,3.89,0,0,0-.194-1.226,2.811,2.811,0,0,0-.619-1.044,3.016,3.016,0,0,0-1.082-.726,4.139,4.139,0,0,0-1.57-.269h-3.8Z" transform="translate(-1365.013 -745.469)" fill="#e2f3f3"/>
          <path id="Path_171034" data-name="Path 171034" d="M1525.937,754.224a11.817,11.817,0,0,1-.544,3.721,8.11,8.11,0,0,1-1.532,2.789,6.644,6.644,0,0,1-2.376,1.757,8,8,0,0,1-6.141,0,6.824,6.824,0,0,1-2.4-1.757,8.085,8.085,0,0,1-1.564-2.789,11.577,11.577,0,0,1-.556-3.721V753.3a11.636,11.636,0,0,1,.556-3.727,8.265,8.265,0,0,1,1.551-2.8,6.675,6.675,0,0,1,2.383-1.763,8.013,8.013,0,0,1,6.148,0,6.661,6.661,0,0,1,2.389,1.763,8.114,8.114,0,0,1,1.539,2.8,11.877,11.877,0,0,1,.544,3.727Zm-3.165-.951a11.118,11.118,0,0,0-.294-2.7,5.751,5.751,0,0,0-.857-1.958,3.715,3.715,0,0,0-1.382-1.195,4.124,4.124,0,0,0-1.857-.406,4.028,4.028,0,0,0-1.826.406,3.778,3.778,0,0,0-1.382,1.195,5.844,5.844,0,0,0-.876,1.958,10.68,10.68,0,0,0-.306,2.7v.951a10.751,10.751,0,0,0,.306,2.7,5.831,5.831,0,0,0,.882,1.97,3.79,3.79,0,0,0,1.394,1.2,4.065,4.065,0,0,0,1.832.406,3.722,3.722,0,0,0,3.234-1.6,8.073,8.073,0,0,0,1.132-4.678Z" transform="translate(-1432.913 -744.393)" fill="#e2f3f3"/>
          <path id="Path_171035" data-name="Path 171035" d="M1614.272,756.914h-3.527v7.017h-3.165V745.719h6.4a10,10,0,0,1,2.789.356,5.739,5.739,0,0,1,2.07,1.051,4.46,4.46,0,0,1,1.282,1.72,6.017,6.017,0,0,1,.438,2.377,5.121,5.121,0,0,1-.881,3.058,5.612,5.612,0,0,1-2.458,1.9l4.09,7.592v.163h-3.39Zm-3.527-2.539H1614a4.473,4.473,0,0,0,1.488-.225,2.967,2.967,0,0,0,1.063-.625,2.549,2.549,0,0,0,.638-.951,3.345,3.345,0,0,0,.213-1.213,3.811,3.811,0,0,0-.2-1.27,2.527,2.527,0,0,0-.613-.976,2.729,2.729,0,0,0-1.057-.625,4.817,4.817,0,0,0-1.544-.219h-3.24Z" transform="translate(-1511.404 -745.469)" fill="#e2f3f3"/>
          <path id="Path_171036" data-name="Path 171036" d="M1696.582,748.271H1690.9v15.66h-3.14v-15.66h-5.628v-2.552h14.447Z" transform="translate(-1571.887 -745.469)" fill="#e2f3f3"/>
        </g>
        <g id="Group_41974" data-name="Group 41974" transform="translate(51.752 189.917)">
          <path id="Path_171037" data-name="Path 171037" d="M1380.649,1670.687h-25.112a1.464,1.464,0,0,1-1.465-1.464h0a1.465,1.465,0,0,1,1.465-1.465h25.112a1.465,1.465,0,0,1,1.464,1.465h0A1.464,1.464,0,0,1,1380.649,1670.687Z" transform="translate(-1336.18 -1667.758)" fill="#fff"/>
          <path id="Path_171038" data-name="Path 171038" d="M1321.635,1707.674h-60.9a1.465,1.465,0,0,1-1.464-1.464h0a1.465,1.465,0,0,1,1.464-1.465h60.9a1.465,1.465,0,0,1,1.465,1.465h0A1.465,1.465,0,0,1,1321.635,1707.674Z" transform="translate(-1259.273 -1697.764)" fill="#fff"/>
        </g>
        <g id="Group_41976" data-name="Group 41976" transform="translate(24.102 52.379)">
          <g id="Group_41975" data-name="Group 41975">
            <path id="Path_171039" data-name="Path 171039" d="M1172.343,1058.193a59.565,59.565,0,1,1,42.118-17.446A59.174,59.174,0,0,1,1172.343,1058.193Zm0-118.473A58.908,58.908,0,1,0,1214,956.974,58.524,58.524,0,0,0,1172.343,939.72Z" transform="translate(-1112.779 -939.065)" fill="#fff"/>
          </g>
          <path id="Path_171040" data-name="Path 171040" d="M1270.833,1049.365a48.1,48.1,0,0,1-.772,8.6,47.773,47.773,0,0,1-90.669,10.732,46.954,46.954,0,0,1-2.432-6.868,48.1,48.1,0,0,1-.562-22.63c.007-.038.017-.074.024-.112a47.889,47.889,0,0,1,18.642-28.411q1.472-1.069,3.03-2.025a47.5,47.5,0,0,1,24.981-7.05q1.823,0,3.609.136a47.442,47.442,0,0,1,23.654,8.407h0a47.946,47.946,0,0,1,13.1,13.679q1.1,1.733,2.049,3.562a47.549,47.549,0,0,1,5.344,21.977Z" transform="translate(-1163.51 -989.8)" fill="#e2f3f3"/>
          <path id="Path_171041" data-name="Path 171041" d="M1211.507,1058.286c-1.906,3.018.8,8.26-4.922,6.83s-9.212-2.065-9.529,1.11,4.288,3.178,4.288,6.513-2.066,4.438-5.241,2.854-4.09-3.888-7.783-2.458-5.837.476-6.671-2.382a4.174,4.174,0,0,0-.593-1.251c.007-.038.017-.074.024-.112a47.889,47.889,0,0,1,18.642-28.412q1.472-1.069,3.03-2.025a6.281,6.281,0,0,1,4.786,2.5c3.335,4.131,5.558,2.065,4.765,6.83s.476,5.4,3.176,5.241,5.877-.16,6.194,1.906S1213.413,1055.267,1211.507,1058.286Z" transform="translate(-1168.169 -1020.099)" fill="#00a1a3" opacity="0.5"/>
          <path id="Path_171042" data-name="Path 171042" d="M1341.676,1253.471s-4.208,1.35-5.32-1.588.159-3.574-3.573-4.447-4.05-3.415-6.432-3.1-1.191,1.271-3.97,3.335-5.321,1.112-5.241,4.923,4.209,4.407,5.043,6.909-.6,3.574,1.191,5.479,5.122,1.072,3.573,3.693-3.931,4.646-2.739,8.7.357,4.288,2.382,7.147,5.956,3.812,6.552,1.906-2.74-4.407-1.668-6.313,2.859-.6,3.573-3.455,3.613-2.859,3.851-4.844-3.494-5-2.065-6.273,4.288,2.3,6.512-.874.714-5.717,3.018-8.735S1343.265,1251.724,1341.676,1253.471Z" transform="translate(-1278.565 -1186.697)" fill="#00a1a3" opacity="0.5"/>
          <path id="Path_171043" data-name="Path 171043" d="M1522.992,1168.117a48.1,48.1,0,0,1-.772,8.6,47.5,47.5,0,0,1-7.538,18.323,5.452,5.452,0,0,1-3.819-.1c-5.956-2.382-1.548-8.815.834-12.031s-3.693-1.787-8.1-4.765.476-10.959-4.05-9.648-10.006,2.978-12.626-1.429,2.382-5.122.119-8.815,1.311-5.837,5.837-6.194,3.931-3.574,9.529-4.05,5.479,6.671,11.673,6.194,5.915.953,5.915.953a2.883,2.883,0,0,1,1.293.272A47.839,47.839,0,0,1,1522.992,1168.117Z" transform="translate(-1415.669 -1108.552)" fill="#00a1a3" opacity="0.5"/>
          <path id="Path_171044" data-name="Path 171044" d="M1528.641,1064.1c-5.151,2.506-7.218-4.31-11.621-2.261-4.438,2.066-3.662-1.906-7.154-4.448s-10.483,2.065-10.166-1.906,5.558-2.859,6.671-6.034,6.194-2.382,6.194-2.382a3.449,3.449,0,0,1,.925-.21s0,0,0,0a47.951,47.951,0,0,1,13.1,13.679Q1527.689,1062.274,1528.641,1064.1Z" transform="translate(-1426.661 -1026.514)" fill="#00a1a3" opacity="0.5"/>
          <path id="Path_171045" data-name="Path 171045" d="M1369.1,1042.071s2.7-3.9-1.588-5.045-4.209.355-7.544,0-4.646,2.226-2.144,5.045,4.526,8.229,6.79,5.345S1366.443,1042.348,1369.1,1042.071Z" transform="translate(-1310.518 -1018.179)" fill="#00a1a3" opacity="0.5"/>
        </g>
      </g>
      <path id="Path_171046" data-name="Path 171046" d="M674.214,1804.715l-455.379-.157a.556.556,0,0,1-.555-.555v-.284a.557.557,0,0,1,.555-.555l455.379.157a.557.557,0,0,1,.555.555v.285A.557.557,0,0,1,674.214,1804.715Z" transform="translate(-57.826 -1346.977)" fill="#2e3552"/>
    </g>
  </g>
</svg>
