<svg id="svgexport-6_-_2022-10-05T031103.990" data-name="svgexport-6 - 2022-10-05T031103.990" xmlns="http://www.w3.org/2000/svg" width="72.644" height="72.644" viewBox="0 0 72.644 72.644">
  <g id="Group_39217" data-name="Group 39217" transform="translate(7.264 7.264)">
    <g id="Group_39216" data-name="Group 39216">
      <rect id="Rectangle_8876" data-name="Rectangle 8876" width="7.264" height="7.264"/>
    </g>
  </g>
  <g id="Group_39219" data-name="Group 39219" transform="translate(47.218)">
    <g id="Group_39218" data-name="Group 39218">
      <path id="Path_167605" data-name="Path 167605" d="M336.432,0V3.632H332.8V7.264h3.632V21.793h3.632v3.632h-3.632v3.632H343.7V21.793h10.9v3.632h3.632V0Zm18.161,18.161H340.064V3.632h14.529Z" transform="translate(-332.8)"/>
    </g>
  </g>
  <g id="Group_39221" data-name="Group 39221" transform="translate(58.115 7.264)">
    <g id="Group_39220" data-name="Group 39220">
      <rect id="Rectangle_8877" data-name="Rectangle 8877" width="7.264" height="7.264"/>
    </g>
  </g>
  <g id="Group_39223" data-name="Group 39223" transform="translate(7.264 58.115)">
    <g id="Group_39222" data-name="Group 39222">
      <rect id="Rectangle_8878" data-name="Rectangle 8878" width="7.264" height="7.264"/>
    </g>
  </g>
  <g id="Group_39225" data-name="Group 39225" transform="translate(50.85 50.85)">
    <g id="Group_39224" data-name="Group 39224">
      <rect id="Rectangle_8879" data-name="Rectangle 8879" width="3.632" height="3.632"/>
    </g>
  </g>
  <g id="Group_39227" data-name="Group 39227" transform="translate(32.69 69.011)">
    <g id="Group_39226" data-name="Group 39226">
      <rect id="Rectangle_8880" data-name="Rectangle 8880" width="3.632" height="3.632"/>
    </g>
  </g>
  <g id="Group_39229" data-name="Group 39229" transform="translate(36.322 54.483)">
    <g id="Group_39228" data-name="Group 39228">
      <rect id="Rectangle_8881" data-name="Rectangle 8881" width="3.632" height="3.632"/>
    </g>
  </g>
  <g id="Group_39231" data-name="Group 39231" transform="translate(36.322 61.747)">
    <g id="Group_39230" data-name="Group 39230">
      <rect id="Rectangle_8882" data-name="Rectangle 8882" width="3.632" height="3.632"/>
    </g>
  </g>
  <g id="Group_39233" data-name="Group 39233" transform="translate(69.011 43.586)">
    <g id="Group_39232" data-name="Group 39232">
      <rect id="Rectangle_8883" data-name="Rectangle 8883" width="3.632" height="3.632"/>
    </g>
  </g>
  <g id="Group_39235" data-name="Group 39235" transform="translate(0 43.586)">
    <g id="Group_39234" data-name="Group 39234">
      <rect id="Rectangle_8884" data-name="Rectangle 8884" width="3.632" height="3.632"/>
    </g>
  </g>
  <g id="Group_39237" data-name="Group 39237" transform="translate(0 25.425)">
    <g id="Group_39236" data-name="Group 39236">
      <rect id="Rectangle_8885" data-name="Rectangle 8885" width="3.632" height="3.632"/>
    </g>
  </g>
  <g id="Group_39239" data-name="Group 39239" transform="translate(32.69 3.632)">
    <g id="Group_39238" data-name="Group 39238">
      <path id="Path_167606" data-name="Path 167606" d="M237.664,25.6v3.632H230.4v3.632h10.9V25.6Z" transform="translate(-230.4 -25.6)"/>
    </g>
  </g>
  <g id="Group_39241" data-name="Group 39241" transform="translate(25.425 29.057)">
    <g id="Group_39240" data-name="Group 39240">
      <path id="Path_167607" data-name="Path 167607" d="M222.786,204.8v3.632h-7.264v3.632h-10.9v-3.632h-3.632v3.632h-7.264V215.7h10.9v3.632h-10.9V215.7H190.1v3.632h-3.632V215.7h-3.632v3.632H179.2v3.632h7.264v3.632H190.1v-3.632h7.264v3.632h-3.632v3.632h3.632v7.264h3.632v3.632h3.632V237.49h10.9v-7.264h3.632v-3.632h-3.632v-7.264h-7.264V215.7h7.264v3.632h3.632V215.7h3.632v-3.632h3.632V204.8Zm-10.9,18.161v10.9h-10.9v-10.9Z" transform="translate(-179.2 -204.8)"/>
    </g>
  </g>
  <g id="Group_39243" data-name="Group 39243" transform="translate(39.954 21.793)">
    <g id="Group_39242" data-name="Group 39242">
      <path id="Path_167608" data-name="Path 167608" d="M288.864,153.6h-3.632v3.632H281.6V164.5h3.632v-3.632h3.632v-3.632H292.5V153.6Z" transform="translate(-281.6 -153.6)"/>
    </g>
  </g>
  <g id="Group_39245" data-name="Group 39245" transform="translate(39.954 69.011)">
    <g id="Group_39244" data-name="Group 39244">
      <rect id="Rectangle_8886" data-name="Rectangle 8886" width="7.264" height="3.632"/>
    </g>
  </g>
  <g id="Group_39247" data-name="Group 39247" transform="translate(29.057 3.632)">
    <g id="Group_39246" data-name="Group 39246">
      <rect id="Rectangle_8887" data-name="Rectangle 8887" width="3.632" height="3.632"/>
    </g>
  </g>
  <g id="Group_39249" data-name="Group 39249" transform="translate(58.115 29.057)">
    <g id="Group_39248" data-name="Group 39248">
      <rect id="Rectangle_8888" data-name="Rectangle 8888" width="3.632" height="3.632"/>
    </g>
  </g>
  <g id="Group_39251" data-name="Group 39251" transform="translate(61.747 25.425)">
    <g id="Group_39250" data-name="Group 39250">
      <rect id="Rectangle_8889" data-name="Rectangle 8889" width="3.632" height="3.632"/>
    </g>
  </g>
  <g id="Group_39253" data-name="Group 39253" transform="translate(14.529 43.586)">
    <g id="Group_39252" data-name="Group 39252">
      <rect id="Rectangle_8890" data-name="Rectangle 8890" width="3.632" height="3.632"/>
    </g>
  </g>
  <g id="Group_39255" data-name="Group 39255" transform="translate(0 47.218)">
    <g id="Group_39254" data-name="Group 39254">
      <path id="Path_167609" data-name="Path 167609" d="M21.793,354.593V340.064h3.632V332.8H21.793v3.632H10.9V332.8H3.632v3.632H0v21.793H29.057v-3.632Zm-3.632,0H3.632V340.064H18.161Z" transform="translate(0 -332.8)"/>
    </g>
  </g>
  <g id="Group_39257" data-name="Group 39257" transform="translate(21.793 21.793)">
    <g id="Group_39256" data-name="Group 39256">
      <rect id="Rectangle_8891" data-name="Rectangle 8891" width="3.632" height="3.632"/>
    </g>
  </g>
  <g id="Group_39259" data-name="Group 39259">
    <g id="Group_39258" data-name="Group 39258">
      <path id="Path_167610" data-name="Path 167610" d="M25.425,0H0V21.793H3.632v3.632H7.264V21.793H10.9v3.632h3.632V21.793h7.264V14.529h3.632V10.9H21.793V3.632h7.264V0ZM18.161,18.161H3.632V3.632H18.161Z"/>
    </g>
  </g>
  <g id="Group_39261" data-name="Group 39261" transform="translate(43.586 10.897)">
    <g id="Group_39260" data-name="Group 39260">
      <rect id="Rectangle_8892" data-name="Rectangle 8892" width="3.632" height="3.632"/>
    </g>
  </g>
  <g id="Group_39263" data-name="Group 39263" transform="translate(36.322)">
    <g id="Group_39262" data-name="Group 39262">
      <rect id="Rectangle_8893" data-name="Rectangle 8893" width="3.632" height="3.632"/>
    </g>
  </g>
  <g id="Group_39265" data-name="Group 39265" transform="translate(0 14.529)">
    <g id="Group_39264" data-name="Group 39264">
      <path id="Path_167611" data-name="Path 167611" d="M43.586,109.664v-3.632H39.954V102.4H36.322v3.632H29.057V102.4H25.425v7.264h3.632v7.264h-10.9V113.3H14.529v3.632H3.632v3.632H10.9v3.632H0v3.632H10.9v3.632h3.632v-3.632h3.632v3.632h3.632v-3.632h7.264v-3.632H25.425v-3.632H32.69v3.632h7.264v-3.632H36.322v-3.632H32.69v-7.264h10.9ZM21.793,124.193H14.529v-3.632h7.264Z" transform="translate(0 -102.4)"/>
    </g>
  </g>
  <g id="Group_39267" data-name="Group 39267" transform="translate(25.425 50.85)">
    <g id="Group_39266" data-name="Group 39266">
      <path id="Path_167612" data-name="Path 167612" d="M186.464,365.664V358.4h-3.632v3.632H179.2v3.632h3.632V369.3H179.2v3.632h7.264V369.3H190.1v-3.632Z" transform="translate(-179.2 -358.4)"/>
    </g>
  </g>
  <g id="Group_39269" data-name="Group 39269" transform="translate(50.85 61.747)">
    <g id="Group_39268" data-name="Group 39268">
      <path id="Path_167613" data-name="Path 167613" d="M372.929,438.832V435.2H369.3v3.632H358.4v3.632h7.264V446.1H369.3v-3.632h7.264V446.1h3.632v-7.264Z" transform="translate(-358.4 -435.2)"/>
    </g>
  </g>
  <g id="Group_39271" data-name="Group 39271" transform="translate(65.379 50.85)">
    <g id="Group_39270" data-name="Group 39270">
      <path id="Path_167614" data-name="Path 167614" d="M464.432,358.4v3.632H460.8v3.632h7.264V358.4Z" transform="translate(-460.8 -358.4)"/>
    </g>
  </g>
</svg>
