<svg xmlns="http://www.w3.org/2000/svg" width="19.28" height="21.462" viewBox="0 0 19.28 21.462">
  <path id="Icon_ionic-ios-arrow-round-down" data-name="Icon ionic-ios-arrow-round-down" d="M11.7,11.41a.812.812,0,0,0-1.144-.006L6.776,15.176V.8A.808.808,0,0,0,5.161.8V15.176L1.376,11.4A.818.818,0,0,0,.232,11.4a.8.8,0,0,0,.006,1.137L5.4,17.662h0a.907.907,0,0,0,.255.168.771.771,0,0,0,.311.062.81.81,0,0,0,.566-.23l5.158-5.121A.792.792,0,0,0,11.7,11.41Z" transform="translate(19.28 15.495) rotate(150)" fill="#50cd89"/>
</svg>
