<svg xmlns="http://www.w3.org/2000/svg" width="9" height="13.494" viewBox="0 0 9 13.494">
  <path id="Icon_ionic-ios-arrow-round-down" data-name="Icon ionic-ios-arrow-round-down" d="M20.075,16.481a.612.612,0,0,0-.862,0l-2.854,2.845V8.48a.609.609,0,0,0-1.219,0V19.321l-2.854-2.85a.617.617,0,0,0-.862,0,.607.607,0,0,0,0,.858l3.89,3.862h0a.684.684,0,0,0,.192.127.582.582,0,0,0,.234.047.611.611,0,0,0,.427-.173l3.89-3.862A.6.6,0,0,0,20.075,16.481Z" transform="translate(-11.247 -7.875)" fill="#f56f70"/>
</svg>
