<svg xmlns="http://www.w3.org/2000/svg" width="492.451" height="307.8" viewBox="0 0 492.451 307.8">
  <g id="Group_41988" data-name="Group 41988" transform="translate(-244.474 -191.518)">
    <path id="Path_171049" data-name="Path 171049" d="M270.931,498.72c-22.68-16.044-43.119-49.669-6.007-119.76s-23.286-78.777,73.048-141.5c97.593-63.541,226.116-66.978,323.411,26.584,93.3,89.717,82.766,188.734,55.79,234.325C500.331,498.371,270.931,498.72,270.931,498.72Z" transform="translate(0)" fill="#f3f6f9"/>
    <g id="Group_42021" data-name="Group 42021" transform="translate(244.774 207.208)">
      <g id="Group_42000" data-name="Group 42000" transform="translate(190.703 79.284)">
        <g id="Group_41989" data-name="Group 41989">
          <path id="Path_171050" data-name="Path 171050" d="M1385.346,708.988V909.454a5.732,5.732,0,0,1-5.717,5.712H1279.386a5.73,5.73,0,0,1-5.714-5.712V708.988a5.73,5.73,0,0,1,5.714-5.715h100.243A5.733,5.733,0,0,1,1385.346,708.988Z" transform="translate(-1273.672 -703.273)" fill="#00a1a3"/>
          <g id="Group_41988-2" data-name="Group 41988" transform="translate(36.887 5.762)">
            <path id="Path_171051" data-name="Path 171051" d="M1530.372,736.58h-29.03a1.133,1.133,0,0,1-1.129-1.13h0a1.133,1.133,0,0,1,1.129-1.13h29.03a1.133,1.133,0,0,1,1.129,1.13h0A1.133,1.133,0,0,1,1530.372,736.58Z" transform="translate(-1495.057 -734.321)" fill="#5e92dd" opacity="0.4"/>
            <path id="Path_171052" data-name="Path 171052" d="M1473.562,736.58h0a1.133,1.133,0,0,1-1.13-1.13h0a1.133,1.133,0,0,1,1.13-1.13h0a1.133,1.133,0,0,1,1.13,1.13h0A1.133,1.133,0,0,1,1473.562,736.58Z" transform="translate(-1472.432 -734.321)" fill="#5e92dd" opacity="0.4"/>
          </g>
          <path id="Path_171053" data-name="Path 171053" d="M1557.3,1749.986a7.285,7.285,0,1,1-7.286-7.283A7.261,7.261,0,0,1,1557.3,1749.986Z" transform="translate(-1492.798 -1549.801)" fill="#bee6e9"/>
          <rect id="Rectangle_18732" data-name="Rectangle 18732" width="99.028" height="176.267" transform="translate(6.687 13.053)" fill="#f3f6f9"/>
          <path id="Path_171054" data-name="Path 171054" d="M1555.189,1760.1a7.284,7.284,0,1,1-9.077-11.277A16.33,16.33,0,0,0,1555.189,1760.1Z" transform="translate(-1492.798 -1554.781)" fill="#89d8d9"/>
        </g>
        <rect id="Rectangle_18733" data-name="Rectangle 18733" width="98.838" height="85.857" transform="translate(6.687 64.376)" fill="#aaa"/>
        <g id="Group_41990" data-name="Group 41990" transform="translate(19.418 76.159)">
          <path id="Path_171055" data-name="Path 171055" d="M1449.171,1157.808H1381a2.7,2.7,0,0,1-2.7-2.7v-38.765a2.7,2.7,0,0,1,2.7-2.7h68.17a2.7,2.7,0,0,1,2.7,2.7v38.765A2.7,2.7,0,0,1,1449.171,1157.808Zm-68.17-43.65a2.191,2.191,0,0,0-2.188,2.188v38.765A2.191,2.191,0,0,0,1381,1157.3h68.17a2.191,2.191,0,0,0,2.188-2.188v-38.765a2.19,2.19,0,0,0-2.188-2.188Z" transform="translate(-1378.303 -1113.648)" fill="#ebf3fa"/>
        </g>
        <g id="Group_41999" data-name="Group 41999" transform="translate(25.429 80.098)">
          <path id="Path_171056" data-name="Path 171056" d="M1428.734,1292.325l-15.719.123a1.213,1.213,0,0,1-1.219-1.2v-.151a1.213,1.213,0,0,1,1.2-1.219l15.718-.122a1.213,1.213,0,0,1,1.219,1.2v.151A1.212,1.212,0,0,1,1428.734,1292.325Z" transform="translate(-1411.591 -1261.012)" fill="#fff"/>
          <path id="Path_171057" data-name="Path 171057" d="M1540.347,1291.456l-15.718.123a1.213,1.213,0,0,1-1.219-1.2v-.151a1.213,1.213,0,0,1,1.2-1.219l15.718-.122a1.213,1.213,0,0,1,1.219,1.2v.151A1.213,1.213,0,0,1,1540.347,1291.456Z" transform="translate(-1502.49 -1260.304)" fill="#fff"/>
          <g id="Group_41991" data-name="Group 41991" transform="translate(0.093 13.193)">
            <path id="Path_171058" data-name="Path 171058" d="M1414.12,1210.286a2.927,2.927,0,0,1-.288,1.411,1.325,1.325,0,0,1-2.329.018,3.48,3.48,0,0,1-.027-2.812,1.334,1.334,0,0,1,2.34-.018A2.936,2.936,0,0,1,1414.12,1210.286Zm-.721,0a2.9,2.9,0,0,0-.129-.9q-.193-.549-.62-.545t-.617.549a2.807,2.807,0,0,0-.12.912q.012,1.467.76,1.461.432,0,.611-.561A2.9,2.9,0,0,0,1413.4,1210.288Z" transform="translate(-1411.192 -1207.785)" fill="#fff"/>
            <path id="Path_171059" data-name="Path 171059" d="M1431.511,1210.151a2.923,2.923,0,0,1-.289,1.411,1.325,1.325,0,0,1-2.329.018,3.479,3.479,0,0,1-.027-2.811,1.334,1.334,0,0,1,2.34-.018A2.935,2.935,0,0,1,1431.511,1210.151Zm-.721,0a2.9,2.9,0,0,0-.129-.9q-.193-.549-.62-.545t-.617.549a2.81,2.81,0,0,0-.121.912q.011,1.467.76,1.461.432,0,.611-.56A2.9,2.9,0,0,0,1430.791,1210.153Z" transform="translate(-1425.356 -1207.675)" fill="#fff"/>
            <path id="Path_171060" data-name="Path 171060" d="M1448.9,1210.015a2.924,2.924,0,0,1-.289,1.411,1.325,1.325,0,0,1-2.329.018,3.478,3.478,0,0,1-.027-2.812,1.334,1.334,0,0,1,2.34-.018A2.934,2.934,0,0,1,1448.9,1210.015Zm-.721,0a2.9,2.9,0,0,0-.129-.9q-.193-.548-.62-.545t-.617.549a2.8,2.8,0,0,0-.12.912q.011,1.467.76,1.461.432,0,.611-.56A2.888,2.888,0,0,0,1448.181,1210.018Z" transform="translate(-1439.518 -1207.565)" fill="#fff"/>
            <path id="Path_171061" data-name="Path 171061" d="M1466.292,1209.88a2.925,2.925,0,0,1-.289,1.411,1.325,1.325,0,0,1-2.329.018,3.48,3.48,0,0,1-.027-2.812,1.334,1.334,0,0,1,2.34-.018A2.937,2.937,0,0,1,1466.292,1209.88Zm-.721,0a2.9,2.9,0,0,0-.129-.9q-.193-.549-.62-.546t-.617.549a2.8,2.8,0,0,0-.12.912q.011,1.467.76,1.461.433,0,.611-.56A2.889,2.889,0,0,0,1465.571,1209.883Z" transform="translate(-1453.682 -1207.455)" fill="#fff"/>
            <path id="Path_171062" data-name="Path 171062" d="M1492.647,1209.675a2.924,2.924,0,0,1-.289,1.411,1.325,1.325,0,0,1-2.329.018,3.478,3.478,0,0,1-.028-2.811,1.334,1.334,0,0,1,2.341-.018A2.943,2.943,0,0,1,1492.647,1209.675Zm-.721,0a2.907,2.907,0,0,0-.129-.9q-.193-.549-.62-.545t-.617.549a2.8,2.8,0,0,0-.121.912q.012,1.467.76,1.461.433,0,.611-.56A2.88,2.88,0,0,0,1491.927,1209.677Z" transform="translate(-1475.146 -1207.288)" fill="#fff"/>
            <path id="Path_171063" data-name="Path 171063" d="M1510.038,1209.54a2.922,2.922,0,0,1-.288,1.411,1.325,1.325,0,0,1-2.329.018,3.477,3.477,0,0,1-.027-2.812,1.334,1.334,0,0,1,2.34-.018A2.938,2.938,0,0,1,1510.038,1209.54Zm-.721,0a2.9,2.9,0,0,0-.129-.9q-.192-.549-.62-.545t-.617.55a2.8,2.8,0,0,0-.121.912q.012,1.467.76,1.461.433,0,.611-.561A2.89,2.89,0,0,0,1509.317,1209.542Z" transform="translate(-1489.309 -1207.178)" fill="#fff"/>
            <path id="Path_171064" data-name="Path 171064" d="M1527.429,1209.4a2.92,2.92,0,0,1-.288,1.411,1.325,1.325,0,0,1-2.329.018,3.479,3.479,0,0,1-.028-2.812,1.334,1.334,0,0,1,2.34-.018A2.931,2.931,0,0,1,1527.429,1209.4Zm-.72,0a2.9,2.9,0,0,0-.129-.9q-.193-.549-.62-.545t-.617.549a2.811,2.811,0,0,0-.12.912q.011,1.467.76,1.461.433,0,.611-.56A2.894,2.894,0,0,0,1526.708,1209.406Z" transform="translate(-1503.473 -1207.067)" fill="#fff"/>
            <path id="Path_171065" data-name="Path 171065" d="M1544.82,1209.27a2.923,2.923,0,0,1-.289,1.411,1.325,1.325,0,0,1-2.329.018,3.48,3.48,0,0,1-.027-2.812,1.334,1.334,0,0,1,2.34-.018A2.938,2.938,0,0,1,1544.82,1209.27Zm-.721,0a2.894,2.894,0,0,0-.129-.9q-.193-.549-.62-.546t-.617.549a2.8,2.8,0,0,0-.121.912q.011,1.467.76,1.461.432,0,.611-.56A2.887,2.887,0,0,0,1544.1,1209.273Z" transform="translate(-1517.636 -1206.958)" fill="#fff"/>
            <path id="Path_171066" data-name="Path 171066" d="M1571.174,1209.064a2.926,2.926,0,0,1-.288,1.411,1.325,1.325,0,0,1-2.329.018,3.479,3.479,0,0,1-.028-2.812,1.334,1.334,0,0,1,2.34-.018A2.941,2.941,0,0,1,1571.174,1209.064Zm-.721,0a2.9,2.9,0,0,0-.129-.9q-.193-.549-.62-.546t-.617.549a2.809,2.809,0,0,0-.121.912q.012,1.467.76,1.461.432,0,.611-.56A2.9,2.9,0,0,0,1570.454,1209.067Z" transform="translate(-1539.099 -1206.79)" fill="#fff"/>
            <path id="Path_171067" data-name="Path 171067" d="M1588.565,1208.929a2.923,2.923,0,0,1-.289,1.411,1.325,1.325,0,0,1-2.329.018,3.477,3.477,0,0,1-.028-2.811,1.334,1.334,0,0,1,2.34-.019A2.941,2.941,0,0,1,1588.565,1208.929Zm-.721,0a2.9,2.9,0,0,0-.129-.9q-.193-.549-.62-.545t-.617.549a2.793,2.793,0,0,0-.12.912q.011,1.467.76,1.461.433,0,.611-.56A2.889,2.889,0,0,0,1587.844,1208.931Z" transform="translate(-1553.262 -1206.68)" fill="#fff"/>
            <path id="Path_171068" data-name="Path 171068" d="M1605.955,1208.793a2.927,2.927,0,0,1-.289,1.411,1.325,1.325,0,0,1-2.329.018,3.478,3.478,0,0,1-.027-2.812,1.334,1.334,0,0,1,2.34-.018A2.942,2.942,0,0,1,1605.955,1208.793Zm-.721,0a2.9,2.9,0,0,0-.129-.9q-.193-.549-.62-.545t-.617.549a2.808,2.808,0,0,0-.12.912q.012,1.467.76,1.461.433,0,.611-.561A2.882,2.882,0,0,0,1605.234,1208.8Z" transform="translate(-1567.425 -1206.57)" fill="#fff"/>
            <path id="Path_171069" data-name="Path 171069" d="M1623.346,1208.658a2.926,2.926,0,0,1-.288,1.411,1.325,1.325,0,0,1-2.329.018,3.482,3.482,0,0,1-.028-2.812,1.335,1.335,0,0,1,2.341-.018A2.937,2.937,0,0,1,1623.346,1208.658Zm-.721,0a2.9,2.9,0,0,0-.129-.9q-.193-.549-.62-.545t-.617.549a2.8,2.8,0,0,0-.12.913q.012,1.466.76,1.461.432,0,.611-.561A2.89,2.89,0,0,0,1622.625,1208.66Z" transform="translate(-1581.589 -1206.459)" fill="#fff"/>
            <path id="Path_171070" data-name="Path 171070" d="M1649.7,1208.453a2.923,2.923,0,0,1-.289,1.411,1.325,1.325,0,0,1-2.329.018,3.479,3.479,0,0,1-.027-2.812,1.334,1.334,0,0,1,2.34-.018A2.936,2.936,0,0,1,1649.7,1208.453Zm-.721,0a2.9,2.9,0,0,0-.129-.9q-.193-.548-.62-.545t-.617.549a2.8,2.8,0,0,0-.12.912q.011,1.467.76,1.461.432,0,.611-.56A2.88,2.88,0,0,0,1648.98,1208.455Z" transform="translate(-1603.053 -1206.292)" fill="#fff"/>
            <path id="Path_171071" data-name="Path 171071" d="M1667.091,1208.317a2.919,2.919,0,0,1-.288,1.411,1.324,1.324,0,0,1-2.329.018,3.474,3.474,0,0,1-.027-2.811,1.334,1.334,0,0,1,2.34-.018A2.936,2.936,0,0,1,1667.091,1208.317Zm-.721,0a2.9,2.9,0,0,0-.129-.9q-.193-.549-.62-.545t-.617.55a2.814,2.814,0,0,0-.12.912q.012,1.467.76,1.461.432,0,.611-.56A2.9,2.9,0,0,0,1666.371,1208.319Z" transform="translate(-1617.216 -1206.182)" fill="#fff"/>
            <path id="Path_171072" data-name="Path 171072" d="M1684.482,1208.181a2.92,2.92,0,0,1-.288,1.411,1.324,1.324,0,0,1-2.329.018,3.478,3.478,0,0,1-.028-2.812,1.334,1.334,0,0,1,2.34-.018A2.935,2.935,0,0,1,1684.482,1208.181Zm-.721,0a2.891,2.891,0,0,0-.129-.9q-.193-.549-.62-.545t-.617.549a2.816,2.816,0,0,0-.12.912q.011,1.467.76,1.461.432,0,.611-.56A2.887,2.887,0,0,0,1683.761,1208.184Z" transform="translate(-1631.379 -1206.072)" fill="#fff"/>
            <path id="Path_171073" data-name="Path 171073" d="M1701.873,1208.047a2.928,2.928,0,0,1-.289,1.411,1.325,1.325,0,0,1-2.329.018,3.478,3.478,0,0,1-.028-2.812,1.334,1.334,0,0,1,2.34-.018A2.942,2.942,0,0,1,1701.873,1208.047Zm-.721,0a2.892,2.892,0,0,0-.129-.9q-.193-.549-.62-.545t-.617.549a2.8,2.8,0,0,0-.12.912q.012,1.467.76,1.461.432,0,.611-.56A2.892,2.892,0,0,0,1701.152,1208.049Z" transform="translate(-1645.542 -1205.962)" fill="#fff"/>
          </g>
          <path id="Path_171074" data-name="Path 171074" d="M1427.292,1150.169l-15.383.12a1.212,1.212,0,0,1-1.218-1.2h0a1.212,1.212,0,0,1,1.2-1.219l15.382-.12a1.213,1.213,0,0,1,1.219,1.2h0A1.213,1.213,0,0,1,1427.292,1150.169Z" transform="translate(-1410.691 -1145.361)" fill="#fff"/>
          <g id="Group_41996" data-name="Group 41996" transform="translate(59.794)">
            <g id="Group_41992" data-name="Group 41992" transform="translate(0 2.028)">
              <path id="Path_171075" data-name="Path 171075" d="M1733.722,1147.034a1.851,1.851,0,0,0-.417-1.158.2.2,0,0,0-.3-.013l-.071.074a.2.2,0,0,0-.013.259,1.358,1.358,0,0,1,.013,1.688.2.2,0,0,0,.017.259l.073.073a.2.2,0,0,0,.3-.017A1.852,1.852,0,0,0,1733.722,1147.034Z" transform="translate(-1732.881 -1145.802)" fill="#fff"/>
            </g>
            <g id="Group_41993" data-name="Group 41993" transform="translate(0.727 1.309)">
              <path id="Path_171076" data-name="Path 171076" d="M1737.907,1143.87a2.836,2.836,0,0,0-.728-1.879.2.2,0,0,0-.287,0l-.041.042a.2.2,0,0,0,0,.27,2.4,2.4,0,0,1,.025,3.156.2.2,0,0,0,.008.27l.041.041a.2.2,0,0,0,.288-.008A2.84,2.84,0,0,0,1737.907,1143.87Z" transform="translate(-1736.797 -1141.927)" fill="#fff"/>
            </g>
            <g id="Group_41994" data-name="Group 41994" transform="translate(1.375 0.68)">
              <path id="Path_171077" data-name="Path 171077" d="M1741.626,1141.1a3.716,3.716,0,0,0-.993-2.5.2.2,0,0,0-.287,0h0a.2.2,0,0,0,0,.271,3.326,3.326,0,0,1,.035,4.487.2.2,0,0,0,.007.271h0a.2.2,0,0,0,.286-.006A3.717,3.717,0,0,0,1741.626,1141.1Z" transform="translate(-1740.291 -1138.537)" fill="#fff"/>
            </g>
            <g id="Group_41995" data-name="Group 41995" transform="translate(1.963)">
              <path id="Path_171078" data-name="Path 171078" d="M1745.151,1138.111a4.655,4.655,0,0,0-1.282-3.176.2.2,0,0,0-.287,0l-.07.072a.2.2,0,0,0,0,.272,4.173,4.173,0,0,1,.044,5.691.2.2,0,0,0,.006.272l.071.071a.2.2,0,0,0,.287-.006A4.655,4.655,0,0,0,1745.151,1138.111Z" transform="translate(-1743.458 -1134.873)" fill="#fff"/>
            </g>
          </g>
          <g id="Group_41998" data-name="Group 41998" transform="translate(0.237 33.135)">
            <g id="Group_41997" data-name="Group 41997">
              <path id="Path_171079" data-name="Path 171079" d="M1413.381,1314.795a1.415,1.415,0,0,1-.139.68.639.639,0,0,1-1.123.009,1.68,1.68,0,0,1-.013-1.356.643.643,0,0,1,1.129-.009A1.422,1.422,0,0,1,1413.381,1314.795Zm-.348,0a1.4,1.4,0,0,0-.062-.437q-.093-.264-.3-.263c-.141,0-.24.089-.3.265a1.347,1.347,0,0,0-.058.44q.005.708.367.7.209,0,.295-.27A1.392,1.392,0,0,0,1413.033,1314.8Z" transform="translate(-1411.969 -1313.72)" fill="#fff"/>
              <path id="Path_171080" data-name="Path 171080" d="M1421.769,1314.73a1.412,1.412,0,0,1-.139.68.639.639,0,0,1-1.123.009,1.676,1.676,0,0,1-.013-1.356.644.644,0,0,1,1.129-.009A1.417,1.417,0,0,1,1421.769,1314.73Zm-.348,0a1.4,1.4,0,0,0-.062-.436q-.093-.264-.3-.263t-.3.265a1.342,1.342,0,0,0-.058.44q.005.708.367.7.208,0,.295-.271A1.39,1.39,0,0,0,1421.421,1314.731Z" transform="translate(-1418.8 -1313.668)" fill="#fff"/>
              <path id="Path_171081" data-name="Path 171081" d="M1429.328,1313.771a.211.211,0,0,1-.027.093l-.8,1.684c-.039.083-.09.124-.154.125a.139.139,0,0,1-.1-.04.132.132,0,0,1-.042-.1.215.215,0,0,1,.023-.1l.8-1.681q.058-.121.151-.121a.149.149,0,0,1,.1.036A.126.126,0,0,1,1429.328,1313.771Z" transform="translate(-1425.192 -1313.596)" fill="#fff"/>
              <path id="Path_171082" data-name="Path 171082" d="M1435.893,1314.619a1.412,1.412,0,0,1-.139.68.639.639,0,0,1-1.124.009,1.678,1.678,0,0,1-.013-1.356.643.643,0,0,1,1.129-.009A1.416,1.416,0,0,1,1435.893,1314.619Zm-.348,0a1.388,1.388,0,0,0-.062-.436q-.093-.265-.3-.263t-.3.265a1.349,1.349,0,0,0-.058.44q.005.708.367.7.208,0,.295-.27A1.4,1.4,0,0,0,1435.545,1314.62Z" transform="translate(-1430.303 -1313.577)" fill="#fff"/>
              <path id="Path_171083" data-name="Path 171083" d="M1444.281,1314.554a1.412,1.412,0,0,1-.139.68.639.639,0,0,1-1.124.009,1.679,1.679,0,0,1-.013-1.356.644.644,0,0,1,1.129-.009A1.421,1.421,0,0,1,1444.281,1314.554Zm-.348,0a1.413,1.413,0,0,0-.062-.437q-.093-.265-.3-.263t-.3.265a1.349,1.349,0,0,0-.058.44q.005.708.367.7c.139,0,.237-.091.295-.27A1.405,1.405,0,0,0,1443.933,1314.556Z" transform="translate(-1437.134 -1313.525)" fill="#fff"/>
              <path id="Path_171084" data-name="Path 171084" d="M1452.668,1314.488a1.414,1.414,0,0,1-.139.681.639.639,0,0,1-1.124.009,1.677,1.677,0,0,1-.013-1.356.643.643,0,0,1,1.129-.008A1.412,1.412,0,0,1,1452.668,1314.488Zm-.348,0a1.394,1.394,0,0,0-.063-.436c-.062-.177-.161-.264-.3-.263s-.24.089-.3.265a1.351,1.351,0,0,0-.058.44q.005.707.367.7.209,0,.295-.27A1.4,1.4,0,0,0,1452.32,1314.489Z" transform="translate(-1443.964 -1313.47)" fill="#fff"/>
              <path id="Path_171085" data-name="Path 171085" d="M1461.056,1314.423a1.413,1.413,0,0,1-.139.681.639.639,0,0,1-1.123.009,1.68,1.68,0,0,1-.013-1.356.644.644,0,0,1,1.129-.009A1.419,1.419,0,0,1,1461.056,1314.423Zm-.348,0a1.4,1.4,0,0,0-.062-.437q-.093-.264-.3-.263t-.3.265a1.346,1.346,0,0,0-.058.44q.006.708.367.7.209,0,.295-.27A1.4,1.4,0,0,0,1460.708,1314.425Z" transform="translate(-1450.796 -1313.418)" fill="#fff"/>
            </g>
          </g>
        </g>
      </g>
      <g id="Group_42006" data-name="Group 42006" transform="translate(66.799 48.315)">
        <g id="Group_42003" data-name="Group 42003" transform="translate(0 0)">
          <circle id="Ellipse_1997" data-name="Ellipse 1997" cx="44.376" cy="44.376" r="44.376" transform="translate(3.839 62.757) rotate(-45)" fill="#e2810e"/>
          <circle id="Ellipse_1998" data-name="Ellipse 1998" cx="44.376" cy="44.376" r="44.376" transform="translate(0 63.257) rotate(-45)" fill="#ffb93e"/>
          <g id="Group_42001" data-name="Group 42001" transform="translate(22.387 23.338)">
            <path id="Path_171086" data-name="Path 171086" d="M772.311,742.685a40.431,40.431,0,1,1,26.824-15.429A40.167,40.167,0,0,1,772.311,742.685Zm-10.116-77.8a38.02,38.02,0,1,0,42.6,32.8A38.063,38.063,0,0,0,762.2,664.889Z" transform="translate(-726.659 -662.153)" fill="#ffa412"/>
          </g>
          <g id="Group_42002" data-name="Group 42002" transform="translate(46.27 33.839)">
            <path id="Path_171087" data-name="Path 171087" d="M878.937,759.591a6.669,6.669,0,0,0-.4-2.316,4.87,4.87,0,0,0-1.236-1.805,9.21,9.21,0,0,0-2.194-1.481,24.356,24.356,0,0,0-3.273-1.312,63.69,63.69,0,0,1-6.036-2.363,20.126,20.126,0,0,1-4.657-2.88,11.838,11.838,0,0,1-3.031-3.855,13.358,13.358,0,0,1-.232-10.159,11.238,11.238,0,0,1,2.658-3.856,14.027,14.027,0,0,1,4.173-2.7,18.713,18.713,0,0,1,5.471-1.363l-.075-6.71,5.4-.06.076,6.8a16.776,16.776,0,0,1,5.283,1.478,12.682,12.682,0,0,1,6.649,7.311,16.883,16.883,0,0,1,.958,5.65l-9.755.109q-.042-3.763-1.734-5.61a5.711,5.711,0,0,0-4.494-1.816,7.26,7.26,0,0,0-2.611.453,4.917,4.917,0,0,0-1.793,1.18,4.586,4.586,0,0,0-1.027,1.753,6.736,6.736,0,0,0-.313,2.168,6.182,6.182,0,0,0,.361,2.1,4.571,4.571,0,0,0,1.184,1.728,9.226,9.226,0,0,0,2.211,1.48,31.2,31.2,0,0,0,3.409,1.421q3.287,1.186,5.986,2.441a20.366,20.366,0,0,1,4.641,2.912,11.431,11.431,0,0,1,4.153,9.127,12.212,12.212,0,0,1-.906,4.965,11.1,11.1,0,0,1-2.675,3.825,13.551,13.551,0,0,1-4.208,2.619,20.214,20.214,0,0,1-5.505,1.316l.07,6.24-5.367.06-.069-6.209a22.637,22.637,0,0,1-5.432-1.162,14.354,14.354,0,0,1-4.672-2.66,12.843,12.843,0,0,1-3.291-4.432,15.641,15.641,0,0,1-1.288-6.446l9.756-.109a9.638,9.638,0,0,0,.666,3.709,6.235,6.235,0,0,0,1.7,2.365,6.049,6.049,0,0,0,2.394,1.228,10.338,10.338,0,0,0,2.722.33,8.642,8.642,0,0,0,2.78-.438,5.773,5.773,0,0,0,2-1.152,4.6,4.6,0,0,0,1.2-1.723A5.6,5.6,0,0,0,878.937,759.591Z" transform="translate(-855.348 -718.735)" fill="#f0980a"/>
          </g>
        </g>
        <g id="Group_42005" data-name="Group 42005" transform="translate(230.128 0.499)">
          <path id="Path_171088" data-name="Path 171088" d="M1966.125,685.519a44.376,44.376,0,1,1,49.728,38.284A44.376,44.376,0,0,1,1966.125,685.519Z" transform="translate(-1943.534 -617.538)" fill="#e2810e"/>
          <circle id="Ellipse_1999" data-name="Ellipse 1999" cx="44.376" cy="44.376" r="44.376" transform="translate(0 62.758) rotate(-45)" fill="#ffb93e"/>
          <path id="Path_171089" data-name="Path 171089" d="M2083.424,745.838a18.061,18.061,0,0,1,10.522,3.49l2.042,1.436V740l-.735-.353a26.16,26.16,0,0,0-11.424-2.417c-7.728,0-14,2.5-18.652,7.432a24.681,24.681,0,0,0-5.863,10.7h-6.972v8h5.878c-.007.31-.017.619-.017.934,0,.392.01.779.022,1.164h-5.883v8h7.2a22.52,22.52,0,0,0,5.264,8.885c4.394,4.551,10.13,6.859,17.048,6.859a25.875,25.875,0,0,0,13.458-3.5l.632-.377V775.113l-2.077,1.566a17.929,17.929,0,0,1-10.936,3.868c-4.678,0-8.242-1.477-10.9-4.516a14.558,14.558,0,0,1-1.79-2.575h16.238v-8h-18.4c-.038-.584-.06-1.18-.06-1.792,0-.1.01-.2.011-.305h18.448v-8h-16.972a15.772,15.772,0,0,1,2.914-4.717A14.082,14.082,0,0,1,2083.424,745.838Z" transform="translate(-2014.056 -700.458)" fill="#f0980a"/>
          <g id="Group_42004" data-name="Group 42004" transform="translate(22.387 22.839)">
            <path id="Path_171090" data-name="Path 171090" d="M2012.324,742.685a40.431,40.431,0,1,1,26.823-15.429A40.167,40.167,0,0,1,2012.324,742.685Zm-10.116-77.8a38.02,38.02,0,1,0,42.6,32.8A38.063,38.063,0,0,0,2002.209,664.889Z" transform="translate(-1966.672 -662.153)" fill="#ffa412"/>
          </g>
        </g>
      </g>
      <path id="Path_171091" data-name="Path 171091" d="M1213.377,336.049l-2.089-29-9.916,7.781a119.884,119.884,0,0,0-40.313-28.087,130.408,130.408,0,0,0-24.48-7.743,137,137,0,0,0-25.6-2.917,140.1,140.1,0,0,0-53.711,9.581,136.3,136.3,0,0,0-24.778,12.753,133.357,133.357,0,0,0-20.633,16.617l-9.421-7.46-2.235,28.99,32.591-4.952-9.446-7.48a121.561,121.561,0,0,1,87.3-34.33c31.169.612,59.213,12.7,79.2,34.08l-9.025,7.082Z" transform="translate(-860.247 -276.059)" fill="#bee6e9"/>
      <g id="Group_42010" data-name="Group 42010" transform="translate(26.157 134.48)">
        <g id="man">
          <path id="Path_171092" data-name="Path 171092" d="M805.836,1172.229c-.661,1.776-1.806,3.838-3.008,4.351a4.657,4.657,0,0,0-1.931,1.4l-1.1-.639-1.314-.764s.031-.146.1-.384.162-.566.3-.932a1.271,1.271,0,0,0,.156-1.169,2.714,2.714,0,0,1,.224-2.268c.421-.613.828-2.122,1.082-2.077.615.106-.3,2.18-.039,2.565a.454.454,0,0,0,.591.2l.01-.006c1.724-.758,3.815-4.844,4.741-4.293C805.984,1168.425,806.117,1171.472,805.836,1172.229Z" transform="translate(-722.124 -1137.085)" fill="#ffb27d"/>
          <g id="Group_42007" data-name="Group 42007" transform="translate(77.604 29.13)">
            <path id="Path_171093" data-name="Path 171093" d="M805.335,1166.134l2.16,1.518a.34.34,0,0,0,.472-.083l5.532-7.872a.34.34,0,0,0-.082-.472l-2.159-1.518a.34.34,0,0,0-.473.083l-5.532,7.871A.34.34,0,0,0,805.335,1166.134Z" transform="translate(-805.191 -1157.646)" fill="#323232"/>
            <path id="Path_171094" data-name="Path 171094" d="M816.139,1173.685l1.266.89a.258.258,0,0,0,.359-.063l5.625-8a.259.259,0,0,0-.063-.359l-1.266-.89a.258.258,0,0,0-.359.063l-5.625,8A.259.259,0,0,0,816.139,1173.685Z" transform="translate(-814.018 -1163.808)"/>
          </g>
          <path id="Path_171095" data-name="Path 171095" d="M612.784,1142.517s10.989,19.167,14.976,22.693l14.618-10.9a5.334,5.334,0,0,1,3.05,2.78s-8.877,18.085-17.617,18.852-21.007-21.677-21.007-21.677Z" transform="translate(-566.018 -1116.195)" fill="#8f8f8f"/>
          <g id="Group_42008" data-name="Group 42008" transform="translate(10.65 70.614)">
            <path id="Path_171096" data-name="Path 171096" d="M455.667,1788.4h-6.349a3.848,3.848,0,0,1-1.737-2.909c-.31-2.046-2.6-3.161-3.1-4.834s2.046-4.027,2.046-4.027l.425-.548.442-.569,4.214.992s.1,1,.168,2.282a29.193,29.193,0,0,1,.019,2.923c-.124,2.231.624,4.634,2.606,5.068C455.867,1787.1,455.8,1787.969,455.667,1788.4Z" transform="translate(-444.418 -1702.332)"/>
            <path id="Path_171097" data-name="Path 171097" d="M637.8,1812.369h-14.52c-.7-.852-.441-4-.336-5.024.022-.207.037-.327.037-.327s4.958-3.966,5.64-.929c.021.1.046.188.073.28.858,2.84,4.707,4.131,6.929,4.491A2.517,2.517,0,0,1,637.8,1812.369Z" transform="translate(-589.704 -1726.3)"/>
            <path id="Path_171098" data-name="Path 171098" d="M596.359,1402.515s-.753,9.394-1.638,20.685c-1.2,15.339-2.649,34.18-2.792,37.749-.247,6.2-1.24,16.112-1.24,16.112s-2.354,2.355-7.064,1.362a162.181,162.181,0,0,1-5.4-29.127q-.028-.368-.056-.74c-1.115-15.244-2.85-47.343-2.85-47.343Z" transform="translate(-551.028 -1397.496)" fill="#262626"/>
            <path id="Path_171099" data-name="Path 171099" d="M596.359,1402.515s-.753,9.394-1.638,20.685l-16.493,26.1q-.028-.368-.056-.74c-1.115-15.244-2.85-47.343-2.85-47.343Z" transform="translate(-551.028 -1397.496)"/>
            <path id="Path_171100" data-name="Path 171100" d="M495.567,1387.315s-13.571,34.02-22.494,50.007-11.712,20.449-11.712,20.449-5.112-2.045-5.577-3.439c0,0,3.412-30.865,9.388-38.388,3.377-4.252,7.343-17.01,7.529-21.471s1.208-13.292,1.208-13.292Z" transform="translate(-453.675 -1381.18)" fill="#262626"/>
          </g>
          <path id="Path_171101" data-name="Path 171101" d="M588.407,1084.945c-5.3,1.673-14.479-2.843-14.479-2.843a13.81,13.81,0,0,0,4.633-11.3l4.1,3.3,2.785,2.244a33.387,33.387,0,0,1-.316,3.642c-.08.61-.18,1.29-.307,2.033A12.691,12.691,0,0,1,588.407,1084.945Z" transform="translate(-539.243 -1057.79)" fill="#ffb27d"/>
          <path id="Path_171102" data-name="Path 171102" d="M605.7,1090.5a33.387,33.387,0,0,1-.316,3.642c-3.086-.529-6.587-5.517-6.587-5.517a9.829,9.829,0,0,1,4.118-.369Z" transform="translate(-559.5 -1071.941)" fill="#ed975d"/>
          <path id="Path_171103" data-name="Path 171103" d="M598.756,1036.43s-8.759,1.455-9.582-4.013-2.507-8.964,3.051-10.125,6.961.763,7.679,2.521S601.013,1035.911,598.756,1036.43Z" transform="translate(-550.93 -1017.995)" fill="#ffb27d"/>
          <path id="Path_171104" data-name="Path 171104" d="M574.591,1174.53a.857.857,0,0,1-.557.213c-1.991-.027-7.8,1.079-12.712.575a36.612,36.612,0,0,1-11.746-3.39c-.523-.234-1.726-.877-1.7-1.461.018-.64.081-1.568.161-2.737a146.423,146.423,0,0,0,.291-19.119c-.085-1.5-.13-2.991-.135-4.457-.041-10.93,2.127-20.543,6.481-23.8.372-.267,2.656.85,4.754,1.885a8.686,8.686,0,0,0,5.709.691l1.832,1.619a18.306,18.306,0,0,1,5.736,9.162c.9,3.638,1.434,10.2,1.726,17,.132,3.08.239,6.188.266,9.136v.106c.026.292.026.612.026.9C574.83,1168.422,574.724,1174.423,574.591,1174.53Z" transform="translate(-518.026 -1098.114)" fill="#aaa"/>
          <path id="Path_171105" data-name="Path 171105" d="M548.745,1239.017a146.407,146.407,0,0,0,.291-19.119c-.085-1.5-.13-2.991-.135-4.458,1.814-4.4,3.3-7.592,3.3-7.592h4.573S560.123,1230.747,548.745,1239.017Z" transform="translate(-518.734 -1169.402)" fill="#8f8f8f"/>
          <g id="Group_42009" data-name="Group 42009" transform="translate(0 75.305)">
            <path id="Path_171106" data-name="Path 171106" d="M404.961,1437.838l19.5,2.779a4.675,4.675,0,0,0,5.272-3.957l1.2-8.452a4.675,4.675,0,0,0-3.957-5.272l-19.5-2.779a4.675,4.675,0,0,0-5.272,3.957l-1.2,8.451A4.675,4.675,0,0,0,404.961,1437.838Z" transform="translate(-398.374 -1417.576)"/>
            <path id="Path_171107" data-name="Path 171107" d="M416.746,1414.334h0a4.7,4.7,0,0,0-3.231-2.822h0c-.147-.036-.3-.065-.45-.087l-3.883-.553.26-1.824a1.545,1.545,0,0,0-1.31-1.746l-1.013-.145-4.077-.581-.735-.1a1.546,1.546,0,0,0-1.746,1.311l-.26,1.824-6.7-.956a4.694,4.694,0,0,0-5.293,3.972l-1.217,8.55a4.692,4.692,0,0,0,3.972,5.292l19.467,2.775a4.612,4.612,0,0,0,1.015.032h0a4.6,4.6,0,0,0,1.52-.384,4.687,4.687,0,0,0,2.754-3.621l1.219-8.549A4.639,4.639,0,0,0,416.746,1414.334Zm-15.234-6.417a.58.58,0,0,1,.652-.49l.866.123,3.209.458,1.749.249a.577.577,0,0,1,.489.651l-.26,1.824-6.966-.994Z" transform="translate(-387.035 -1406.454)" fill="#323232"/>
          </g>
          <path id="Path_171108" data-name="Path 171108" d="M476.458,1374.187a6.767,6.767,0,0,0-1.065,1.909c-.275,3.695,1.413,4.206-2.958,6.258,0,0-1.866.712-1.9-.737s1.295-1.472,1.052-3.5c-.28-2.34-.252-2.361,1.284-3.583l1.017-1.68Z" transform="translate(-455.04 -1303.785)" fill="#ffb27d"/>
          <path id="Path_171109" data-name="Path 171109" d="M478.475,1172.927a14.992,14.992,0,0,0,3.432.191s4.888-15.1,5.518-16.481,14.52-17.707,14.52-17.707l-5.787-14.482s-15.025,25.1-16.55,28.624c-2.521,5.827-3.4,18.893-3.4,18.893A6.284,6.284,0,0,0,478.475,1172.927Z" transform="translate(-459.661 -1101.479)" fill="#aaa"/>
          <path id="Path_171110" data-name="Path 171110" d="M583.714,1014.581s.9-.15.754-1.388-.143-2.856.863-2.555,1.057,1.107,1.471.637.421-2.454,3.416-2.592,4.212.9,5.605.292,1.467-2.72,1.467-2.72a2.4,2.4,0,0,1-.995.992s2.324-3.178-.367-5.358-5.434-.753-6.991-.659c-3.43.208-5.646.414-6.767,2.668S581.513,1012.411,583.714,1014.581Z" transform="translate(-545.478 -1000.685)" fill="#a9453d"/>
          <path id="Path_171111" data-name="Path 171111" d="M493.35,1388.791s.986,1.028,1.049,1.456c.2,1.373.658,1.966.428,2.115-.478.31-1.11-.706-1.412-1.618A4.171,4.171,0,0,1,493.35,1388.791Z" transform="translate(-473.548 -1316.765)" fill="#ffb27d"/>
        </g>
      </g>
      <g id="Group_42011" data-name="Group 42011" transform="translate(381.373 148.539)">
        <path id="Path_171112" data-name="Path 171112" d="M2372.568,1383.184s-3.843,2.185-4.918,2.184-5.3-.816-6.476-.215a13.761,13.761,0,0,0-3.707,3.812c-.719,1.422,2.894.794,4.6-.417a1.076,1.076,0,0,1,.853-.176,8.459,8.459,0,0,0,3.609.2,64.187,64.187,0,0,1,7.477-.932Z" transform="translate(-2346.925 -1326.258)" fill="#ed975d"/>
        <path id="Path_171113" data-name="Path 171113" d="M2450.644,1205.478s-3.984,28.313-10.58,30.848c-3.255,1.251-17.639,4.088-21.894,4.372,0,0-1.042-.845-.788-4.287,0,0,15.071-5.533,17.211-8.542,3.186-4.478-1.978-18.294,2.02-22.5S2447.346,1199.357,2450.644,1205.478Z" transform="translate(-2395.764 -1178.312)" fill="#8f8f8f"/>
        <path id="Path_171114" data-name="Path 171114" d="M2343.9,1799.01s-.413,6.673-1.7,6.769c-.172.013-6.548.013-6.548.013l-8.14-.047a2.641,2.641,0,0,1,2.433-2.376c2.379-.415,6.362-2.087,7.8-5.232C2339.262,1794.829,2343.9,1799.01,2343.9,1799.01Z" transform="translate(-2322.603 -1663.165)"/>
        <path id="Path_171115" data-name="Path 171115" d="M2413.7,1471.282a49.544,49.544,0,0,1-3.891,5.568c-4.281,5.4-8.942,9.861-9.754,14.074a19.085,19.085,0,0,1-.752,2.7c-.339.965-.758,1.979-1.242,3.029a93.31,93.31,0,0,1-7.246,12.388c-4.689,6.949-9.1,12.747-9.1,12.747-3.132.366-7.234.313-8.087-.345.323-.81,3.851-10.4,8.569-22.13l5.919-14.705.783-1.945c.6-1.494,1.193-2.965,1.77-4.4l7.959-19.777s17.708-6.708,19.546-2.361C2419.69,1459.707,2418.455,1463.218,2413.7,1471.282Z" transform="translate(-2360.162 -1384.467)"/>
        <path id="Path_171116" data-name="Path 171116" d="M2444.788,1709.227s5.625,3.614,5.079,4.788c-.073.156-3.181,5.724-3.181,5.724l-4.009,7.084a2.641,2.641,0,0,1-.889-3.282c.8-2.28,1.28-6.572-.764-9.364C2438.875,1711.24,2444.788,1709.227,2444.788,1709.227Z" transform="translate(-2414.667 -1591.792)"/>
        <path id="Path_171117" data-name="Path 171117" d="M2360.706,1512.082s3.293.189,6.042-5.412c0,0-5.292-18.106-8.435-22-.144-.178-.108-.375.083-.589,2.372-2.675,28.728-8.112,32.173-13.471a16.609,16.609,0,0,0,2.226-5.131,12.135,12.135,0,0,0,.164-5.529l-26.322-.761s-21.854,13.662-24.4,22.95C2340.726,1487.67,2360.706,1512.082,2360.706,1512.082Z" transform="translate(-2334.533 -1388.159)" fill="#262626"/>
        <path id="Path_171118" data-name="Path 171118" d="M2429.659,1489.348c2.372-2.675,28.728-8.112,32.172-13.471a16.6,16.6,0,0,0,2.226-5.131v-3.331l-11.187-1.76s-3.173,9.762-12.568,13.423C2431.5,1482.507,2429.835,1488.59,2429.659,1489.348Z" transform="translate(-2405.795 -1393.424)"/>
        <path id="Path_171119" data-name="Path 171119" d="M2512.869,1159.3c5.325,1.376,14.153-3.557,14.153-3.557a13.066,13.066,0,0,1-4.7-7.364c-.064-.255-.122-.516-.175-.785l-2.734-.58-4.067,3.644a34.984,34.984,0,0,0,.6,4.113q.132.681.306,1.459A12.554,12.554,0,0,0,2512.869,1159.3Z" transform="translate(-2473.563 -1133.915)" fill="#ffb27d"/>
        <path id="Path_171120" data-name="Path 171120" d="M2499.334,1210.421c-.763,10.258.241,25.86-.625,28.562-.747,2.331-9.255.945-12.651.167-1.257-.288-2.78-.7-4.352-1.186-4.386-1.358-9.166-3.3-9.678-4.737a1.2,1.2,0,0,1-.047-.166,1.311,1.311,0,0,1,.009-.6,10.275,10.275,0,0,0,.907-3.345c.087-2.029.073-4.418.15-6.987,0-.289.008-.6.039-.893v-.105c0-.055,0-.109,0-.164.074-2.865.224-5.877.4-8.865.111-1.876.238-3.734.385-5.514a73.773,73.773,0,0,1,1.581-11.266,18.089,18.089,0,0,1,5.812-8.971l1.618-1.388a9.36,9.36,0,0,0,5.874-.782c2.09-.993,2.812-1.7,3.177-1.436C2496.763,1186.467,2500.235,1197.88,2499.334,1210.421Z" transform="translate(-2440.238 -1162.968)" fill="#aaa"/>
        <path id="Path_171121" data-name="Path 171121" d="M2481.842,1306.807c-4.386-1.358-9.166-3.3-9.678-4.737a1.178,1.178,0,0,1-.047-.165c0-.2.005-.4.009-.6a10.256,10.256,0,0,0,.907-3.345c.087-2.029.073-4.418.15-6.987,0-.289.008-.6.039-.893l0-.105c0-.055,0-.109,0-.164l17.732-22.591S2502.879,1292.036,2481.842,1306.807Z" transform="translate(-2440.372 -1231.811)" fill="#8f8f8f"/>
        <path id="Path_171122" data-name="Path 171122" d="M2526.223,1150.655a34.942,34.942,0,0,0,.6,4.113,10.787,10.787,0,0,0,6.375-6.393c-.064-.255-.122-.516-.174-.785l-2.735-.58Z" transform="translate(-2484.438 -1133.915)" fill="#ed975d"/>
        <path id="Path_171123" data-name="Path 171123" d="M2502.277,1111.411s8.661-1.445,7.678-6.825-.528-9.19-6.1-8.494-6.268,2.944-6.376,4.82S2500,1111.649,2502.277,1111.411Z" transform="translate(-2461.026 -1092.379)" fill="#ffb27d"/>
        <path id="Path_171124" data-name="Path 171124" d="M2329.5,1338.185l-21.622.461-6.023-18.537a.4.4,0,0,0-.506-.258h0a.4.4,0,0,0-.258.506l6.26,19.265a.5.5,0,0,0,.485.345l21.692-.463Z" transform="translate(-2301.07 -1274.663)" fill="#4a75cb"/>
        <path id="Path_171125" data-name="Path 171125" d="M2384.578,1413.906s-7.089,1.869-9.748,1.673-4.869-1.46-5.2-2.12-1.037-1.831.773-1.615,4.281.6,4.357.253-1.475-.315-1.475-.315-.469-.682.122-.707,2.313-.492,2.954-.172,1.23,1.5,1.7,1.452,5.932-2.461,5.932-2.461Z" transform="translate(-2356.563 -1348.011)" fill="#ffb27d"/>
        <path id="Path_171126" data-name="Path 171126" d="M2457.2,1214.616s-.838,28.579-7.114,31.827c-3.1,1.6-17.081,6.008-21.279,6.76,0,0-1.129-.726-1.256-4.174,0,0,14.369-7.161,16.165-10.387,2.673-4.8-3.983-17.965-.473-22.586S2453.249,1208.9,2457.2,1214.616Z" transform="translate(-2404.08 -1186.289)" fill="#aaa"/>
        <path id="Path_171127" data-name="Path 171127" d="M2495.528,1090.905a4.1,4.1,0,0,0-1.039-2.9s.4-1.85-.336-2.156-.885,1.251-1.22,1.007a7.477,7.477,0,0,1-2.47-3.111c-.641-1.708-6.5.361-7.188.668s-2.879-.821-3.306-1.736a12.861,12.861,0,0,0,1.769-1.709c.549-.732,4.393-5.674,9.762-4.271s6.1,3.966,5.8,6.162S2497.727,1090.168,2495.528,1090.905Z" transform="translate(-2446.768 -1076.445)" fill="#8a4503"/>
      </g>
      <g id="Group_42017" data-name="Group 42017" transform="translate(413.158 232.618)">
        <rect id="Rectangle_18734" data-name="Rectangle 18734" width="43.742" height="11.442" rx="5.721" transform="translate(3.035)" fill="#262626"/>
        <g id="Group_42016" data-name="Group 42016" transform="translate(0 11.441)">
          <g id="Group_42013" data-name="Group 42013">
            <g id="Group_42012" data-name="Group 42012">
              <path id="Path_171128" data-name="Path 171128" d="M2483.547,1591.14l-.641,3.027-9.28,43.823c-.026.153-.235.269-.485.269-.477,0-.848-.254-.8-.547l7.359-44.876.279-1.7Z" transform="translate(-2472.34 -1591.14)" fill="#efcbab"/>
            </g>
            <path id="Path_171129" data-name="Path 171129" d="M2515.864,1591.14l-.641,3.027c-.44-1.206-3.2-1.332-3.2-1.332l.279-1.7Z" transform="translate(-2504.657 -1591.14)" fill="#cca07f"/>
          </g>
          <g id="Group_42015" data-name="Group 42015" transform="translate(39.015)">
            <g id="Group_42014" data-name="Group 42014">
              <path id="Path_171130" data-name="Path 171130" d="M2692.972,1638.258c-.25,0-.459-.116-.485-.269l-9.28-43.823-.4-1.889-.241-1.139h3.564l.278,1.7.218,1.33,7.141,43.546C2693.819,1638,2693.448,1638.258,2692.972,1638.258Z" transform="translate(-2682.566 -1591.14)" fill="#efcbab"/>
            </g>
            <path id="Path_171131" data-name="Path 171131" d="M2686.627,1594.165c-.907-1.443-3.819-1.885-3.819-1.885h0l-.241-1.139h3.564l.278,1.7Z" transform="translate(-2682.566 -1591.14)" fill="#cca07f"/>
          </g>
        </g>
      </g>
      <path id="Rectangle_18735" data-name="Rectangle 18735" d="M.6,0H491.553a.6.6,0,0,1,.6.6v0a.6.6,0,0,1-.6.6H.6A.6.6,0,0,1,0,.6v0A.6.6,0,0,1,.6,0Z" transform="translate(0 290.915)" fill="#2e3552"/>
      <g id="Group_42020" data-name="Group 42020" transform="translate(206.798 102.69)">
        <g id="Group_42018" data-name="Group 42018" transform="translate(12.43)">
          <path id="Path_171132" data-name="Path 171132" d="M1436.712,830.206h.966V840.8h-2.762V836.09l-2.248,2.354h-.3l-2.233-2.354V840.8h-2.76V830.206h1l4.134,4.586Z" transform="translate(-1427.373 -830.055)" fill="#00a1a3"/>
          <path id="Path_171133" data-name="Path 171133" d="M1493.911,834.87c0-7.3,10.833-7.3,10.833,0S1493.911,842.187,1493.911,834.87Zm8.071,0a2.655,2.655,0,1,0-5.294,0A2.655,2.655,0,1,0,1501.982,834.87Z" transform="translate(-1481.563 -829.393)" fill="#00a1a3"/>
          <path id="Path_171134" data-name="Path 171134" d="M1566.08,835.543v5.19h-2.791V830.127h.98l5.341,5.22v-5.175h2.76v10.576h-.965Z" transform="translate(-1538.065 -829.991)" fill="#00a1a3"/>
          <path id="Path_171135" data-name="Path 171135" d="M1633.322,832.782h-3.908v1.494h3.591v2.4h-3.591v1.856h4.043v2.4h-6.728V830.368h6.593Z" transform="translate(-1589.732 -830.187)" fill="#00a1a3"/>
          <path id="Path_171136" data-name="Path 171136" d="M1675.248,840.929h-2.669v-4.435l-3.545-5.718v-.407h2.911l1.916,3.515h.1l1.917-3.515h2.927v.407l-3.561,5.718Z" transform="translate(-1624.185 -830.187)" fill="#00a1a3"/>
        </g>
        <g id="Group_42019" data-name="Group 42019" transform="translate(0 16.173)">
          <path id="Path_171137" data-name="Path 171137" d="M1360.4,919.89v-2.414h7.845v2.414h-2.58v8.147h-2.671V919.89Z" transform="translate(-1360.398 -917.303)" fill="#00a1a3"/>
          <path id="Path_171138" data-name="Path 171138" d="M1420.563,927.645v.392h-3.017l-1.811-3.108h-1.4v3.108h-2.7V917.476h4.631a3.757,3.757,0,0,1,2.233,6.819Zm-4.3-7.755c-.634-.015-1.3,0-1.931,0v2.61h1.931C1417.726,922.5,1417.8,919.905,1416.263,919.89Z" transform="translate(-1402.124 -917.303)" fill="#00a1a3"/>
          <path id="Path_171139" data-name="Path 171139" d="M1471.355,926.113h-4.165l-.618,1.328h-2.641v-.392l4.753-10.3h1.162l4.767,10.3v.392h-2.64Zm-2.1-5.1-1.177,2.776h2.383Z" transform="translate(-1444.718 -916.706)" fill="#00a1a3"/>
          <path id="Path_171140" data-name="Path 171140" d="M1531.791,922.65v5.19H1529V917.234h.98l5.342,5.22v-5.175h2.76v10.576h-.966Z" transform="translate(-1497.71 -917.105)" fill="#00a1a3"/>
          <path id="Path_171141" data-name="Path 171141" d="M1594.376,924.122c0-.739-.876-.86-1.931-.92-2.293-.166-3.8-.95-3.833-3.244-.091-4.556,8.116-4.556,8.056,0H1594.1c0-1.4-2.835-1.282-2.926-.03-.06.8.723.966,1.674,1.071,2.1.226,4.149.5,4.149,3.138,0,4.435-8.6,4.556-8.539-.09h2.61C1591.071,925.39,1594.376,925.36,1594.376,924.122Z" transform="translate(-1546.135 -916.541)" fill="#00a1a3"/>
          <path id="Path_171142" data-name="Path 171142" d="M1647.9,924.612v3.425h-2.746V917.476h6.579v2.414H1647.9V922.2h3.394v2.414Z" transform="translate(-1592.309 -917.303)" fill="#00a1a3"/>
          <path id="Path_171143" data-name="Path 171143" d="M1698.437,919.89h-3.907v1.494h3.591v2.4h-3.591v1.856h4.043v2.4h-6.728V917.476h6.593Z" transform="translate(-1630.333 -917.303)" fill="#00a1a3"/>
          <path id="Path_171144" data-name="Path 171144" d="M1749.494,927.645v.392h-3.017l-1.811-3.108h-1.4v3.108h-2.7V917.476h4.631a3.757,3.757,0,0,1,2.233,6.819Zm-4.3-7.755c-.634-.015-1.3,0-1.931,0v2.61h1.931C1746.657,922.5,1746.733,919.905,1745.194,919.89Z" transform="translate(-1670.01 -917.303)" fill="#00a1a3"/>
        </g>
      </g>
      <path id="Rectangle_18736" data-name="Rectangle 18736" d="M6.446,0h23.3a6.446,6.446,0,0,1,6.446,6.446v0a6.446,6.446,0,0,1-6.446,6.446H6.446A6.446,6.446,0,0,1,0,6.446v0A6.446,6.446,0,0,1,6.446,0Z" transform="translate(228.712 209.049)" fill="#f3f6f9"/>
    </g>
  </g>
</svg>
