<svg id="svgexport-17_29_" data-name="svgexport-17 (29)" xmlns="http://www.w3.org/2000/svg" width="24.5" height="24.5" viewBox="0 0 24.5 24.5">
  <path id="Path_170908" data-name="Path 170908" d="M202.239,139.126a1.191,1.191,0,0,1-.718-.161.746.746,0,0,1-.206-.613,3.183,3.183,0,0,1,.067-.557,6.14,6.14,0,0,1,.145-.624l.657-2.261a3.424,3.424,0,0,0,.134-.685c0-.251.033-.423.033-.523a1.464,1.464,0,0,0-.518-1.164,2.178,2.178,0,0,0-1.47-.445,3.815,3.815,0,0,0-1.114.184q-.59.184-1.242.44l-.189.735c.128-.045.284-.095.462-.15a1.893,1.893,0,0,1,.523-.078,1.069,1.069,0,0,1,.707.173.807.807,0,0,1,.184.607,2.641,2.641,0,0,1-.061.557q-.059.292-.15.618l-.663,2.272a6.492,6.492,0,0,0-.128.64,3.982,3.982,0,0,0-.039.557,1.453,1.453,0,0,0,.557,1.153,2.227,2.227,0,0,0,1.492.457,3.435,3.435,0,0,0,1.114-.161q.473-.161,1.264-.462l.178-.7a3.08,3.08,0,0,1-.44.145A2.116,2.116,0,0,1,202.239,139.126Zm.7-10.719a1.694,1.694,0,0,0-2.227,0,1.331,1.331,0,0,0,0,2.016,1.67,1.67,0,0,0,2.227,0,1.337,1.337,0,0,0,0-2.016Z" transform="translate(-188.352 -121.865)" fill="#50cd89"/>
  <path id="Path_170909" data-name="Path 170909" d="M12.25,0A12.25,12.25,0,1,0,24.5,12.25,12.25,12.25,0,0,0,12.25,0Zm0,23.386A11.136,11.136,0,1,1,23.386,12.25,11.136,11.136,0,0,1,12.25,23.386Z" fill="#50cd89"/>
</svg>
