<svg xmlns="http://www.w3.org/2000/svg" width="26.011" height="26.011" viewBox="0 0 26.011 26.011">
  <g id="vuesax_twotone_convert-card" data-name="vuesax/twotone/convert-card" transform="translate(-556 -316)">
    <g id="convert-card" transform="translate(556 316)">
      <path id="Vector" d="M0,0H10.838" transform="translate(13.005 6.026)" fill="none" stroke="#292d32" stroke-linecap="round" stroke-linejoin="round" stroke-width="1.5"/>
      <path id="Vector-2" data-name="Vector" d="M2.406,0H8.432c1.929,0,2.406.477,2.406,2.384V6.839c0,1.907-.477,2.384-2.406,2.384H2.406C.477,9.223,0,8.746,0,6.839V2.384C0,.477.477,0,2.406,0Z" transform="translate(13.005 2.168)" fill="none" stroke="#292d32" stroke-linecap="round" stroke-linejoin="round" stroke-width="1.5"/>
      <path id="Vector-3" data-name="Vector" d="M0,0H10.838" transform="translate(2.168 18.489)" fill="none" stroke="#292d32" stroke-linecap="round" stroke-linejoin="round" stroke-width="1.5"/>
      <path id="Vector-4" data-name="Vector" d="M2.406,0H8.432c1.929,0,2.406.477,2.406,2.384V6.839c0,1.907-.477,2.384-2.406,2.384H2.406C.477,9.223,0,8.746,0,6.839V2.384C0,.477.477,0,2.406,0Z" transform="translate(2.168 14.631)" fill="none" stroke="#292d32" stroke-linecap="round" stroke-linejoin="round" stroke-width="1.5"/>
      <path id="Vector-5" data-name="Vector" d="M7.586,0A7.581,7.581,0,0,1,0,7.586l1.138-1.9" transform="translate(16.257 16.257)" fill="none" stroke="#d1d1d1" stroke-linecap="round" stroke-linejoin="round" stroke-width="1.5"/>
      <path id="Vector-6" data-name="Vector" d="M0,7.586A7.581,7.581,0,0,1,7.586,0L6.449,1.9" transform="translate(2.168 2.168)" fill="none" stroke="#d1d1d1" stroke-linecap="round" stroke-linejoin="round" stroke-width="1.5"/>
      <path id="Vector-7" data-name="Vector" d="M0,0H26.011V26.011H0Z" fill="none" opacity="0"/>
    </g>
  </g>
</svg>
