<svg xmlns="http://www.w3.org/2000/svg" width="26.012" height="26.012" viewBox="0 0 26.012 26.012">
  <g id="vuesax_twotone_unlimited" data-name="vuesax/twotone/unlimited" transform="translate(-172 -316)">
    <g id="unlimited" transform="translate(172 316)">
      <path id="Vector" d="M8.877,2.027A4.849,4.849,0,0,0,4.931,0a4.931,4.931,0,1,0,0,9.863A5.225,5.225,0,0,0,9.408,7.327l1.441-2.4,1.431-2.4A5.225,5.225,0,0,1,16.756,0a4.931,4.931,0,0,1,0,9.863,4.879,4.879,0,0,1-3.945-2.027" transform="translate(2.157 8.074)" fill="none" stroke="#292d32" stroke-linecap="round" stroke-linejoin="round" stroke-width="1.5"/>
      <path id="Vector-2" data-name="Vector" d="M0,0H26.012V26.012H0Z" transform="translate(26.012 26.012) rotate(180)" fill="none" opacity="0"/>
    </g>
  </g>
</svg>
