<svg xmlns="http://www.w3.org/2000/svg" width="26.199" height="26.199" viewBox="0 0 26.199 26.199">
  <g id="vuesax_twotone_security-card" data-name="vuesax/twotone/security-card" transform="translate(-300 -444)">
    <g id="security-card" transform="translate(300 444)">
      <path id="Vector" d="M10.633,17.141h6.462c-.1.087-.2.164-.295.251l-4.661,3.493a4.99,4.99,0,0,1-5.6,0L1.867,17.392A5.277,5.277,0,0,1,0,13.659V5.57A3.769,3.769,0,0,1,2.26,2.3L7.7.254a5.409,5.409,0,0,1,3.275,0L16.4,2.3a3.872,3.872,0,0,1,2.194,2.6H10.622c-.24,0-.458.011-.666.011-2.02.12-2.544.851-2.544,3.155v5.928C7.423,16.5,8.067,17.141,10.633,17.141Z" transform="translate(2.183 2.235)" fill="none" stroke="#292d32" stroke-linecap="round" stroke-linejoin="round" stroke-width="1.5" opacity="0.4"/>
      <path id="Vector-2" data-name="Vector" d="M0,0H14.41" transform="translate(9.606 12.248)" fill="none" stroke="#292d32" stroke-linecap="round" stroke-linejoin="round" stroke-width="1.5"/>
      <path id="Vector-3" data-name="Vector" d="M14.41,3.177V9.235c-.022,2.423-.688,3.024-3.209,3.024H3.209C.644,12.259,0,11.615,0,9.093V3.166C0,.873.524.142,2.544.011,2.751.011,2.969,0,3.209,0H11.2C13.766.011,14.41.644,14.41,3.177Z" transform="translate(9.606 7.107)" fill="none" stroke="#292d32" stroke-linecap="round" stroke-linejoin="round" stroke-width="1.5"/>
      <path id="Vector-4" data-name="Vector" d="M0,0H1.452" transform="translate(12.357 16.658)" fill="none" stroke="#292d32" stroke-linecap="round" stroke-linejoin="round" stroke-width="1.5"/>
      <path id="Vector-5" data-name="Vector" d="M0,0H3.57" transform="translate(16.102 16.658)" fill="none" stroke="#292d32" stroke-linecap="round" stroke-linejoin="round" stroke-width="1.5"/>
      <path id="Vector-6" data-name="Vector" d="M0,0H26.2V26.2H0Z" fill="none" opacity="0"/>
    </g>
  </g>
</svg>
