<svg xmlns="http://www.w3.org/2000/svg" width="26.02" height="26.02" viewBox="0 0 26.02 26.02">
  <g id="vuesax_twotone_category" data-name="vuesax/twotone/category" transform="translate(-108 -188)">
    <g id="category" transform="translate(108 188)">
      <path id="Vector" d="M3.252,8.673H5.421q3.252,0,3.252-3.252V3.252Q8.673,0,5.421,0H3.252Q0,0,0,3.252V5.421Q0,8.673,3.252,8.673Z" transform="translate(2.168 2.168)" fill="none" stroke="#70cacb" stroke-linecap="round" stroke-linejoin="round" stroke-width="1.5"/>
      <path id="Vector-2" data-name="Vector" d="M3.252,8.673H5.421q3.252,0,3.252-3.252V3.252Q8.673,0,5.421,0H3.252Q0,0,0,3.252V5.421Q0,8.673,3.252,8.673Z" transform="translate(15.178 2.168)" fill="none" stroke="#00a1a3" stroke-linecap="round" stroke-linejoin="round" stroke-width="1.5"/>
      <path id="Vector-3" data-name="Vector" d="M3.252,8.673H5.421q3.252,0,3.252-3.252V3.252Q8.673,0,5.421,0H3.252Q0,0,0,3.252V5.421Q0,8.673,3.252,8.673Z" transform="translate(15.178 15.178)" fill="none" stroke="#70cacb" stroke-linecap="round" stroke-linejoin="round" stroke-width="1.5"/>
      <path id="Vector-4" data-name="Vector" d="M3.252,8.673H5.421q3.252,0,3.252-3.252V3.252Q8.673,0,5.421,0H3.252Q0,0,0,3.252V5.421Q0,8.673,3.252,8.673Z" transform="translate(2.168 15.178)" fill="none" stroke="#00a1a3" stroke-linecap="round" stroke-linejoin="round" stroke-width="1.5"/>
      <path id="Vector-5" data-name="Vector" d="M0,0H26.02V26.02H0Z" fill="none" opacity="0"/>
    </g>
  </g>
</svg>
