<svg xmlns="http://www.w3.org/2000/svg" width="26.199" height="26.199" viewBox="0 0 26.199 26.199">
  <g id="_24-support" data-name="24-support" transform="translate(-492 -252)">
    <path id="Vector" d="M16.375,18.394h-.83a3.261,3.261,0,0,0-2.314.95l-1.867,1.845a2.208,2.208,0,0,1-3.089,0L6.408,19.344a3.28,3.28,0,0,0-2.314-.95H3.275A3.257,3.257,0,0,1,0,15.152V3.242A3.257,3.257,0,0,1,3.275,0h13.1a3.257,3.257,0,0,1,3.275,3.242v11.91A3.264,3.264,0,0,1,16.375,18.394Z" transform="translate(495.275 254.194)" fill="none" stroke="#292d32" stroke-linecap="round" stroke-linejoin="round" stroke-width="1.5"/>
    <path id="Vector-2" data-name="Vector" d="M0,1.845a1.845,1.845,0,1,1,3.69,0C3.69,3.9.775,4.116.131,6.07a.64.64,0,0,0,.633.808H3.69" transform="translate(499.641 260.154)" fill="none" stroke="#292d32" stroke-linecap="round" stroke-linejoin="round" stroke-width="1.5" opacity="0.4"/>
    <path id="Vector-3" data-name="Vector" d="M3.649,6.869V.635A.632.632,0,0,0,3.19.024.648.648,0,0,0,2.47.3C1.684,1.563.832,3,.09,4.271a.7.7,0,0,0,0,.688.692.692,0,0,0,.6.338H4.7" transform="translate(505.861 260.152)" fill="none" stroke="#292d32" stroke-linecap="round" stroke-linejoin="round" stroke-width="1.5" opacity="0.4"/>
    <path id="Vector-4" data-name="Vector" d="M0,0H26.2V26.2H0Z" transform="translate(492 252)" fill="none" opacity="0"/>
  </g>
</svg>
