<svg xmlns="http://www.w3.org/2000/svg" width="26.017" height="26.017" viewBox="0 0 26.017 26.017">
  <g id="vuesax_twotone_money-recive" data-name="vuesax/twotone/money-recive" transform="translate(-364 -444)">
    <g id="money-recive" transform="translate(364 444)">
      <g id="Group_40" data-name="Group 40" transform="translate(10.298 8.13)" opacity="0.4">
        <path id="Vector" d="M0,5.7A1.854,1.854,0,0,0,1.81,7.6H3.848A1.614,1.614,0,0,0,5.42,5.94,1.432,1.432,0,0,0,4.347,4.369L1.084,3.23A1.424,1.424,0,0,1,.011,1.659,1.621,1.621,0,0,1,1.583,0H3.621a1.854,1.854,0,0,1,1.81,1.9" transform="translate(0 1.073)" fill="none" stroke="#292d32" stroke-linecap="round" stroke-linejoin="round" stroke-width="1.5"/>
        <path id="Vector-2" data-name="Vector" d="M0,0V9.756" transform="translate(2.71)" fill="none" stroke="#292d32" stroke-linecap="round" stroke-linejoin="round" stroke-width="1.5"/>
      </g>
      <path id="Vector-3" data-name="Vector" d="M21.681,10.84A10.84,10.84,0,1,1,10.84,0" transform="translate(2.168 2.168)" fill="none" stroke="#292d32" stroke-linecap="round" stroke-linejoin="round" stroke-width="1.5"/>
      <path id="Vector-4" data-name="Vector" d="M0,0V4.336H4.336" transform="translate(18.428 3.252)" fill="none" stroke="#292d32" stroke-linecap="round" stroke-linejoin="round" stroke-width="1.5"/>
      <path id="Vector-5" data-name="Vector" d="M5.42,0,0,5.42" transform="translate(18.428 2.168)" fill="none" stroke="#292d32" stroke-linecap="round" stroke-linejoin="round" stroke-width="1.5"/>
      <path id="Vector-6" data-name="Vector" d="M0,0H26.017V26.017H0Z" fill="none" opacity="0"/>
    </g>
  </g>
</svg>
