<svg xmlns="http://www.w3.org/2000/svg" width="27.999" height="28" viewBox="0 0 27.999 28">
  <g id="svgexport-17_31_" data-name="svgexport-17 (31)" transform="translate(-0.006 0)">
    <path id="Path_170933" data-name="Path 170933" d="M27.326,12.35l-1.91-1.91a3.248,3.248,0,0,1-.825-1.992v-2.7a2.341,2.341,0,0,0-2.333-2.333h-2.7a3.246,3.246,0,0,1-1.992-.825L15.656.68a2.341,2.341,0,0,0-3.3,0L10.447,2.59a3.252,3.252,0,0,1-1.992.825h-2.7A2.34,2.34,0,0,0,3.421,5.749v2.7A3.247,3.247,0,0,1,2.6,10.439L.687,12.35a2.34,2.34,0,0,0,0,3.3L2.6,17.56a3.249,3.249,0,0,1,.825,1.992v2.7a2.341,2.341,0,0,0,2.333,2.333h2.7a3.247,3.247,0,0,1,1.992.825l1.909,1.91a2.341,2.341,0,0,0,3.3,0l1.909-1.91a3.247,3.247,0,0,1,1.992-.825h2.7a2.34,2.34,0,0,0,2.333-2.333v-2.7a3.247,3.247,0,0,1,.825-1.992l1.91-1.91a2.342,2.342,0,0,0,0-3.3Zm-3.559,3.56a5.562,5.562,0,0,0-1.509,3.642v2.7h-2.7a5.563,5.563,0,0,0-3.641,1.509l-1.91,1.91-1.91-1.91a5.566,5.566,0,0,0-3.641-1.509h-2.7v-2.7a5.566,5.566,0,0,0-1.509-3.641L2.336,14l1.91-1.911A5.562,5.562,0,0,0,5.755,8.448v-2.7h2.7A5.571,5.571,0,0,0,12.1,4.24l1.91-1.911,1.91,1.91a5.563,5.563,0,0,0,3.641,1.509h2.7v2.7a5.566,5.566,0,0,0,1.509,3.641L25.676,14l-1.909,1.911Z" transform="translate(0 0)" fill="#50cd89"/>
    <path id="Path_170934" data-name="Path 170934" d="M114.744,128l-7.2,7.2-3.5-3.5-1.65,1.65,5.148,5.149,8.852-8.851Z" transform="translate(-95.388 -119.251)" fill="#50cd89"/>
  </g>
</svg>
