<svg xmlns="http://www.w3.org/2000/svg" width="13.293" height="19.931" viewBox="0 0 13.293 19.931">
  <path id="Icon_ionic-ios-arrow-round-down" data-name="Icon ionic-ios-arrow-round-down" d="M24.286,20.586a.9.9,0,0,0-1.274-.007l-4.216,4.2V8.768a.9.9,0,0,0-1.8,0V24.781L12.78,20.572a.911.911,0,0,0-1.274.007.9.9,0,0,0,.007,1.267l5.746,5.7h0a1.011,1.011,0,0,0,.284.187.859.859,0,0,0,.346.069.9.9,0,0,0,.63-.256l5.746-5.7A.882.882,0,0,0,24.286,20.586Z" transform="translate(-11.247 -7.875)" fill="#fff"/>
</svg>
